<svg width="115" height="34" viewBox="0 0 115 34" fill="none" xmlns="http://www.w3.org/2000/svg">
<path d="M100.981 33.0838C100.895 33.0822 100.813 33.0473 100.752 32.9864C100.692 32.9256 100.657 32.8435 100.655 32.7574V29.2302C100.657 29.1441 100.692 29.062 100.752 29.0011C100.813 28.9402 100.895 28.9053 100.981 28.9038H101.262C101.348 28.9053 101.43 28.9402 101.491 29.0011C101.552 29.062 101.587 29.1441 101.588 29.2302V31.4633C101.588 31.4641 101.588 31.4649 101.589 31.4656C101.589 31.4663 101.589 31.467 101.59 31.4676C101.591 31.4682 101.591 31.4686 101.592 31.4689C101.593 31.4692 101.593 31.4694 101.594 31.4694C101.595 31.4694 101.596 31.4692 101.596 31.4689C101.597 31.4686 101.598 31.4682 101.598 31.4676C101.599 31.467 101.599 31.4663 101.6 31.4656C101.6 31.4649 101.6 31.4641 101.6 31.4633L102.802 29.1901C102.844 29.1007 102.912 29.0257 102.997 28.9748C103.081 28.9238 103.179 28.8991 103.278 28.9038H103.558C103.644 28.9053 103.726 28.9402 103.787 29.0011C103.848 29.062 103.883 29.1441 103.885 29.2302V32.7574C103.883 32.8435 103.848 32.9256 103.787 32.9864C103.726 33.0473 103.644 33.0822 103.558 33.0838H103.278C103.192 33.0822 103.109 33.0473 103.049 32.9864C102.988 32.9256 102.953 32.8435 102.951 32.7574V30.5242C102.951 30.5235 102.951 30.5227 102.951 30.5219C102.951 30.5212 102.95 30.5205 102.95 30.52C102.949 30.5194 102.949 30.5189 102.948 30.5186C102.947 30.5183 102.946 30.5181 102.945 30.5181C102.945 30.5181 102.944 30.5183 102.943 30.5186C102.942 30.5189 102.942 30.5194 102.941 30.52C102.941 30.5205 102.94 30.5212 102.94 30.5219C102.94 30.5227 102.94 30.5235 102.94 30.5242L101.737 32.7975C101.695 32.8869 101.628 32.9618 101.543 33.0128C101.459 33.0637 101.361 33.0884 101.262 33.0838L100.981 33.0838ZM96.6462 29.7111C96.5602 29.7096 96.4781 29.6747 96.4172 29.6138C96.3563 29.5529 96.3214 29.4708 96.3198 29.3848V29.2302C96.3214 29.1441 96.3563 29.062 96.4172 29.0011C96.478 28.9402 96.5601 28.9053 96.6462 28.9038H99.2C99.2861 28.9053 99.3682 28.9402 99.4291 29.0011C99.49 29.062 99.5248 29.1441 99.5264 29.2302V29.3848C99.5248 29.4708 99.4899 29.5529 99.4291 29.6138C99.3682 29.6747 99.2861 29.7096 99.2 29.7111H98.4671C98.4609 29.7102 98.4545 29.7108 98.4486 29.7128C98.4426 29.7148 98.4372 29.7181 98.4327 29.7226C98.4283 29.727 98.4249 29.7325 98.423 29.7384C98.421 29.7444 98.4204 29.7507 98.4213 29.757V32.7574C98.4197 32.8435 98.3848 32.9256 98.3239 32.9864C98.2631 33.0473 98.181 33.0822 98.0949 33.0838H97.7513C97.6653 33.0822 97.5832 33.0473 97.5223 32.9864C97.4614 32.9256 97.4265 32.8435 97.425 32.7574V29.757C97.4258 29.7507 97.4253 29.7444 97.4233 29.7384C97.4213 29.7325 97.418 29.727 97.4135 29.7226C97.4091 29.7181 97.4037 29.7148 97.3977 29.7128C97.3917 29.7108 97.3854 29.7102 97.3792 29.7111H96.6462ZM92.6309 33.0838C92.5448 33.0822 92.4627 33.0473 92.4018 32.9864C92.3409 32.9256 92.306 32.8435 92.3045 32.7574V29.2302C92.306 29.1441 92.3409 29.062 92.4018 29.0011C92.4627 28.9402 92.5448 28.9053 92.6309 28.9038H92.9572C92.9993 28.9032 93.0409 28.9115 93.0794 28.9283C93.1179 28.9451 93.1524 28.9699 93.1805 29.0011C93.2116 29.0306 93.2362 29.0662 93.2529 29.1056C93.2697 29.1449 93.2782 29.1874 93.2779 29.2302V30.6903C93.2778 30.6911 93.2779 30.6919 93.2781 30.6926C93.2784 30.6934 93.2788 30.694 93.2793 30.6946C93.2799 30.6951 93.2806 30.6956 93.2813 30.6958C93.2821 30.696 93.2829 30.6961 93.2836 30.696C93.2913 30.696 93.2951 30.6941 93.2951 30.6903L94.2685 29.1786C94.3188 29.0919 94.3918 29.0206 94.4795 28.9722C94.5673 28.9238 94.6665 28.9001 94.7667 28.9038H95.2477C95.2788 28.9023 95.3097 28.9102 95.3363 28.9266C95.3628 28.9429 95.3838 28.9669 95.3965 28.9954C95.4116 29.023 95.4186 29.0544 95.4166 29.0858C95.4145 29.1172 95.4036 29.1474 95.3851 29.1729L94.2227 30.8678C94.2134 30.8791 94.2084 30.8933 94.2084 30.9079C94.2084 30.9225 94.2134 30.9366 94.2227 30.9479L95.4481 32.8146C95.4667 32.8403 95.4771 32.8709 95.4782 32.9025C95.4792 32.9342 95.4707 32.9654 95.4538 32.9921C95.4411 33.0206 95.4201 33.0446 95.3935 33.0609C95.3669 33.0773 95.3361 33.0852 95.3049 33.0837H94.8239C94.7245 33.0878 94.6259 33.0643 94.539 33.0158C94.452 32.9673 94.3802 32.8957 94.3315 32.8089L93.2951 31.1255C93.2951 31.1216 93.2913 31.1197 93.2836 31.1197C93.2829 31.1196 93.2821 31.1197 93.2813 31.1199C93.2806 31.1202 93.2799 31.1206 93.2793 31.1212C93.2788 31.1217 93.2784 31.1224 93.2781 31.1232C93.2779 31.1239 93.2778 31.1247 93.2779 31.1255V32.7574C93.2782 32.8002 93.2697 32.8426 93.2529 32.882C93.2362 32.9214 93.2116 32.9569 93.1805 32.9864C93.1524 33.0176 93.1179 33.0424 93.0794 33.0592C93.0409 33.076 92.9993 33.0844 92.9572 33.0837L92.6309 33.0838ZM89.1144 31.8011L87.9177 29.1958C87.9025 29.1649 87.896 29.1304 87.899 29.096C87.9021 29.0617 87.9145 29.0289 87.9349 29.0011C87.9522 28.9711 87.9773 28.9462 88.0075 28.9291C88.0377 28.912 88.072 28.9033 88.1067 28.9038H88.5705C88.6654 28.9024 88.758 28.9326 88.8338 28.9896C88.913 29.0418 88.9733 29.1181 89.0056 29.2073L89.6469 30.9881C89.6468 30.9888 89.6469 30.9896 89.6472 30.9904C89.6474 30.9911 89.6478 30.9918 89.6484 30.9924C89.6489 30.9929 89.6496 30.9933 89.6504 30.9936C89.6511 30.9938 89.6519 30.9939 89.6527 30.9938C89.6603 30.9938 89.6641 30.9919 89.6641 30.9881L90.2997 29.2073C90.3286 29.1179 90.3872 29.0411 90.4658 28.9896C90.5445 28.9341 90.6385 28.9041 90.7349 28.9038H91.1758C91.2122 28.9022 91.2484 28.9104 91.2807 28.9275C91.3129 28.9446 91.3399 28.97 91.3591 29.0011C91.3796 29.0301 91.3915 29.0642 91.3936 29.0997C91.3956 29.1351 91.3876 29.1704 91.3705 29.2015L90.2138 31.8641C90.0697 32.2328 89.8209 32.5513 89.4981 32.7803C89.1376 32.9968 88.7274 33.1171 88.3071 33.1296C88.265 33.132 88.2229 33.1256 88.1835 33.1108C88.1441 33.096 88.1081 33.0731 88.078 33.0437C88.0184 32.9825 87.9855 32.9001 87.9864 32.8147V32.683C87.9858 32.641 87.9942 32.5993 88.011 32.5608C88.0277 32.5223 88.0526 32.4878 88.0838 32.4596C88.1444 32.3968 88.2258 32.3581 88.3128 32.3508C88.4975 32.3497 88.6796 32.3067 88.8453 32.2249C88.9677 32.1427 89.0617 32.0247 89.1144 31.887C89.1201 31.8734 89.123 31.8588 89.123 31.8441C89.123 31.8293 89.1201 31.8147 89.1144 31.8011H89.1144ZM83.3746 33.9999C83.2885 33.9984 83.2064 33.9635 83.1455 33.9026C83.0847 33.8417 83.0498 33.7596 83.0482 33.6735V32.557C83.0477 32.523 83.0541 32.4893 83.0669 32.4578C83.0797 32.4264 83.0986 32.3978 83.1226 32.3738C83.1467 32.3497 83.1752 32.3308 83.2067 32.318C83.2382 32.3052 83.2719 32.2988 83.3059 32.2993C83.3402 32.2993 83.3612 32.2898 83.3689 32.2707C83.5768 31.9663 83.7281 31.6268 83.8155 31.2686C83.9035 30.7467 83.9399 30.2173 83.9243 29.6882V29.2302C83.9234 29.1447 83.9563 29.0623 84.0159 29.0011C84.0454 28.9701 84.081 28.9455 84.1204 28.9287C84.1597 28.912 84.2021 28.9035 84.2449 28.9038H86.2376C86.3237 28.9053 86.4058 28.9402 86.4667 29.0011C86.5275 29.062 86.5624 29.1441 86.564 29.2302V32.2535C86.5631 32.2597 86.5637 32.2661 86.5657 32.272C86.5676 32.278 86.571 32.2834 86.5754 32.2879C86.5799 32.2923 86.5853 32.2956 86.5913 32.2976C86.5972 32.2996 86.6036 32.3002 86.6098 32.2993H86.7415C86.8276 32.3009 86.9097 32.3358 86.9705 32.3967C87.0314 32.4575 87.0663 32.5396 87.0679 32.6257V33.6735C87.0663 33.7596 87.0314 33.8417 86.9706 33.9026C86.9097 33.9635 86.8276 33.9984 86.7415 33.9999H86.4953C86.4092 33.9984 86.3271 33.9635 86.2662 33.9026C86.2053 33.8417 86.1705 33.7596 86.1689 33.6735V33.1353C86.1689 33.101 86.1536 33.0838 86.1231 33.0838H83.993C83.9625 33.0838 83.9472 33.1009 83.9472 33.1353V33.6735C83.9456 33.7596 83.9107 33.8417 83.8499 33.9026C83.789 33.9635 83.7069 33.9984 83.6208 33.9999H83.3746ZM84.3938 32.2592C84.3901 32.2629 84.3876 32.2675 84.3865 32.2727C84.3855 32.2778 84.3861 32.2831 84.3881 32.2878C84.3918 32.2916 84.3963 32.2946 84.4012 32.2965C84.4061 32.2985 84.4114 32.2995 84.4167 32.2993H85.5562C85.5905 32.2993 85.6077 32.284 85.6077 32.2535V29.734C85.6077 29.7035 85.5905 29.6882 85.5562 29.6882H84.9034C84.8964 29.6872 84.8893 29.6879 84.8826 29.6901C84.8759 29.6923 84.8698 29.6961 84.8648 29.7011C84.8598 29.7061 84.856 29.7122 84.8538 29.7189C84.8515 29.7256 84.8509 29.7328 84.8519 29.7398C84.8648 30.2547 84.8361 30.7698 84.766 31.2801C84.6956 31.6244 84.5699 31.9551 84.3938 32.2592H84.3938ZM81.7364 32.5742C81.3487 32.9383 80.8368 33.141 80.3049 33.141C79.773 33.141 79.2611 32.9383 78.8734 32.5742C78.5315 32.1193 78.3466 31.5657 78.3466 30.9966C78.3466 30.4276 78.5315 29.874 78.8734 29.4191C79.2593 29.0515 79.7719 28.8465 80.3049 28.8465C80.8379 28.8465 81.3504 29.0515 81.7364 29.4191C82.0783 29.874 82.2632 30.4276 82.2632 30.9966C82.2632 31.5657 82.0783 32.1193 81.7364 32.5742ZM81.2669 30.9938C81.2669 30.0967 80.9462 29.6482 80.3049 29.6482C79.6636 29.6481 79.3429 30.0967 79.3429 30.9938C79.3429 31.8908 79.6636 32.3394 80.3049 32.3394C80.9462 32.3394 81.2669 31.8909 81.2669 30.9938H81.2669ZM74.856 33.0838C74.7699 33.0822 74.6878 33.0473 74.6269 32.9864C74.5661 32.9256 74.5312 32.8435 74.5296 32.7574V29.2588C74.5292 29.1683 74.5618 29.0808 74.6212 29.0125C74.6491 28.9779 74.6838 28.9493 74.7232 28.9286C74.7626 28.9079 74.8059 28.8956 74.8503 28.8923C75.1747 28.8618 75.4878 28.8465 75.7893 28.8465C77.0109 28.8465 77.6217 29.3008 77.6217 30.2093C77.636 30.4164 77.605 30.624 77.5309 30.8179C77.4567 31.0117 77.3411 31.187 77.1922 31.3316C76.837 31.6074 76.3924 31.742 75.9439 31.7095C75.7989 31.7095 75.6634 31.7038 75.5374 31.6924C75.503 31.6924 75.4858 31.7076 75.4858 31.7381V32.7574C75.4843 32.8435 75.4494 32.9256 75.3885 32.9864C75.3276 33.0473 75.2455 33.0822 75.1595 33.0838H74.856ZM75.4858 29.6711V30.9136C75.4855 30.9279 75.4906 30.9419 75.5002 30.9525C75.5098 30.9632 75.5231 30.9697 75.5374 30.9709C75.6399 30.9842 75.7432 30.9919 75.8466 30.9938C76.0742 31.0085 76.2996 30.9415 76.4822 30.8048C76.5586 30.7383 76.619 30.6553 76.6587 30.5621C76.6984 30.4688 76.7163 30.3678 76.7112 30.2666C76.7112 29.8123 76.423 29.5852 75.8466 29.5852C75.741 29.5861 75.6357 29.5956 75.5317 29.6138C75.5182 29.6158 75.5061 29.6229 75.4976 29.6335C75.4891 29.6441 75.4849 29.6575 75.4858 29.6711H75.4858ZM70.3563 33.0838C70.2703 33.0822 70.1882 33.0473 70.1273 32.9864C70.0664 32.9256 70.0315 32.8435 70.03 32.7574V29.2302C70.0315 29.1441 70.0664 29.062 70.1273 29.0011C70.1882 28.9402 70.2703 28.9053 70.3563 28.9038H72.9331C73.0191 28.9053 73.1012 28.9402 73.1621 29.0011C73.223 29.062 73.2579 29.1441 73.2594 29.2302V32.7574C73.2579 32.8435 73.223 32.9256 73.1621 32.9864C73.1012 33.0473 73.0191 33.0822 72.9331 33.0838H72.6067C72.5639 33.084 72.5215 33.0755 72.4821 33.0588C72.4427 33.0421 72.4071 33.0174 72.3776 32.9864C72.318 32.9252 72.2851 32.8429 72.286 32.7574V29.734C72.286 29.7035 72.2688 29.6882 72.2345 29.6882H71.0549C71.0206 29.6882 71.0034 29.7035 71.0034 29.734V32.7574C71.0037 32.8002 70.9952 32.8426 70.9784 32.882C70.9617 32.9214 70.937 32.9569 70.906 32.9864C70.8779 33.0176 70.8434 33.0424 70.8049 33.0592C70.7664 33.076 70.7247 33.0844 70.6827 33.0838H70.3563ZM65.8604 33.0838C65.8176 33.084 65.7752 33.0755 65.7358 33.0588C65.6964 33.0421 65.6609 33.0174 65.6313 32.9864C65.5717 32.9252 65.5388 32.8429 65.5397 32.7574V29.2302C65.5388 29.1447 65.5717 29.0623 65.6313 29.0011C65.6609 28.9701 65.6964 28.9455 65.7358 28.9287C65.7752 28.912 65.8176 28.9035 65.8604 28.9038H66.2841C66.3261 28.9032 66.3678 28.9115 66.4063 28.9283C66.4448 28.9451 66.4793 28.9699 66.5074 29.0011C66.5384 29.0306 66.5631 29.0662 66.5798 29.1056C66.5965 29.145 66.605 29.1874 66.6048 29.2302V32.7574C66.605 32.8002 66.5965 32.8426 66.5798 32.882C66.5631 32.9214 66.5384 32.9569 66.5074 32.9864C66.4793 33.0176 66.4448 33.0424 66.4063 33.0592C66.3678 33.076 66.3261 33.0844 66.2841 33.0838H65.8604ZM61.7055 33.0838C61.6195 33.0822 61.5374 33.0473 61.4765 32.9864C61.4156 32.9256 61.3807 32.8435 61.3792 32.7574V29.2588C61.3787 29.1683 61.4113 29.0808 61.4708 29.0125C61.4987 28.9779 61.5334 28.9493 61.5728 28.9286C61.6122 28.908 61.6554 28.8956 61.6998 28.8923C62.0243 28.8618 62.3373 28.8465 62.6389 28.8465C63.8605 28.8465 64.4712 29.3008 64.4712 30.2093C64.4856 30.4164 64.4546 30.624 64.3804 30.8179C64.3063 31.0117 64.1907 31.187 64.0418 31.3316C63.6866 31.6074 63.242 31.742 62.7935 31.7095C62.6484 31.7095 62.5129 31.7038 62.387 31.6924C62.3526 31.6924 62.3354 31.7076 62.3354 31.7381V32.7574C62.3338 32.8435 62.299 32.9256 62.2381 32.9864C62.1772 33.0473 62.0951 33.0822 62.009 33.0838H61.7055ZM62.3354 29.6711V30.9136C62.335 30.9279 62.3402 30.9419 62.3498 30.9525C62.3593 30.9632 62.3727 30.9697 62.387 30.9709C62.4895 30.9842 62.5927 30.9919 62.6962 30.9938C62.9238 31.0085 63.1492 30.9415 63.3317 30.8048C63.4082 30.7383 63.4686 30.6553 63.5083 30.5621C63.5479 30.4688 63.5659 30.3678 63.5608 30.2666C63.5608 29.8123 63.2726 29.5852 62.6962 29.5852C62.5906 29.5861 62.4852 29.5956 62.3812 29.6138C62.3678 29.6158 62.3556 29.6229 62.3471 29.6335C62.3386 29.6441 62.3345 29.6575 62.3354 29.6711H62.3354ZM57.6587 33.0952C57.6143 33.0919 57.5711 33.0796 57.5317 33.0589C57.4923 33.0382 57.4576 33.0097 57.4297 32.975C57.3702 32.9068 57.3377 32.8192 57.3381 32.7288V29.2302C57.3396 29.1441 57.3745 29.062 57.4354 29.0011C57.4963 28.9402 57.5784 28.9053 57.6645 28.9038H59.8232C59.8652 28.9032 59.9068 28.9115 59.9453 28.9283C59.9839 28.9451 60.0183 28.9699 60.0465 29.0011C60.0775 29.0306 60.1021 29.0662 60.1189 29.1056C60.1356 29.145 60.1441 29.1874 60.1438 29.2302V29.3218C60.1441 29.3646 60.1356 29.407 60.1189 29.4463C60.1021 29.4857 60.0775 29.5213 60.0465 29.5508C60.0175 29.5805 59.9827 29.604 59.9443 29.6197C59.9059 29.6355 59.8647 29.6432 59.8232 29.6424H58.3459C58.3388 29.6414 58.3317 29.642 58.325 29.6443C58.3183 29.6465 58.3122 29.6503 58.3072 29.6553C58.3022 29.6603 58.2984 29.6664 58.2962 29.6731C58.294 29.6798 58.2933 29.6869 58.2943 29.694V30.404C58.2943 30.4383 58.3115 30.4517 58.3459 30.444C58.4806 30.4254 58.6164 30.4159 58.7524 30.4154C59.1739 30.3865 59.5919 30.5083 59.932 30.759C60.0688 30.8788 60.1765 31.0282 60.2469 31.1959C60.3174 31.3636 60.3487 31.5451 60.3385 31.7267C60.3555 31.9256 60.3272 32.1258 60.2558 32.3122C60.1844 32.4986 60.0717 32.6665 59.9262 32.8032C59.6514 33.0284 59.2066 33.141 58.5921 33.141C58.2867 33.141 57.9756 33.1258 57.6587 33.0952H57.6587ZM58.2943 31.1999V32.3165C58.2943 32.3508 58.3077 32.3699 58.3344 32.3737C58.4403 32.3921 58.5476 32.4016 58.655 32.4024C59.1742 32.4024 59.4338 32.1771 59.4338 31.7267C59.4383 31.6408 59.4226 31.5551 59.3877 31.4765C59.3529 31.3979 59.3 31.3286 59.2334 31.2743C59.0649 31.1558 58.8605 31.0992 58.655 31.114C58.5513 31.1144 58.4479 31.124 58.3458 31.1426C58.3316 31.1438 58.3182 31.1503 58.3087 31.161C58.2991 31.1716 58.2939 31.1856 58.2943 31.1999H58.2943ZM55.7972 32.5742C55.4095 32.9383 54.8976 33.141 54.3657 33.141C53.8338 33.141 53.3219 32.9383 52.9342 32.5742C52.5923 32.1193 52.4074 31.5657 52.4074 30.9966C52.4074 30.4276 52.5923 29.874 52.9342 29.4191C53.3202 29.0515 53.8327 28.8465 54.3657 28.8465C54.8987 28.8465 55.4113 29.0515 55.7972 29.4191C56.1391 29.874 56.324 30.4276 56.324 30.9966C56.324 31.5657 56.1391 32.1193 55.7972 32.5742ZM55.3277 30.9938C55.3277 30.0967 55.007 29.6482 54.3657 29.6482C53.7244 29.6481 53.4037 30.0967 53.4037 30.9938C53.4037 31.8908 53.7244 32.3394 54.3657 32.3394C55.007 32.3394 55.3277 31.8909 55.3277 30.9938H55.3277ZM47.9273 33.9999C47.8412 33.9984 47.7591 33.9635 47.6982 33.9026C47.6373 33.8417 47.6025 33.7596 47.6009 33.6735V32.557C47.6004 32.523 47.6068 32.4893 47.6196 32.4578C47.6323 32.4264 47.6513 32.3978 47.6753 32.3738C47.6993 32.3497 47.7279 32.3308 47.7594 32.318C47.7909 32.3052 47.8246 32.2988 47.8586 32.2993C47.8929 32.2993 47.9139 32.2898 47.9216 32.2707C48.1295 31.9663 48.2808 31.6268 48.3682 31.2686C48.4562 30.7467 48.4926 30.2173 48.477 29.6882V29.2302C48.4761 29.1447 48.509 29.0623 48.5686 29.0011C48.5981 28.9701 48.6337 28.9455 48.6731 28.9287C48.7124 28.912 48.7548 28.9035 48.7976 28.9038H50.7903C50.8764 28.9053 50.9585 28.9402 51.0194 29.0011C51.0802 29.062 51.1151 29.1441 51.1167 29.2302V32.2535C51.1158 32.2597 51.1164 32.2661 51.1184 32.272C51.1203 32.278 51.1237 32.2834 51.1281 32.2879C51.1326 32.2923 51.138 32.2956 51.144 32.2976C51.1499 32.2996 51.1563 32.3002 51.1625 32.2993H51.2942C51.3803 32.3009 51.4624 32.3358 51.5232 32.3967C51.5841 32.4575 51.619 32.5396 51.6206 32.6257V33.6735C51.619 33.7596 51.5841 33.8417 51.5233 33.9026C51.4624 33.9635 51.3803 33.9984 51.2942 33.9999H51.048C50.9619 33.9984 50.8798 33.9635 50.8189 33.9026C50.758 33.8417 50.7232 33.7596 50.7216 33.6735V33.1353C50.7216 33.101 50.7063 33.0838 50.6758 33.0838H48.5457C48.5152 33.0838 48.4999 33.1009 48.4999 33.1353V33.6735C48.4983 33.7596 48.4634 33.8417 48.4026 33.9026C48.3417 33.9635 48.2596 33.9984 48.1735 33.9999H47.9273ZM48.9465 32.2592C48.9428 32.2629 48.9403 32.2676 48.9392 32.2727C48.9382 32.2778 48.9388 32.2831 48.9408 32.2878C48.9445 32.2916 48.949 32.2946 48.9539 32.2965C48.9588 32.2985 48.9641 32.2995 48.9694 32.2993H50.1089C50.1432 32.2993 50.1604 32.284 50.1604 32.2535V29.734C50.1604 29.7035 50.1433 29.6882 50.1089 29.6882H49.4561C49.4491 29.6872 49.442 29.6879 49.4353 29.6901C49.4286 29.6923 49.4225 29.6961 49.4175 29.7011C49.4125 29.7061 49.4087 29.7122 49.4065 29.7189C49.4042 29.7256 49.4036 29.7328 49.4046 29.7398C49.4175 30.2547 49.3888 30.7698 49.3187 31.2801C49.2483 31.6244 49.1226 31.9551 48.9465 32.2592H48.9465ZM43.671 33.0838C43.5849 33.0822 43.5028 33.0473 43.442 32.9864C43.3811 32.9256 43.3462 32.8435 43.3446 32.7574V32.3222C43.3462 32.2361 43.3811 32.1541 43.442 32.0932C43.5028 32.0323 43.5849 31.9974 43.671 31.9958H44.1062C44.1922 31.9974 44.2744 32.0323 44.3352 32.0932C44.3961 32.1541 44.431 32.2361 44.4326 32.3222V32.7574C44.431 32.8435 44.3961 32.9256 44.3352 32.9864C44.2744 33.0473 44.1922 33.0822 44.1062 33.0838H43.671ZM39.1141 33.0838C39.028 33.0822 38.9459 33.0473 38.8851 32.9864C38.8242 32.9256 38.7893 32.8435 38.7877 32.7574V29.2302C38.7893 29.1441 38.8242 29.062 38.885 29.0011C38.9459 28.9402 39.028 28.9053 39.1141 28.9038H39.3947C39.4808 28.9053 39.5629 28.9402 39.6237 29.0011C39.6846 29.062 39.7195 29.1441 39.7211 29.2302V31.4633C39.721 31.4641 39.7211 31.4649 39.7214 31.4656C39.7217 31.4663 39.7221 31.467 39.7226 31.4676C39.7231 31.4682 39.7238 31.4686 39.7245 31.4689C39.7252 31.4692 39.726 31.4694 39.7268 31.4694C39.7276 31.4694 39.7284 31.4692 39.7291 31.4689C39.7298 31.4686 39.7304 31.4682 39.731 31.4676C39.7315 31.467 39.7319 31.4663 39.7322 31.4656C39.7325 31.4649 39.7326 31.4641 39.7325 31.4633L40.935 29.1901C40.977 29.1007 41.0446 29.0257 41.1292 28.9748C41.2138 28.9238 41.3116 28.8991 41.4102 28.9038H41.6908C41.7769 28.9053 41.859 28.9402 41.9199 29.0011C41.9807 29.062 42.0156 29.1441 42.0172 29.2302V32.7574C42.0156 32.8435 41.9807 32.9256 41.9199 32.9864C41.859 33.0473 41.7769 33.0822 41.6908 33.0838H41.4102C41.3242 33.0822 41.2421 33.0473 41.1812 32.9864C41.1203 32.9256 41.0854 32.8435 41.0838 32.7574V30.5242C41.0839 30.5235 41.0838 30.5227 41.0835 30.5219C41.0833 30.5212 41.0828 30.5205 41.0823 30.52C41.0818 30.5194 41.0811 30.5189 41.0804 30.5186C41.0797 30.5183 41.0789 30.5181 41.0781 30.5181C41.0773 30.5181 41.0766 30.5183 41.0758 30.5186C41.0751 30.5189 41.0745 30.5194 41.0739 30.52C41.0734 30.5205 41.073 30.5212 41.0727 30.5219C41.0724 30.5227 41.0723 30.5235 41.0724 30.5242L39.8699 32.7975C39.8279 32.8869 39.7603 32.9618 39.6757 33.0128C39.5911 33.0637 39.4933 33.0884 39.3947 33.0838L39.1141 33.0838ZM34.6145 33.0838C34.5284 33.0822 34.4463 33.0473 34.3854 32.9864C34.3246 32.9256 34.2897 32.8435 34.2881 32.7574V29.2302C34.2897 29.1441 34.3245 29.062 34.3854 29.0011C34.4463 28.9402 34.5284 28.9053 34.6145 28.9038H34.9409C34.9829 28.9032 35.0245 28.9115 35.063 28.9283C35.1015 28.9451 35.136 28.9699 35.1642 29.0011C35.1952 29.0306 35.2198 29.0662 35.2365 29.1056C35.2533 29.1449 35.2618 29.1874 35.2615 29.2302V30.4899C35.2605 30.4969 35.2612 30.504 35.2634 30.5107C35.2656 30.5174 35.2694 30.5235 35.2744 30.5285C35.2794 30.5335 35.2855 30.5373 35.2922 30.5395C35.2989 30.5418 35.306 30.5424 35.313 30.5414H36.4926C36.4996 30.5424 36.5068 30.5418 36.5135 30.5395C36.5202 30.5373 36.5263 30.5335 36.5313 30.5285C36.5363 30.5235 36.54 30.5174 36.5423 30.5107C36.5445 30.504 36.5451 30.4969 36.5441 30.4899V29.2302C36.5432 29.1447 36.5762 29.0623 36.6358 29.0011C36.6653 28.9701 36.7008 28.9455 36.7402 28.9287C36.7796 28.912 36.822 28.9035 36.8648 28.9038H37.1912C37.2773 28.9053 37.3594 28.9402 37.4202 29.0011C37.4811 29.062 37.516 29.1441 37.5176 29.2302V32.7574C37.516 32.8435 37.4811 32.9256 37.4202 32.9864C37.3594 33.0473 37.2773 33.0822 37.1912 33.0838H36.8648C36.822 33.084 36.7796 33.0755 36.7402 33.0588C36.7008 33.0421 36.6653 33.0174 36.6358 32.9864C36.5762 32.9252 36.5432 32.8429 36.5441 32.7574V31.3259C36.5441 31.2953 36.527 31.2801 36.4926 31.2801H35.313C35.2787 31.2801 35.2615 31.2954 35.2615 31.3259V32.7574C35.2618 32.8002 35.2533 32.8426 35.2365 32.882C35.2198 32.9214 35.1952 32.9569 35.1642 32.9864C35.136 33.0176 35.1015 33.0424 35.063 33.0592C35.0245 33.076 34.9829 33.0844 34.9409 33.0838H34.6145ZM32.1857 33.0838C32.1429 33.084 32.1005 33.0755 32.0611 33.0588C32.0217 33.0421 31.9862 33.0174 31.9566 32.9864C31.897 32.9252 31.8641 32.8429 31.865 32.7574V29.2302C31.8641 29.1447 31.897 29.0623 31.9566 29.0011C31.9862 28.9701 32.0217 28.9455 32.0611 28.9287C32.1005 28.912 32.1429 28.9035 32.1857 28.9038H32.6094C32.6514 28.9032 32.6931 28.9115 32.7316 28.9283C32.7701 28.9451 32.8046 28.9699 32.8327 29.0011C32.8637 29.0306 32.8884 29.0662 32.9051 29.1056C32.9218 29.145 32.9303 29.1874 32.9301 29.2302V32.7574C32.9303 32.8002 32.9218 32.8426 32.9051 32.882C32.8884 32.9214 32.8637 32.9569 32.8327 32.9864C32.8046 33.0176 32.7701 33.0424 32.7316 33.0592C32.6931 33.076 32.6514 33.0844 32.6094 33.0838H32.1857ZM27.153 33.0838C27.0669 33.0822 26.9848 33.0473 26.9239 32.9864C26.863 32.9256 26.8281 32.8435 26.8266 32.7574V29.2302C26.8281 29.1441 26.863 29.062 26.9239 29.0011C26.9848 28.9402 27.0669 28.9053 27.153 28.9038H27.4736C27.5597 28.9053 27.6418 28.9402 27.7027 29.0011C27.7635 29.062 27.7984 29.1441 27.8 29.2302V32.2535C27.7991 32.2597 27.7997 32.2661 27.8017 32.272C27.8036 32.278 27.807 32.2834 27.8114 32.2878C27.8159 32.2923 27.8213 32.2956 27.8273 32.2976C27.8332 32.2996 27.8396 32.3002 27.8458 32.2993H29.0311C29.0373 32.3002 29.0436 32.2996 29.0496 32.2976C29.0556 32.2956 29.061 32.2923 29.0654 32.2878C29.0699 32.2834 29.0732 32.278 29.0752 32.272C29.0772 32.2661 29.0778 32.2597 29.0769 32.2535V29.2302C29.0785 29.1441 29.1133 29.062 29.1742 29.0011C29.2351 28.9402 29.3172 28.9053 29.4033 28.9038H29.7296C29.7717 28.9032 29.8133 28.9115 29.8518 28.9283C29.8903 28.9451 29.9248 28.9699 29.953 29.0011C29.984 29.0306 30.0086 29.0662 30.0253 29.1056C30.0421 29.145 30.0506 29.1874 30.0503 29.2302V32.2535C30.0503 32.284 30.0675 32.2993 30.1019 32.2993H30.4168C30.4588 32.2987 30.5004 32.3071 30.539 32.3239C30.5775 32.3406 30.6119 32.3655 30.6401 32.3967C30.6711 32.4262 30.6957 32.4617 30.7125 32.5011C30.7292 32.5405 30.7377 32.5829 30.7374 32.6257V33.6735C30.7377 33.7163 30.7292 33.7588 30.7125 33.7981C30.6957 33.8375 30.6711 33.8731 30.6401 33.9026C30.6119 33.9338 30.5775 33.9586 30.5389 33.9754C30.5004 33.9922 30.4588 34.0005 30.4168 33.9999H30.1477C30.0616 33.9984 29.9795 33.9635 29.9186 33.9026C29.8577 33.8417 29.8228 33.7596 29.8213 33.6735V33.1353C29.8213 33.101 29.806 33.0838 29.7755 33.0838H27.153ZM22.657 33.0838C22.6142 33.084 22.5718 33.0755 22.5324 33.0588C22.493 33.0421 22.4574 33.0174 22.4279 32.9864C22.3683 32.9252 22.3354 32.8429 22.3363 32.7574V29.2302C22.3354 29.1447 22.3683 29.0623 22.4279 29.0011C22.4574 28.9701 22.493 28.9455 22.5324 28.9287C22.5718 28.912 22.6142 28.9035 22.657 28.9038H23.0807C23.1227 28.9032 23.1644 28.9115 23.2029 28.9283C23.2414 28.9451 23.2759 28.9699 23.304 29.0011C23.335 29.0306 23.3597 29.0662 23.3764 29.1056C23.3931 29.145 23.4016 29.1874 23.4014 29.2302V32.7574C23.4016 32.8002 23.3931 32.8426 23.3764 32.882C23.3597 32.9214 23.335 32.9569 23.304 32.9864C23.2759 33.0176 23.2414 33.0424 23.2029 33.0592C23.1644 33.076 23.1227 33.0844 23.0807 33.0838H22.657ZM18.5022 33.0838C18.4161 33.0822 18.334 33.0473 18.2731 32.9864C18.2122 32.9256 18.1774 32.8435 18.1758 32.7574V29.2588C18.1754 29.1683 18.2079 29.0808 18.2674 29.0125C18.2953 28.9779 18.33 28.9493 18.3694 28.9286C18.4088 28.908 18.4521 28.8956 18.4964 28.8923C18.8209 28.8618 19.1339 28.8465 19.4355 28.8465C20.6571 28.8465 21.2679 29.3008 21.2679 30.2093C21.2822 30.4164 21.2512 30.624 21.177 30.8179C21.1029 31.0117 20.9873 31.187 20.8384 31.3316C20.4832 31.6074 20.0386 31.742 19.5901 31.7095C19.4451 31.7095 19.3096 31.7038 19.1836 31.6924C19.1492 31.6924 19.132 31.7076 19.132 31.7381V32.7574C19.1305 32.8435 19.0956 32.9256 19.0347 32.9864C18.9738 33.0473 18.8917 33.0822 18.8057 33.0838H18.5022ZM19.132 29.6711V30.9136C19.1316 30.9279 19.1368 30.9419 19.1464 30.9525C19.156 30.9632 19.1693 30.9697 19.1836 30.9709C19.2861 30.9842 19.3894 30.9919 19.4928 30.9938C19.7204 31.0085 19.9458 30.9415 20.1284 30.8048C20.2048 30.7383 20.2652 30.6553 20.3049 30.5621C20.3446 30.4688 20.3625 30.3678 20.3574 30.2666C20.3574 29.8123 20.0692 29.5852 19.4928 29.5852C19.3872 29.5861 19.2819 29.5956 19.1778 29.6138C19.1644 29.6158 19.1522 29.6229 19.1437 29.6335C19.1353 29.6441 19.1311 29.6575 19.132 29.6711H19.132ZM14.4553 33.0952C14.4109 33.0919 14.3677 33.0796 14.3283 33.0589C14.2889 33.0382 14.2542 33.0097 14.2263 32.975C14.1668 32.9068 14.1342 32.8192 14.1347 32.7288V29.2302C14.1362 29.1441 14.1711 29.062 14.232 29.0011C14.2929 28.9402 14.375 28.9053 14.461 28.9038H16.6197C16.6618 28.9032 16.7034 28.9115 16.7419 28.9283C16.7804 28.9451 16.8149 28.9699 16.8431 29.0011C16.8741 29.0306 16.8987 29.0662 16.9154 29.1056C16.9322 29.145 16.9407 29.1874 16.9404 29.2302V29.3218C16.9407 29.3646 16.9322 29.407 16.9154 29.4463C16.8987 29.4857 16.8741 29.5213 16.8431 29.5508C16.8141 29.5805 16.7793 29.604 16.7409 29.6197C16.7025 29.6355 16.6613 29.6432 16.6197 29.6424H15.1424C15.1354 29.6414 15.1283 29.642 15.1216 29.6443C15.1149 29.6465 15.1088 29.6503 15.1038 29.6553C15.0988 29.6603 15.095 29.6664 15.0928 29.6731C15.0905 29.6798 15.0899 29.6869 15.0909 29.694V30.404C15.0909 30.4383 15.1081 30.4517 15.1424 30.444C15.2772 30.4254 15.413 30.4159 15.549 30.4154C15.9705 30.3865 16.3885 30.5083 16.7286 30.759C16.8654 30.8788 16.9731 31.0282 17.0435 31.1959C17.1139 31.3636 17.1453 31.5451 17.1351 31.7267C17.1521 31.9256 17.1238 32.1258 17.0524 32.3122C16.981 32.4986 16.8683 32.6665 16.7228 32.8032C16.448 33.0284 16.0032 33.141 15.3886 33.141C15.0833 33.141 14.7722 33.1258 14.4553 33.0952ZM15.0909 31.1999V32.3165C15.0909 32.3508 15.1043 32.3699 15.131 32.3737C15.2369 32.3921 15.3441 32.4016 15.4516 32.4024C15.9708 32.4024 16.2304 32.1771 16.2304 31.7267C16.2349 31.6408 16.2192 31.5551 16.1843 31.4765C16.1495 31.3979 16.0966 31.3286 16.03 31.2743C15.8615 31.1558 15.6571 31.0992 15.4516 31.114C15.3479 31.1144 15.2445 31.124 15.1424 31.1426C15.1282 31.1438 15.1148 31.1503 15.1053 31.161C15.0957 31.1716 15.0905 31.1856 15.0909 31.1999ZM12.5938 32.5742C12.4096 32.7654 12.1864 32.915 11.9395 33.0128C11.6926 33.1105 11.4276 33.1543 11.1623 33.141C10.8971 33.1543 10.632 33.1106 10.3851 33.0128C10.1382 32.915 9.91507 32.7654 9.7308 32.5742C9.38888 32.1193 9.204 31.5657 9.204 30.9966C9.204 30.4276 9.38888 29.874 9.7308 29.4191C9.91417 29.2263 10.137 29.0753 10.384 28.9765C10.6311 28.8777 10.8966 28.8333 11.1623 28.8465C11.4281 28.8333 11.6935 28.8777 11.9406 28.9765C12.1876 29.0753 12.4105 29.2263 12.5938 29.4191C12.9357 29.874 13.1206 30.4276 13.1206 30.9966C13.1206 31.5657 12.9357 32.1193 12.5938 32.5742ZM12.1243 30.9938C12.1243 30.0967 11.8036 29.6482 11.1623 29.6482C10.521 29.6481 10.2003 30.0967 10.2003 30.9938C10.2003 31.8908 10.521 32.3394 11.1623 32.3394C11.8036 32.3394 12.1243 31.8909 12.1243 30.9938ZM4.72387 33.9999C4.6378 33.9984 4.55569 33.9635 4.49482 33.9026C4.43395 33.8417 4.39906 33.7596 4.39748 33.6735V32.557C4.39702 32.523 4.40337 32.4893 4.41615 32.4578C4.42894 32.4264 4.4479 32.3978 4.47192 32.3738C4.49594 32.3497 4.52453 32.3308 4.556 32.318C4.58747 32.3052 4.62119 32.2988 4.65516 32.2993C4.68952 32.2993 4.71052 32.2898 4.71814 32.2707C4.92613 31.9663 5.07744 31.6268 5.16479 31.2686C5.25276 30.7467 5.28919 30.2173 5.27358 29.6882V29.2302C5.27265 29.1447 5.30558 29.0623 5.36518 29.0011C5.3947 28.9701 5.43024 28.9455 5.46964 28.9287C5.50903 28.912 5.55143 28.9035 5.59424 28.9038H7.58689C7.67296 28.9053 7.75507 28.9402 7.81595 29.0011C7.87682 29.062 7.91171 29.1441 7.91327 29.2302V32.2535C7.91238 32.2597 7.91295 32.2661 7.91494 32.272C7.91693 32.278 7.92028 32.2834 7.92473 32.2879C7.92917 32.2923 7.93459 32.2956 7.94056 32.2976C7.94652 32.2996 7.95287 32.3002 7.9591 32.2993H8.09079C8.17686 32.3009 8.25896 32.3358 8.31983 32.3967C8.3807 32.4575 8.41559 32.5396 8.41718 32.6257V33.6735C8.41561 33.7596 8.38072 33.8417 8.31985 33.9026C8.25897 33.9635 8.17687 33.9984 8.09079 33.9999H7.84454C7.75847 33.9984 7.67636 33.9635 7.61549 33.9026C7.55462 33.8417 7.51973 33.7596 7.51816 33.6735V33.1353C7.51816 33.101 7.50289 33.0838 7.47236 33.0838H5.34227C5.31173 33.0838 5.29646 33.1009 5.29647 33.1353V33.6735C5.2949 33.7596 5.26001 33.8417 5.19914 33.9026C5.13827 33.9635 5.05616 33.9984 4.97009 33.9999H4.72387ZM5.74312 32.2592C5.73939 32.2629 5.73685 32.2675 5.73583 32.2727C5.73481 32.2778 5.73535 32.2831 5.73739 32.2878C5.74112 32.2916 5.74559 32.2946 5.75051 32.2965C5.75543 32.2985 5.76071 32.2995 5.76601 32.2993H6.9055C6.93985 32.2993 6.95702 32.284 6.95703 32.2535V29.734C6.95703 29.7035 6.93985 29.6882 6.9055 29.6882H6.25272C6.24572 29.6872 6.23858 29.6879 6.23188 29.6901C6.22517 29.6923 6.21907 29.6961 6.21407 29.7011C6.20907 29.7061 6.2053 29.7122 6.20307 29.7189C6.20083 29.7256 6.20019 29.7328 6.20119 29.7398C6.2141 30.2547 6.18538 30.7698 6.11529 31.2801C6.04487 31.6244 5.91918 31.9551 5.74311 32.2592H5.74312Z" fill="#2D2D2D"/>
<path fill-rule="evenodd" clip-rule="evenodd" d="M95.3433 18.794C95.1563 18.7941 94.975 18.7293 94.8304 18.6108C94.6857 18.4922 94.5867 18.3271 94.5502 18.1436C94.5136 17.9602 94.5418 17.7698 94.6299 17.6048C94.718 17.4398 94.8606 17.3105 95.0334 17.2389C95.2062 17.1673 95.3985 17.1578 95.5774 17.212C95.7564 17.2663 95.9111 17.3809 96.015 17.5364C96.119 17.6919 96.1658 17.8787 96.1474 18.0648C96.1291 18.2509 96.0468 18.425 95.9146 18.5572C95.7629 18.7085 95.5575 18.7936 95.3433 18.794ZM90.3186 16.0123C90.4507 16.1443 90.6245 16.2263 90.8104 16.2445C90.9962 16.2627 91.1826 16.2159 91.3378 16.1121C91.493 16.0083 91.6075 15.8539 91.6616 15.6752C91.7157 15.4965 91.7062 15.3045 91.6347 15.132C91.5632 14.9595 91.4341 14.8171 91.2694 14.7292C91.1047 14.6412 90.9146 14.613 90.7314 14.6495C90.5483 14.6859 90.3834 14.7848 90.265 14.9291C90.1465 15.0735 90.0818 15.2544 90.0818 15.4412C90.0823 15.6554 90.1674 15.8607 90.3186 16.0123ZM94.7071 4.79705C94.52 4.79717 94.3387 4.73242 94.1941 4.61383C94.0494 4.49524 93.9503 4.33016 93.9137 4.14671C93.8772 3.96326 93.9053 3.77281 93.9934 3.6078C94.0815 3.44279 94.2242 3.31344 94.3969 3.24179C94.5697 3.17015 94.762 3.16064 94.941 3.21489C95.1201 3.26913 95.2747 3.38378 95.3787 3.53929C95.4827 3.69481 95.5295 3.88155 95.5112 4.06771C95.4929 4.25388 95.4106 4.42793 95.2783 4.56021C95.1265 4.7113 94.9213 4.79641 94.7071 4.79705ZM89.6824 7.74147C89.8145 7.87345 89.9883 7.95554 90.1742 7.97374C90.3601 7.99195 90.5465 7.94515 90.7017 7.84132C90.857 7.73749 90.9714 7.58305 91.0256 7.40431C91.0797 7.22557 91.0702 7.03359 90.9987 6.86107C90.9271 6.68855 90.798 6.54617 90.6333 6.45817C90.4685 6.37018 90.2784 6.34202 90.0952 6.37849C89.9121 6.41496 89.7472 6.51381 89.6288 6.6582C89.5103 6.80258 89.4456 6.98357 89.4456 7.17033C89.4461 7.38449 89.5312 7.58979 89.6824 7.74147ZM10.6343 3.39216e-05C10.0004 4.15959e-05 9.38093 0.189448 8.85539 0.543953C8.32984 0.898458 7.9222 1.4019 7.68475 1.98968L0.231569 20.4402C0.0365109 20.9231 -0.0370168 21.4465 0.017442 21.9644C0.0719008 22.4823 0.252681 22.9789 0.543908 23.4107C0.835135 23.8424 1.2279 24.196 1.68773 24.4405C2.14755 24.685 2.66036 24.8129 3.18113 24.8129H103.998C104.632 24.8129 105.251 24.6235 105.777 24.269C106.302 23.9145 106.71 23.411 106.948 22.8233L107.418 21.6595L99.0316 13.2735L98.7855 14.8296C98.7589 14.9982 98.6796 15.154 98.5589 15.2747C98.4383 15.3954 98.2825 15.4748 98.1139 15.5015C97.9454 15.5282 97.7727 15.5009 97.6206 15.4234C97.4686 15.3459 97.345 15.2222 97.2675 15.0701L96.1006 12.7788L93.5619 13.1837C93.3933 13.2106 93.2205 13.1834 93.0684 13.106C92.9162 13.0286 92.7924 12.905 92.7149 12.753C92.6373 12.6009 92.6098 12.4282 92.6365 12.2596C92.6632 12.091 92.7425 11.9352 92.8632 11.8144L94.6834 9.99427L93.5149 7.70076C93.4374 7.54873 93.4101 7.37608 93.4368 7.20755C93.4635 7.03902 93.5428 6.88326 93.6635 6.7626C93.7841 6.64195 93.9399 6.56258 94.1084 6.53588C94.2769 6.50918 94.4496 6.53651 94.6016 6.61397L96.8952 7.78258L98.7151 5.96252C98.8358 5.84182 98.9916 5.76244 99.1602 5.73577C99.3288 5.7091 99.5015 5.73651 99.6536 5.81407C99.8056 5.89162 99.9292 6.01534 100.007 6.16748C100.084 6.31961 100.111 6.49235 100.084 6.66092L99.6797 9.19988L101.97 10.3656C102.122 10.443 102.245 10.5666 102.323 10.7186C102.4 10.8706 102.428 11.0432 102.401 11.2118C102.375 11.3803 102.295 11.5361 102.175 11.6568C102.054 11.7775 101.898 11.8569 101.73 11.8836L100.174 12.1303L108.075 20.0318L113.694 6.12134C111.242 5.70669 107.198 5.48752 100.898 5.93017C101.648 5.79892 102.362 5.67354 103.04 5.55404C109.05 4.49688 112.361 3.91439 114.53 3.98674C114.603 3.71112 114.639 3.4268 114.635 3.14159C112.82 2.78504 108.369 2.95062 99.6252 5.3906C100.334 5.11155 101.008 4.84547 101.648 4.59236C108.07 2.05635 111.229 0.808713 113.385 0.652997C112.831 0.22653 112.15 -0.00321168 111.451 3.39216e-05H10.6343Z" fill="#F37125"/>
<path d="M79.2649 18.4505C79.0354 18.4463 78.8165 18.3532 78.6541 18.1909C78.4918 18.0286 78.3988 17.8096 78.3946 17.5801V8.17416C78.3988 7.94464 78.4918 7.72569 78.6541 7.56337C78.8165 7.40105 79.0354 7.308 79.2649 7.30381H80.1353C80.2473 7.30219 80.3584 7.32451 80.4611 7.36927C80.5638 7.41403 80.6557 7.4802 80.7308 7.56336C80.8135 7.64205 80.8792 7.73684 80.9238 7.84189C80.9684 7.94694 80.9911 8.06001 80.9904 8.17415V11.5334C80.9877 11.5521 80.9894 11.5711 80.9954 11.589C81.0014 11.6069 81.0114 11.6232 81.0247 11.6365C81.0381 11.6498 81.0543 11.6599 81.0722 11.6659C81.0901 11.6718 81.1091 11.6735 81.1278 11.6709H84.2733C84.292 11.6735 84.311 11.6718 84.3289 11.6659C84.3468 11.6599 84.363 11.6499 84.3764 11.6365C84.3897 11.6232 84.3997 11.6069 84.4057 11.589C84.4117 11.5711 84.4134 11.5521 84.4107 11.5334V8.17415C84.4082 7.94626 84.4961 7.72666 84.655 7.56336C84.7337 7.48069 84.8285 7.41501 84.9336 7.37037C85.0386 7.32573 85.1517 7.30308 85.2658 7.30381H86.1362C86.3657 7.30802 86.5846 7.40106 86.747 7.56338C86.9093 7.7257 87.0023 7.94464 87.0065 8.17416V17.5801C87.0023 17.8096 86.9093 18.0286 86.747 18.1909C86.5846 18.3532 86.3657 18.4463 86.1362 18.4505H85.2658C85.1517 18.4512 85.0386 18.4286 84.9336 18.3839C84.8285 18.3393 84.7337 18.2736 84.655 18.1909C84.4961 18.0276 84.4082 17.808 84.4107 17.5801V13.7628C84.4107 13.6813 84.3649 13.6406 84.2733 13.6406H81.1278C81.0362 13.6406 80.9904 13.6813 80.9904 13.7628V17.5801C80.9911 17.6943 80.9684 17.8073 80.9238 17.9124C80.8792 18.0174 80.8135 18.1122 80.7308 18.1909C80.6557 18.2741 80.5638 18.3402 80.4611 18.385C80.3584 18.4298 80.2473 18.4521 80.1353 18.4505L79.2649 18.4505ZM72.7882 18.4505C72.674 18.4512 72.561 18.4285 72.4559 18.3839C72.3509 18.3393 72.2561 18.2736 72.1774 18.1909C72.0184 18.0276 71.9306 17.808 71.9331 17.5801V8.17416C71.9306 7.94627 72.0184 7.72667 72.1774 7.56337C72.2561 7.4807 72.3509 7.41502 72.4559 7.37038C72.561 7.32574 72.674 7.30309 72.7882 7.30382H73.9181C74.0301 7.3022 74.1412 7.32452 74.2439 7.36928C74.3466 7.41404 74.4386 7.48021 74.5136 7.56337C74.5963 7.64206 74.662 7.73685 74.7066 7.8419C74.7513 7.94694 74.7739 8.06002 74.7732 8.17416V17.5801C74.7739 17.6943 74.7513 17.8073 74.7066 17.9124C74.662 18.0174 74.5963 18.1122 74.5136 18.1909C74.4386 18.2741 74.3466 18.3402 74.2439 18.385C74.1412 18.4298 74.0301 18.4521 73.9181 18.4505L72.7882 18.4505ZM59.3675 18.4505C59.138 18.4463 58.9191 18.3532 58.7568 18.1909C58.5944 18.0286 58.5014 17.8096 58.4972 17.5801V8.17416C58.5014 7.94464 58.5944 7.7257 58.7568 7.56338C58.9191 7.40106 59.138 7.30802 59.3675 7.30381H60.2226C60.4521 7.308 60.6711 7.40105 60.8334 7.56337C60.9957 7.72569 61.0888 7.94464 61.093 8.17416V16.2364C61.0906 16.253 61.0921 16.2699 61.0974 16.2858C61.1027 16.3017 61.1117 16.3162 61.1235 16.328C61.1354 16.3399 61.1498 16.3488 61.1657 16.3541C61.1816 16.3594 61.1985 16.3609 61.2151 16.3586H64.3759C64.3925 16.3609 64.4094 16.3594 64.4253 16.3541C64.4412 16.3488 64.4557 16.3399 64.4675 16.328C64.4794 16.3162 64.4883 16.3017 64.4936 16.2858C64.4989 16.2699 64.5004 16.253 64.4981 16.2364V8.17416C64.5023 7.94464 64.5953 7.7257 64.7576 7.56338C64.92 7.40106 65.1389 7.30801 65.3684 7.30381H66.2388C66.3508 7.30219 66.4619 7.32451 66.5646 7.36927C66.6673 7.41403 66.7592 7.4802 66.8343 7.56336C66.917 7.64205 66.9826 7.73684 67.0273 7.84189C67.0719 7.94693 67.0946 8.06001 67.0939 8.17415V16.2364C67.0939 16.3178 67.1397 16.3586 67.2313 16.3586H68.0711C68.1831 16.357 68.2942 16.3793 68.3969 16.424C68.4996 16.4688 68.5916 16.535 68.6666 16.6182C68.7493 16.6969 68.815 16.7916 68.8596 16.8967C68.9043 17.0017 68.9269 17.1148 68.9262 17.2289V20.0232C68.9269 20.1374 68.9043 20.2505 68.8596 20.3555C68.815 20.4605 68.7493 20.5553 68.6666 20.634C68.5916 20.7172 68.4996 20.7834 68.3969 20.8281C68.2942 20.8729 68.1831 20.8952 68.0711 20.8936H67.3534C67.1239 20.8894 66.905 20.7963 66.7427 20.634C66.5804 20.4717 66.4873 20.2528 66.4831 20.0232V18.5879C66.4831 18.4963 66.4424 18.4505 66.3609 18.4505L59.3675 18.4505ZM54.3883 17.0915C53.4517 18.0993 52.1793 18.6032 50.5709 18.6032C48.9625 18.6032 47.6901 18.0993 46.7535 17.0915C45.817 16.0736 45.3488 14.6688 45.3488 12.8772C45.3488 11.0855 45.817 9.68582 46.7535 8.67804C47.6901 7.6601 48.9625 7.15113 50.5709 7.15113C52.1793 7.15113 53.4518 7.6601 54.3883 8.67805C55.3248 9.68586 55.7931 11.0856 55.7931 12.8772C55.7931 14.6688 55.3248 16.0735 54.3883 17.0915ZM53.1362 12.8772C53.1362 10.4849 52.2811 9.28884 50.5709 9.28883C48.8608 9.28883 48.0057 10.4849 48.0056 12.8772C48.0056 15.2693 48.8607 16.4654 50.5709 16.4654C52.2811 16.4655 53.1362 15.2694 53.1362 12.8772ZM36.1892 18.481C36.0709 18.4723 35.9556 18.4393 35.8505 18.3841C35.7455 18.329 35.6529 18.2528 35.5785 18.1604C35.4199 17.9785 35.333 17.7451 35.3342 17.5038V8.2505C35.3295 8.00859 35.4168 7.77393 35.5785 7.59393C35.7364 7.40825 35.9616 7.2929 36.2045 7.27325C36.9807 7.19275 37.7604 7.15199 38.5407 7.15112C41.4928 7.15112 42.9689 8.10291 42.9689 10.0065C42.9826 10.6121 42.7577 11.1989 42.3428 11.6403C41.9059 12.104 41.3245 12.4055 40.6937 12.4954C40.6835 12.4954 40.6785 12.5056 40.6785 12.526C40.6785 12.5361 40.6886 12.5412 40.709 12.5412C41.4328 12.614 42.1082 12.9382 42.6177 13.4574C42.8499 13.6927 43.0329 13.9718 43.1561 14.2785C43.2793 14.5852 43.3402 14.9134 43.3353 15.2439C43.3353 16.3738 42.9587 17.2188 42.2054 17.7786C41.4623 18.3283 40.2916 18.6032 38.6934 18.6032C37.8892 18.6032 37.0545 18.5625 36.1892 18.481ZM37.8842 9.34991V11.5945C37.8842 11.676 37.93 11.7167 38.0216 11.7166H38.388C39.8743 11.7166 40.6174 11.2738 40.6174 10.3882C40.6174 9.54329 39.9964 9.12085 38.7545 9.12088C38.5037 9.11706 38.2532 9.13751 38.0063 9.18192C37.9686 9.18953 37.9351 9.21101 37.9125 9.24212C37.8899 9.27323 37.8798 9.3117 37.8842 9.34992V9.34991ZM37.8842 13.717V16.4044C37.881 16.4447 37.8936 16.4847 37.9192 16.5159C37.9448 16.5472 37.9815 16.5674 38.0216 16.5724C38.2787 16.6167 38.5394 16.6371 38.8003 16.6334C39.5231 16.6334 40.0524 16.5011 40.3883 16.2364C40.5629 16.0805 40.6992 15.8864 40.7865 15.6692C40.8739 15.4521 40.9101 15.2177 40.8922 14.9843C40.8922 14.0478 40.1288 13.5795 38.6018 13.5796H38.0216C38.0029 13.5769 37.9839 13.5786 37.966 13.5846C37.9481 13.5905 37.9318 13.6006 37.9185 13.6139C37.9052 13.6272 37.8951 13.6435 37.8892 13.6614C37.8832 13.6793 37.8815 13.6983 37.8842 13.717V13.717ZM24.2055 18.4505C23.976 18.4463 23.757 18.3532 23.5947 18.1909C23.4324 18.0286 23.3393 17.8096 23.3351 17.5801V8.17416C23.3393 7.94464 23.4324 7.72569 23.5947 7.56337C23.757 7.40105 23.976 7.30801 24.2055 7.30381H24.9537C25.1832 7.308 25.4022 7.40105 25.5645 7.56337C25.7268 7.72569 25.8198 7.94464 25.824 8.17416V14.1292C25.824 14.1312 25.8244 14.1333 25.8252 14.1351C25.8259 14.137 25.827 14.1387 25.8285 14.1401C25.8299 14.1416 25.8316 14.1427 25.8334 14.1435C25.8353 14.1443 25.8373 14.1447 25.8393 14.1447C25.8413 14.1447 25.8433 14.1443 25.8452 14.1435C25.8471 14.1427 25.8488 14.1416 25.8502 14.1401C25.8516 14.1387 25.8527 14.137 25.8535 14.1351C25.8542 14.1333 25.8546 14.1312 25.8546 14.1292L29.0612 8.0673C29.1732 7.82891 29.3534 7.6291 29.579 7.49319C29.8046 7.35728 30.0655 7.29138 30.3285 7.30382H31.0767C31.3063 7.30802 31.5252 7.40106 31.6875 7.56338C31.8498 7.7257 31.9429 7.94465 31.9471 8.17417V17.5801C31.9429 17.8096 31.8498 18.0286 31.6875 18.1909C31.5252 18.3532 31.3063 18.4463 31.0767 18.4505H30.3285C30.099 18.4463 29.8801 18.3532 29.7177 18.1909C29.5554 18.0286 29.4624 17.8096 29.4582 17.5801V11.6251C29.4581 11.621 29.4565 11.6172 29.4536 11.6144C29.4508 11.6116 29.4469 11.61 29.4429 11.61C29.4389 11.61 29.435 11.6116 29.4322 11.6144C29.4293 11.6172 29.4277 11.621 29.4276 11.6251L26.221 17.687C26.1091 17.9254 25.9288 18.1252 25.7032 18.2611C25.4776 18.397 25.2168 18.4629 24.9537 18.4505H24.2055ZM10.701 20.8936C10.4715 20.8894 10.2525 20.7963 10.0902 20.634C9.9279 20.4717 9.83485 20.2528 9.83063 20.0233V17.0457C9.8294 16.9551 9.84633 16.8652 9.88042 16.7813C9.91452 16.6974 9.96508 16.6212 10.0291 16.5571C10.0932 16.493 10.1694 16.4425 10.2533 16.4084C10.3373 16.3743 10.4272 16.3574 10.5177 16.3586C10.6094 16.3586 10.6654 16.3331 10.6857 16.2822C11.2403 15.4705 11.6438 14.5652 11.8767 13.6101C12.0701 12.7448 12.1668 11.34 12.1669 9.3957V8.17416C12.1644 7.94627 12.2522 7.72667 12.4112 7.56337C12.4899 7.4807 12.5846 7.41502 12.6897 7.37038C12.7947 7.32574 12.9078 7.30309 13.0219 7.30382H18.3357C18.5652 7.30802 18.7842 7.40106 18.9465 7.56338C19.1088 7.7257 19.2019 7.94465 19.2061 8.17417V16.2364C19.2037 16.253 19.2052 16.2699 19.2105 16.2858C19.2158 16.3017 19.2247 16.3162 19.2366 16.328C19.2485 16.3399 19.2629 16.3488 19.2788 16.3541C19.2947 16.3594 19.3116 16.3609 19.3282 16.3586H19.6794C19.9089 16.3628 20.1279 16.4558 20.2902 16.6182C20.4525 16.7805 20.5455 16.9994 20.5498 17.2289V20.0232C20.5455 20.2528 20.4525 20.4717 20.2902 20.634C20.1279 20.7963 19.9089 20.8894 19.6794 20.8936H19.0228C18.7933 20.8894 18.5744 20.7963 18.4121 20.634C18.2497 20.4717 18.1567 20.2528 18.1525 20.0232V18.5879C18.1525 18.4963 18.1118 18.4505 18.0303 18.4505H12.3501C12.2687 18.4505 12.2279 18.4963 12.2279 18.5879V20.0232C12.2237 20.2528 12.1307 20.4717 11.9684 20.634C11.806 20.7963 11.5871 20.8894 11.3576 20.8936L10.701 20.8936ZM13.419 16.2517C13.409 16.2614 13.4023 16.2739 13.3996 16.2875C13.3968 16.3011 13.3983 16.3152 13.4037 16.328C13.4136 16.3381 13.4256 16.346 13.4387 16.3512C13.4518 16.3565 13.4659 16.359 13.48 16.3586H16.5186C16.6103 16.3586 16.6561 16.3179 16.6561 16.2364V9.51786C16.6561 9.43644 16.6103 9.39571 16.5186 9.3957H14.7779C14.7593 9.39303 14.7402 9.39475 14.7223 9.40071C14.7044 9.40668 14.6882 9.41672 14.6749 9.43006C14.6615 9.44339 14.6515 9.45965 14.6455 9.47754C14.6395 9.49543 14.6378 9.51446 14.6405 9.53313C14.6405 11.4469 14.5642 12.8161 14.4115 13.6406C14.2237 14.5588 13.8885 15.4406 13.419 16.2517V16.2517Z" fill="white"/>
</svg>
