<?xml version="1.0" encoding="utf-8"?>
<!-- Generator: Adobe Illustrator 24.0.1, SVG Export Plug-In . SVG Version: 6.00 Build 0)  -->
<svg version="1.1" id="Layer_1" xmlns="http://www.w3.org/2000/svg" xmlns:xlink="http://www.w3.org/1999/xlink" x="0px" y="0px"
	 viewBox="0 0 120 120" style="enable-background:new 0 0 120 120;" xml:space="preserve">
<style type="text/css">
	.st0{fill:#0062A2;}
	.st1{fill:#CD202D;}
	.st2{fill-rule:evenodd;clip-rule:evenodd;fill:#FFFFFF;}
	.st3{fill:#FFFFFF;fill-opacity:0;}
	.st4{fill:#FFFFFF;}
	.st5{fill:none;stroke:#FFFFFF;stroke-width:2;stroke-miterlimit:10;}
	.st6{fill:#65AF2A;}
	.st7{fill:#0261A0;}
	.st8{fill:url(#SVGID_1_);}
	.st9{fill:url(#SVGID_2_);}
	.st10{fill:url(#SVGID_3_);}
</style>
<rect x="0" y="0.1" class="st3" width="120" height="119.9"/>
<g>
	<linearGradient id="SVGID_1_" gradientUnits="userSpaceOnUse" x1="38.4226" y1="22.6744" x2="84.3304" y2="22.6744">
		<stop  offset="0" style="stop-color:#D82128"/>
		<stop  offset="4.706110e-02" style="stop-color:#C81D24"/>
		<stop  offset="0.1218" style="stop-color:#B5191E"/>
		<stop  offset="0.1988" style="stop-color:#AA171B"/>
		<stop  offset="0.2809" style="stop-color:#A6161A"/>
		<stop  offset="0.6685" style="stop-color:#EC2024"/>
		<stop  offset="0.8876" style="stop-color:#ED3532"/>
		<stop  offset="1" style="stop-color:#A9251F"/>
	</linearGradient>
	<path class="st8" d="M55.6,45.3c0,0,0.1,0,0.1,0c0,0,0-0.1,0-0.1l15-8.5C83.6,29.4,88.2,13,80.8,0l0,0L41.9,22.1l-0.5,0.3
		C36.5,26.3,35.5,45.3,55.6,45.3z"/>
	<linearGradient id="SVGID_2_" gradientUnits="userSpaceOnUse" x1="88.2889" y1="77.4471" x2="43.3247" y2="99.9292">
		<stop  offset="2.564030e-02" style="stop-color:#921D1B"/>
		<stop  offset="0.7785" style="stop-color:#BD2526"/>
	</linearGradient>
	<path class="st9" d="M36.5,120l42.1-24.3l0.8-0.5c2.4-5.2,1.8-11.9-1.6-16.5c-2.9-4-8.5-7.6-13.5-5.9h0l0,0L46.3,83.2
		C33.4,90.6,29,107.1,36.5,120"/>
	<linearGradient id="SVGID_3_" gradientUnits="userSpaceOnUse" x1="28.8838" y1="36.2653" x2="91.357" y2="81.5319">
		<stop  offset="0" style="stop-color:#A61714"/>
		<stop  offset="0.7834" style="stop-color:#D22027"/>
	</linearGradient>
	<path class="st10" d="M90.2,65.4C87,54,77.2,46.3,65.4,45.8l-9.6-0.4c0,0,0,0-0.1,0c0,0,0,0,0,0c0,0-0.1,0-0.1,0
		c-20.1,0-19.1-19-14.1-23c-10.1,6.3-14.8,18.3-11.8,29.8c3,11.5,13.1,19.6,25,20.1l9.6,0.4c0,0,0,0,0.1,0c0,0,0,0,0,0.1h0
		c5.1-1.8,10.7,1.9,13.5,5.9c3.4,4.7,4,11.3,1.6,16.5C89.2,88.5,93.5,76.8,90.2,65.4z"/>
</g>
</svg>