<svg xmlns="http://www.w3.org/2000/svg" width="500" height="500" fill="none">
<path fill="#F7433D" d="M122.852 117.245V.668c-9.155 1.479-17.782 5.458-24.824 11.62-31.972 28.166-59.225 55.418-85.88 85.803C4.225 107.14 0 118.829 0 130.87v3.944h105.246c9.684 0 17.606-7.887 17.606-17.605v.036Z"/>
<path fill="#F7433D" d="M387.746 0H143.979v117.245c0 21.337-17.359 38.73-38.733 38.73H0v231.779C0 449.757 50.246 500 112.254 500h275.492C449.754 500 500 449.757 500 387.754V112.246C500 50.243 449.754 0 387.746 0Z"/>
<path fill="#fff" d="M140.458 0h-9.402c-1.584 0-3.133.07-4.683.211-1.197.106-2.359.282-3.521.458v116.576c0 9.683-7.887 17.605-17.606 17.605H0v21.125h105.246c21.339 0 38.733-17.358 38.733-38.73V0h-3.521Zm204.19 225.879h-64.285v-64.282c0-16.748-13.607-30.355-30.357-30.355s-30.358 13.607-30.358 30.355v64.282h-64.285c-16.75 0-30.357 13.606-30.357 30.355 0 16.748 13.607 30.355 30.357 30.355h64.285v64.281c0 16.749 13.608 30.355 30.358 30.355s30.357-13.606 30.357-30.355v-64.281h64.285c16.75 0 30.358-13.607 30.358-30.355 0-16.749-13.608-30.355-30.358-30.355Z"/>
</svg>
