<svg width="40" height="40" viewBox="0 0 40 40" fill="none" xmlns="http://www.w3.org/2000/svg">
  <path d="M23.2168 30.2506C23.0299 25.8355 19.2933 22.4077 14.8709 22.5943C10.4484 22.7809 7.0148 26.5112 7.2017 30.9263L7.2113 31.1531C7.3982 35.5682 11.1348 38.996 15.5573 38.8094C19.9797 38.6228 23.4133 34.8925 23.2264 30.4774L23.2168 30.2506Z" fill="#FFFF00"/>
  <path d="M22.9571 30.1148C22.7702 25.6998 19.0335 22.2719 14.6111 22.4585C10.1886 22.6451 6.75503 26.3755 6.94193 30.7905L6.95154 31.0174C7.13844 35.4324 10.8751 38.8603 15.2975 38.6737C19.72 38.4871 23.1536 34.7567 22.9667 30.3417L22.9571 30.1148Z" fill="#FFFE00"/>
  <path d="M22.6973 29.9718C22.5104 25.5567 18.7738 22.1289 14.3513 22.3155C9.92886 22.5021 6.49526 26.2324 6.68217 30.6474L6.69177 30.8743C6.87867 35.2894 10.6153 38.7172 15.0378 38.5306C19.4602 38.344 22.8938 34.6137 22.7069 30.1986L22.6973 29.9718Z" fill="#FFFD00"/>
  <path d="M14.1041 22.1726L14.0974 22.1729C9.67495 22.3595 6.24136 26.0898 6.42826 30.5049L6.43786 30.7317C6.62477 35.1468 10.3614 38.5746 14.7839 38.388L14.7905 38.3878C19.213 38.2012 22.6466 34.4708 22.4597 30.0558L22.4501 29.8289C22.2632 25.4139 18.5266 21.986 14.1041 22.1726Z" fill="#FFFC00"/>
  <path d="M13.8502 22.0232L13.8435 22.0235C9.42105 22.2101 5.98745 25.9404 6.17435 30.3555L6.18396 30.5823C6.37086 34.9974 10.1075 38.4252 14.5299 38.2386L14.5366 38.2383C18.9591 38.0517 22.3927 34.3214 22.2058 29.9064L22.1962 29.6795C22.0093 25.2644 18.2726 21.8366 13.8502 22.0232Z" fill="#FFFB00"/>
  <path d="M13.6166 21.873L13.6033 21.8736C9.18081 22.0602 5.74722 25.7905 5.93412 30.2056L5.94372 30.4324C6.13063 34.8475 9.86725 38.2753 14.2897 38.0887L14.3031 38.0881C18.7255 37.9016 22.1591 34.1712 21.9722 29.7562L21.9626 29.5293C21.7757 25.1143 18.0391 21.6864 13.6166 21.873Z" fill="#FFFA00"/>
  <path d="M13.3764 21.7163L13.363 21.7168C8.94058 21.9034 5.50698 25.6338 5.69389 30.0488L5.70349 30.2757C5.89039 34.6907 9.62702 38.1186 14.0495 37.932L14.0628 37.9314C18.4853 37.7448 21.9189 34.0145 21.732 29.5994L21.7224 29.3726C21.5355 24.9575 17.7989 21.5297 13.3764 21.7163Z" fill="#FFF900"/>
  <path d="M13.1352 21.5527L13.1218 21.5533C8.69937 21.7399 5.26577 25.4702 5.45267 29.8852L5.46228 30.1121C5.64918 34.5272 9.38581 37.955 13.8083 37.7684L13.8216 37.7678C18.2441 37.5813 21.6777 33.8509 21.4908 29.4359L21.4812 29.209C21.2943 24.7939 17.5577 21.3661 13.1352 21.5527Z" fill="#FFF800"/>
  <path d="M12.9077 21.3955L12.901 21.3958C8.47482 21.5825 5.03836 25.316 5.22542 29.7347L5.23446 29.9482C5.42152 34.3669 9.16126 37.7976 13.5874 37.6109L13.5941 37.6106C18.0202 37.4239 21.4567 33.6904 21.2696 29.2717L21.2606 29.0581C21.0736 24.6394 17.3338 21.2087 12.9077 21.3955Z" fill="#FFF700"/>
  <path d="M12.6801 21.2251L12.6734 21.2253C8.24728 21.4121 4.81082 25.1456 4.99788 29.5643L5.00692 29.7778C5.19398 34.1965 8.93372 37.6272 13.3599 37.4405L13.3666 37.4402C17.7927 37.2535 21.2292 33.52 21.0421 29.1013L21.0331 28.8877C20.846 24.469 17.1063 21.0383 12.6801 21.2251Z" fill="#FFF600"/>
  <path d="M12.4526 21.0547L12.4459 21.0549C8.01974 21.2417 4.58328 24.9751 4.77034 29.3939L4.77938 29.6074C4.96644 34.0261 8.70618 37.4568 13.1323 37.2701L13.139 37.2698C17.5652 37.083 21.0016 33.3496 20.8146 28.9309L20.8055 28.7173C20.6185 24.2986 16.8787 20.8679 12.4526 21.0547Z" fill="#FFF500"/>
  <path d="M12.2444 20.8766L12.2311 20.8772C7.8049 21.0639 4.36844 24.7974 4.5555 29.2161L4.56454 29.4297C4.75159 33.8484 8.49134 37.2791 12.9175 37.0923L12.9309 37.0918C17.357 36.905 20.7935 33.1716 20.6064 28.7528L20.5974 28.5393C20.4103 24.1206 16.6706 20.6899 12.2444 20.8766Z" fill="#FFF400"/>
  <path d="M12.0237 20.6989L12.0103 20.6995C7.5842 20.8862 4.14773 24.6197 4.33479 29.0384L4.34383 29.2519C4.53089 33.6707 8.27064 37.1013 12.6968 36.9146L12.7102 36.914C17.1363 36.7273 20.5728 32.9938 20.3857 28.5751L20.3767 28.3616C20.1896 23.9429 16.4499 20.5122 12.0237 20.6989Z" fill="#FFF300"/>
  <path d="M11.8147 20.5207L11.8014 20.5212C7.37521 20.708 3.93875 24.4415 4.12581 28.8602L4.13485 29.0737C4.32191 33.4924 8.06165 36.9231 12.4878 36.7364L12.5012 36.7358C16.9273 36.5491 20.3638 32.8156 20.1767 28.3969L20.1677 28.1834C19.9806 23.7646 16.2409 20.3339 11.8147 20.5207Z" fill="#FFF200"/>
  <path d="M11.6202 20.329L11.6002 20.3298C7.17404 20.5166 3.73758 24.25 3.92464 28.6688L3.93339 28.8756C4.12045 33.2944 7.8602 36.725 12.2863 36.5383L12.3064 36.5375C16.7325 36.3507 20.169 32.6172 19.982 28.1985L19.9732 27.9917C19.7861 23.5729 16.0464 20.1422 11.6202 20.329Z" fill="#FFF100"/>
  <path d="M11.4181 20.1439L11.398 20.1448C6.97189 20.3315 3.53543 24.065 3.72249 28.4837L3.73125 28.6906C3.9183 33.1093 7.65805 36.54 12.0842 36.3532L12.1043 36.3524C16.5304 36.1657 19.9669 32.4322 19.7798 28.0135L19.771 27.8066C19.584 23.3879 15.8442 19.9572 11.4181 20.1439Z" fill="#FFF000"/>
  <path d="M11.2295 19.9518L11.2027 19.9529C6.77658 20.1396 3.34012 23.8731 3.52718 28.2918L3.53593 28.4987C3.72299 32.9174 7.46274 36.3481 11.8889 36.1613L11.9156 36.1602C16.3418 35.9735 19.7782 32.24 19.5912 27.8213L19.5824 27.6144C19.3954 23.1957 15.6556 19.765 11.2295 19.9518Z" fill="#FFEF00"/>
  <path d="M11.041 19.7594L11.0143 19.7605C6.5881 19.9472 3.15164 23.6807 3.3387 28.0994L3.34746 28.3063C3.53451 32.725 7.27426 36.1557 11.7004 35.969L11.7271 35.9678C16.1533 35.7811 19.5898 32.0476 19.4027 27.6289L19.3939 27.422C19.2069 23.0033 15.4671 19.5726 11.041 19.7594Z" fill="#FFEE00"/>
  <path d="M10.8515 19.5538L10.8248 19.5549C6.39865 19.7417 2.96219 23.4751 3.14925 27.8939L3.158 28.1007C3.34506 32.5194 7.08481 35.9501 11.511 35.7634L11.5377 35.7623C15.9638 35.5755 19.4003 31.8421 19.2132 27.4233L19.2045 27.2165C19.0174 22.7978 15.2777 19.3671 10.8515 19.5538Z" fill="#FFED00"/>
  <path d="M10.6758 19.3478L10.6557 19.3486C6.22586 19.5355 2.78653 23.2721 2.97375 27.6945L2.98194 27.888C3.16915 32.3104 6.91202 35.744 11.3419 35.5571L11.3619 35.5562C15.7918 35.3693 19.2311 31.6327 19.0439 27.2103L19.0357 27.0168C18.8485 22.5944 15.1056 19.1609 10.6758 19.3478Z" fill="#FFEC00"/>
  <path d="M10.4941 19.1417L10.4741 19.1425C6.04422 19.3294 2.60489 23.066 2.79211 27.4884L2.8003 27.6819C2.98751 32.1043 6.73038 35.5379 11.1602 35.351L11.1803 35.3502C15.6101 35.1633 19.0494 31.4267 18.8622 27.0043L18.854 26.8108C18.6668 22.3884 14.924 18.9548 10.4941 19.1417Z" fill="#FFEB00"/>
  <path d="M10.3242 18.9352L10.3041 18.936C5.8743 19.1229 2.43497 22.8595 2.62218 27.2819L2.63038 27.4754C2.81759 31.8978 6.56045 35.3314 10.9903 35.1445L11.0103 35.1436C15.4402 34.9567 18.8795 31.2201 18.6923 26.7977L18.6841 26.6042C18.4969 22.1818 14.754 18.7483 10.3242 18.9352Z" fill="#FFEA00"/>
  <path d="M10.1688 18.722L10.142 18.7231C5.71219 18.91 2.27286 22.6466 2.46008 27.069L2.46827 27.2625C2.65548 31.6849 6.39835 35.1185 10.8282 34.9316L10.8549 34.9304C15.2848 34.7435 18.7241 31.007 18.5369 26.5846L18.5287 26.391C18.3415 21.9686 14.5986 18.5351 10.1688 18.722Z" fill="#FFE900"/>
  <path d="M10.0057 18.5086L9.97895 18.5097C5.5491 18.6966 2.10978 22.4332 2.29699 26.8556L2.30518 27.0491C2.4924 31.4715 6.23526 34.9051 10.6651 34.7182L10.6918 34.7171C15.1217 34.5302 18.561 30.7936 18.3738 26.3712L18.3656 26.1777C18.1784 21.7553 14.4355 18.3217 10.0057 18.5086Z" fill="#FFE800"/>
  <path d="M9.8426 18.2884L9.81586 18.2895C5.38602 18.4764 1.94669 22.213 2.1339 26.6354L2.1421 26.8289C2.32931 31.2513 6.07217 34.6849 10.502 34.498L10.5288 34.4969C14.9586 34.31 18.3979 30.5734 18.2107 26.151L18.2025 25.9574C18.0153 21.535 14.2724 18.1015 9.8426 18.2884Z" fill="#FFE700"/>
  <path d="M9.7067 18.0674L9.67328 18.0688C5.24344 18.2557 1.80411 21.9923 1.99133 26.4147L1.99952 26.6082C2.18673 31.0306 5.9296 34.4642 10.3594 34.2773L10.3929 34.2759C14.8227 34.089 18.262 30.3524 18.0748 25.93L18.0666 25.7365C17.8794 21.3141 14.1365 17.8805 9.7067 18.0674Z" fill="#FFE600"/>
  <path d="M9.55631 17.8399L9.52289 17.8413C5.09305 18.0282 1.65372 21.7648 1.84093 26.1872L1.84913 26.3807C2.03634 30.8031 5.7792 34.2366 10.209 34.0497L10.2425 34.0483C14.6723 33.8614 18.1116 30.1248 17.9244 25.7024L17.9162 25.5089C17.729 21.0865 13.9862 17.653 9.55631 17.8399Z" fill="#FFE500"/>
  <path d="M9.42628 17.612L9.38617 17.6137C4.95633 17.8006 1.517 21.5372 1.70422 25.9596L1.71241 26.1531C1.89962 30.5755 5.64249 34.0091 10.0723 33.8222L10.1124 33.8205C14.5423 33.6336 17.9816 29.897 17.7944 25.4746L17.7862 25.2811C17.599 20.8587 13.8561 17.4251 9.42628 17.612Z" fill="#FFE400"/>
  <path d="M9.28956 17.3777L9.24945 17.3794C4.81961 17.5663 1.38028 21.3028 1.5675 25.7252L1.57569 25.9188C1.7629 30.3412 5.50577 33.7747 9.93561 33.5878L9.97571 33.5861C14.4056 33.3992 17.8449 29.6626 17.6577 25.2402L17.6495 25.0467C17.4623 20.6243 13.7194 17.1908 9.28956 17.3777Z" fill="#FFE300"/>
  <path d="M9.15284 17.1428L9.11274 17.1445C4.68289 17.3314 1.24356 21.068 1.43078 25.4904L1.43897 25.6839C1.62619 30.1063 5.36905 33.5399 9.79889 33.353L9.839 33.3513C14.2688 33.1644 17.7082 29.4278 17.521 25.0054L17.5128 24.8119C17.3255 20.3895 13.5827 16.9559 9.15284 17.1428Z" fill="#FFE200"/>
  <path d="M9.02882 16.9079L8.99539 16.9094C4.56186 17.0964 1.11967 20.8361 1.30704 25.2622L1.31466 25.4424C1.50204 29.8685 5.24802 33.3049 9.68155 33.1178L9.71497 33.1164C14.1485 32.9293 17.5907 29.1897 17.4033 24.7636L17.3957 24.5834C17.2083 20.1573 13.4623 16.7209 9.02882 16.9079Z" fill="#FFE100"/>
  <path d="M8.91163 16.6726L8.87821 16.674C4.44467 16.8611 1.00248 20.6008 1.18985 25.0268L1.19748 25.207C1.38485 29.6331 5.13083 33.0695 9.56436 32.8825L9.59778 32.8811C14.0313 32.694 17.4735 28.9543 17.2861 24.5282L17.2785 24.348C17.0911 19.922 13.3452 16.4855 8.91163 16.6726Z" fill="#FFE000"/>
  <path d="M8.80128 16.4241L8.76785 16.4255C4.33432 16.6125 0.892128 20.3522 1.0795 24.7783L1.08713 24.9585C1.2745 29.3846 5.02048 32.821 9.45401 32.6339L9.48743 32.6325C13.921 32.4455 17.3632 28.7058 17.1758 24.2797L17.1682 24.0995C16.9808 19.6734 13.2348 16.237 8.80128 16.4241Z" fill="#FFDF00"/>
  <path d="M8.69077 16.1747L8.65067 16.1764C4.21714 16.3635 0.774941 20.1032 0.962311 24.5293L0.969938 24.7095C1.15731 29.1355 4.90329 32.572 9.33682 32.3849L9.37693 32.3832C13.8105 32.1962 17.2527 28.4565 17.0653 24.0304L17.0577 23.8502C16.8703 19.4241 13.1243 15.9877 8.69077 16.1747Z" fill="#FFDE00"/>
  <path d="M8.59312 15.9321L8.55301 15.9338C4.11948 16.1208 0.677284 19.8605 0.864655 24.2866L0.872282 24.4668C1.05965 28.8929 4.80563 32.3293 9.23917 32.1422L9.27927 32.1405C13.7128 31.9535 17.155 28.2138 16.9676 23.7877L16.96 23.6075C16.7726 19.1814 13.0266 15.745 8.59312 15.9321Z" fill="#FFDD00"/>
  <path d="M8.50214 15.6828L8.45536 15.6847C4.02182 15.8718 0.579628 19.6115 0.766999 24.0376L0.774626 24.2178C0.961996 28.6438 4.70798 32.0803 9.14151 31.8932L9.1883 31.8912C13.6218 31.7042 17.064 27.9645 16.8767 23.5384L16.869 23.3582C16.6817 18.9321 12.9357 15.4957 8.50214 15.6828Z" fill="#FFDC00"/>
  <path d="M8.4123 15.4259L8.36551 15.4279C3.93198 15.615 0.489784 19.3547 0.677155 23.7807L0.684782 23.9609C0.872152 28.387 4.61813 31.8234 9.05167 31.6364L9.09846 31.6344C13.532 31.4473 16.9742 27.7076 16.7868 23.2816L16.7792 23.1014C16.5918 18.6753 12.8458 15.2389 8.4123 15.4259Z" fill="#FFDB00"/>
  <path d="M8.32734 15.1691L8.28055 15.1711C3.84702 15.3581 0.404823 19.0978 0.592194 23.5239L0.599821 23.7041C0.787191 28.1302 4.53317 31.5666 8.96671 31.3795L9.0135 31.3776C13.447 31.1905 16.8892 27.4508 16.7019 23.0247L16.6942 22.8445C16.5069 18.4185 12.7609 14.982 8.32734 15.1691Z" fill="#FFDA00"/>
  <path d="M8.24906 14.9056L8.19559 14.9079C3.76206 15.0949 0.319862 18.8346 0.507233 23.2607L0.51486 23.4409C0.70223 27.867 4.44821 31.3034 8.88175 31.1163L8.93522 31.1141C13.3688 30.927 16.8109 27.1873 16.6236 22.7613L16.616 22.5811C16.4286 18.155 12.6826 14.7186 8.24906 14.9056Z" fill="#FFD900"/>
  <path d="M8.17777 14.6483L8.1243 14.6506C3.69077 14.8376 0.248573 18.5773 0.435944 23.0034L0.443571 23.1836C0.630941 27.6097 4.37692 31.0461 8.81046 30.859L8.86393 30.8568C13.2975 30.6697 16.7397 26.93 16.5523 22.5039L16.5447 22.3238C16.3573 17.8977 12.6113 14.4613 8.17777 14.6483Z" fill="#FFD800"/>
  <path d="M8.10746 14.3846L8.05399 14.3869C3.62046 14.5739 0.178261 18.3136 0.365631 22.7397L0.373258 22.9199C0.560629 27.346 4.30661 30.7824 8.74015 30.5954L8.79362 30.5931C13.2272 30.406 16.6693 26.6663 16.482 22.2403L16.4743 22.0601C16.287 17.634 12.541 14.1976 8.10746 14.3846Z" fill="#FFD700"/>
  <path d="M8.04203 14.12L7.99524 14.122C3.55802 14.3092 0.112958 18.052 0.300484 22.4818L0.307546 22.6486C0.495073 27.0784 4.24417 30.5176 8.6814 30.3304L8.72819 30.3284C13.1654 30.1412 16.6105 26.3984 16.4229 21.9687L16.4159 21.8018C16.2284 17.3721 12.4793 13.9328 8.04203 14.12Z" fill="#FFD600"/>
  <path d="M7.98441 13.849L7.93763 13.851C3.5004 14.0382 0.0553406 17.781 0.242867 22.2108L0.249929 22.3776C0.437456 26.8074 4.18656 30.2466 8.62378 30.0594L8.67057 30.0575C13.1078 29.8702 16.5529 26.1274 16.3653 21.6977L16.3583 21.5308C16.1707 17.1011 12.4216 13.6618 7.98441 13.849Z" fill="#FFD500"/>
  <path d="M7.93852 13.5775L7.89173 13.5795C3.4545 13.7667 0.00944212 17.5095 0.196969 21.9393L0.204031 22.1061C0.391557 26.5359 4.14066 29.9752 8.57788 29.7879L8.62467 29.786C13.0619 29.5988 16.507 25.8559 16.3194 21.4262L16.3124 21.2594C16.1248 16.8296 12.3757 13.3903 7.93852 13.5775Z" fill="#FFD400"/>
  <path d="M7.90028 13.3057L7.84681 13.308C3.40958 13.4952 -0.0354798 17.238 0.152047 21.6678L0.159109 21.8346C0.346635 26.2644 4.09574 29.7037 8.53296 29.5165L8.58643 29.5142C13.0237 29.327 16.4687 25.5842 16.2812 21.1544L16.2741 20.9876C16.0866 16.5578 12.3375 13.1185 7.90028 13.3057Z" fill="#FFD300"/>
  <path d="M7.85536 13.0338L7.80188 13.036C3.36466 13.2232 -0.0804016 16.966 0.107125 21.3958L0.114187 21.5626C0.301713 25.9924 4.05082 29.4317 8.48804 29.2445L8.54151 29.2422C12.9787 29.055 16.4238 25.3122 16.2363 20.8824L16.2292 20.7156C16.0417 16.2858 12.2926 12.8466 7.85536 13.0338Z" fill="#FFD200"/>
  <path d="M7.83079 12.7478L7.77063 12.7504C3.33341 12.9376 -0.111652 16.6804 0.0758748 21.1102L0.0829369 21.277C0.270463 25.7068 4.01957 29.1461 8.45679 28.9588L8.51695 28.9563C12.9542 28.7691 16.3992 25.0263 16.2117 20.5965L16.2046 20.4297C16.0171 15.9999 12.268 12.5606 7.83079 12.7478Z" fill="#FFD100"/>
  <path d="M7.8054 12.469L7.74524 12.4716C3.30802 12.6588 -0.137042 16.4016 0.0504842 20.8314L0.0575463 20.9982C0.245073 25.428 3.99417 28.8672 8.4314 28.68L8.49156 28.6775C12.9288 28.4903 16.3738 24.7475 16.1863 20.3177L16.1793 20.1509C15.9917 15.7211 12.2426 12.2818 7.8054 12.469Z" fill="#FFD000"/>
  <path d="M7.78685 12.1892L7.72669 12.1918C3.28946 12.379 -0.155597 16.1218 0.0319295 20.5516L0.0389916 20.7184C0.226518 25.1482 3.97562 28.5875 8.41284 28.4002L8.473 28.3977C12.9102 28.2105 16.3553 24.4677 16.1678 20.0379L16.1607 19.8711C15.9732 15.4413 12.2241 12.002 7.78685 12.1892Z" fill="#FFCF00"/>
  <path d="M7.77497 11.9028L7.70813 11.9057C3.27091 12.0929 -0.174152 15.8357 0.0133748 20.2654L0.0204369 20.4323C0.207963 24.862 3.95706 28.3013 8.39429 28.1141L8.46113 28.1113C12.8984 27.9241 16.3434 24.1813 16.1559 19.7515L16.1488 19.5847C15.9613 15.1549 12.2122 11.7156 7.77497 11.9028Z" fill="#FFCE00"/>
  <path d="M7.76228 11.6162L7.69544 11.619C3.25821 11.8062 -0.186847 15.5491 0.000679453 19.9788L0.00774159 20.1457C0.195268 24.5754 3.94437 28.0147 8.38159 27.8275L8.44843 27.8247C12.8857 27.6375 16.3307 23.8947 16.1432 19.4649L16.1361 19.2981C15.9486 14.8683 12.1995 11.429 7.76228 11.6162Z" fill="#FFCD00"/>
  <path d="M7.76423 11.3428L7.69739 11.3456C3.26017 11.5328 -0.184894 15.2756 0.00263258 19.7054L0.00969471 19.8722C0.197221 24.302 3.94632 27.7413 8.38355 27.5541L8.45039 27.5512C12.8876 27.364 16.3327 23.6212 16.1451 19.1914L16.1381 19.0246C15.9506 14.5948 12.2015 11.1556 7.76423 11.3428Z" fill="#FFCC00"/>
  <path d="M7.77971 11.0886L7.70618 11.0917C3.26896 11.2789 -0.176105 15.0217 0.0114217 19.4515L0.0184838 19.6183C0.20601 24.0481 3.95511 27.4874 8.39234 27.3002L8.46586 27.297C12.9031 27.1098 16.3481 23.367 16.1606 18.9373L16.1536 18.7704C15.966 14.3407 12.2169 10.9014 7.77971 11.0886Z" fill="#FFCB00"/>
  <path d="M7.78279 10.8413L7.72263 10.8438C3.28171 11.0312 -0.166213 14.7771 0.0214698 19.2106L0.0279669 19.3641C0.215649 23.7975 3.96787 27.2397 8.40879 27.0523L8.46894 27.0498C12.9099 26.8624 16.3578 23.1165 16.1701 18.683L16.1636 18.5295C15.9759 14.0961 12.2237 10.6539 7.78279 10.8413Z" fill="#FFCA00"/>
  <path d="M7.79939 10.5874L7.73923 10.5899C3.29832 10.7773 -0.149611 14.5232 0.0380713 18.9567L0.0445685 19.1102C0.232251 23.5436 3.98447 26.9858 8.42539 26.7984L8.48554 26.7959C12.9265 26.6085 16.3744 22.8626 16.1867 18.4291L16.1802 18.2756C15.9925 13.8422 12.2403 10.4 7.79939 10.5874Z" fill="#FFC900"/>
  <path d="M7.82853 10.3322L7.76169 10.3351C3.32078 10.5224 -0.12715 14.2683 0.0605323 18.7018L0.0670294 18.8553C0.254712 23.2887 4.00693 26.7309 8.44785 26.5435L8.51469 26.5407C12.9556 26.3533 16.4035 22.6074 16.2159 18.1739L16.2094 18.0205C16.0217 13.587 12.2695 10.1449 7.82853 10.3322Z" fill="#FFC800"/>
  <path d="M7.85783 10.0778L7.79099 10.0807C3.35007 10.268 -0.0978533 14.014 0.0898292 18.4474L0.0963263 18.6009C0.284009 23.0344 4.03623 26.4765 8.47714 26.2891L8.54399 26.2863C12.9849 26.0989 16.4328 22.353 16.2451 17.9196L16.2387 17.7661C16.051 13.3326 12.2987 9.89048 7.85783 10.0778Z" fill="#FFC700"/>
  <path d="M7.90162 9.82903L7.8281 9.83213C3.38718 10.0195 -0.060744 13.7654 0.126939 18.1989L0.133436 18.3524C0.321118 22.7858 4.07334 26.228 8.51425 26.0406L8.58778 26.0375C13.0287 25.8501 16.4766 22.1042 16.2889 17.6707L16.2824 17.5173C16.0948 13.0838 12.3425 9.64166 7.90162 9.82903Z" fill="#FFC600"/>
  <path d="M7.93678 9.57365L7.86326 9.57676C3.42234 9.76412 -0.0255877 13.51 0.162095 17.9435L0.168592 18.097C0.356274 22.5304 4.1085 25.9726 8.54941 25.7852L8.62294 25.7821C13.0639 25.5947 16.5118 21.8488 16.3241 17.4154L16.3176 17.2619C16.1299 12.8284 12.3777 9.38629 7.93678 9.57365Z" fill="#FFC500"/>
  <path d="M7.98658 9.32512L7.91306 9.32822C3.47214 9.51559 0.024217 13.2615 0.211899 17.695L0.218397 17.8484C0.406079 22.2819 4.1583 25.7241 8.59922 25.5367L8.67274 25.5336C13.1137 25.3462 16.5616 21.6003 16.3739 17.1668L16.3674 17.0134C16.1797 12.5799 12.4275 9.13775 7.98658 9.32512Z" fill="#FFC400"/>
  <path d="M8.04307 9.07533L7.96287 9.07871C3.52195 9.26608 0.0740217 13.012 0.261704 17.4455L0.268201 17.5989C0.455884 22.0324 4.2081 25.4745 8.64902 25.2872L8.72923 25.2838C13.1701 25.0964 16.6181 21.3505 16.4304 16.917L16.4239 16.7636C16.2362 12.3301 12.484 8.88796 8.04307 9.07533Z" fill="#FFC300"/>
  <path d="M8.09874 8.81947L8.01853 8.82285C3.57761 9.01022 0.129686 12.7561 0.317368 17.1896L0.323865 17.3431C0.511548 21.7765 4.26377 25.2187 8.70468 25.0313L8.78489 25.0279C13.2258 24.8406 16.6737 21.0946 16.4861 16.6612L16.4796 16.5077C16.2919 12.0742 12.5397 8.6321 8.09874 8.81947Z" fill="#FFC200"/>
  <path d="M8.16905 8.57679L8.08884 8.58017C3.64793 8.76754 0.199998 12.5135 0.387681 16.9469L0.394178 17.1004C0.58186 21.5339 4.33408 24.976 8.775 24.7886L8.85521 24.7853C13.2961 24.5979 16.7441 20.852 16.5564 16.4185L16.5499 16.265C16.3622 11.8316 12.61 8.38942 8.16905 8.57679Z" fill="#FFC100"/>
  <path d="M8.23824 8.32651L8.15134 8.33017C3.71043 8.51754 0.262498 12.2635 0.450181 16.6969L0.456678 16.8504C0.64436 21.2839 4.39658 24.726 8.8375 24.5386L8.92439 24.535C13.3653 24.3476 16.8132 20.6017 16.6256 16.1682L16.6191 16.0147C16.4314 11.5813 12.6792 8.13914 8.23824 8.32651Z" fill="#FFC000"/>
  <path d="M8.3087 8.08363L8.23517 8.08673C3.79057 8.27425 0.339773 12.0233 0.527612 16.4604L0.533544 16.6006C0.721382 21.0377 4.47672 24.4827 8.92133 24.2952L8.99486 24.2921C13.4395 24.1046 16.8903 20.3555 16.7024 15.9184L16.6965 15.7783C16.5086 11.3411 12.7533 7.8961 8.3087 8.08363Z" fill="#FFBF00"/>
  <path d="M8.39171 7.83314L8.31818 7.83624C3.87357 8.02376 0.422781 11.7728 0.610619 16.2099L0.616552 16.3501C0.80439 20.7872 4.55973 24.2322 9.00434 24.0447L9.07786 24.0416C13.5225 23.8541 16.9733 20.105 16.7854 15.6679L16.7795 15.5278C16.5917 11.0906 12.8363 7.64562 8.39171 7.83314Z" fill="#FFBE00"/>
  <path d="M8.4814 7.5892L8.40119 7.59259C3.95658 7.78011 0.505789 11.5291 0.693627 15.9663L0.699559 16.1064C0.887398 20.5436 4.64274 23.9886 9.08735 23.801L9.16755 23.7977C13.6122 23.6101 17.063 19.8611 16.8751 15.424L16.8692 15.2838C16.6813 10.8467 12.926 7.40168 8.4814 7.5892Z" fill="#FFBD00"/>
  <path d="M8.57124 7.34506L8.49103 7.34845C4.04643 7.53597 0.595633 11.285 0.783471 15.7222L0.789403 15.8623C0.977242 20.2994 4.73258 23.7444 9.17719 23.5569L9.2574 23.5535C13.702 23.366 17.1528 19.617 16.965 15.1798L16.959 15.0397C16.7712 10.6025 13.0159 7.15754 8.57124 7.34506Z" fill="#FFBC00"/>
  <path d="M8.68144 7.10699L8.59455 7.11065C4.14994 7.29818 0.699148 11.0472 0.886987 15.4844L0.892919 15.6245C1.08076 20.0616 4.8361 23.5066 9.2807 23.3191L9.3676 23.3154C13.8122 23.1279 17.263 19.3789 17.0752 14.9417L17.0692 14.8016C16.8814 10.3645 13.1261 6.91947 8.68144 7.10699Z" fill="#FFBB00"/>
  <path d="M8.77812 6.86236L8.69123 6.86603C4.24662 7.05355 0.795828 10.8026 0.983666 15.2397L0.989599 15.3799C1.17744 19.817 4.93278 23.262 9.37738 23.0745L9.46428 23.0708C13.9089 22.8833 17.3597 19.1343 17.1718 14.6971L17.1659 14.557C16.9781 10.1198 13.2227 6.67484 8.77812 6.86236Z" fill="#FFBA00"/>
  <path d="M8.88847 6.62457L8.80158 6.62823C4.35697 6.81576 0.906179 10.5648 1.09402 15.0019L1.09995 15.1421C1.28779 19.5792 5.04313 23.0242 9.48774 22.8367L9.57463 22.833C14.0192 22.6455 17.47 18.8965 17.2822 14.4593L17.2763 14.3192C17.0884 9.88205 13.3331 6.43704 8.88847 6.62457Z" fill="#FFB900"/>
  <path d="M9.01235 6.39235L8.91877 6.3963C4.47416 6.58382 1.02337 10.3329 1.21121 14.77L1.21714 14.9101C1.40498 19.3473 5.16032 22.7923 9.60492 22.6048L9.6985 22.6008C14.1431 22.4133 17.5939 18.6643 17.4061 14.2271L17.4001 14.087C17.2123 9.64983 13.457 6.20483 9.01235 6.39235Z" fill="#FFB800"/>
  <path d="M9.12953 6.15358L9.03596 6.15753C4.59135 6.34505 1.14055 10.0941 1.32839 14.5312L1.33433 14.6714C1.52216 19.1085 5.2775 22.5535 9.72211 22.366L9.81569 22.362C14.2603 22.1745 17.7111 18.4255 17.5233 13.9883L17.5173 13.8482C17.3295 9.41106 13.5741 5.96606 9.12953 6.15358Z" fill="#FFB700"/>
  <path d="M9.25356 5.92165L9.15998 5.9256C4.71537 6.11312 1.26458 9.86216 1.45242 14.2993L1.45835 14.4394C1.64619 18.8766 5.40153 22.3216 9.84613 22.1341L9.93971 22.1301C14.3843 21.9426 17.8351 18.1936 17.6473 13.7564L17.6413 13.6163C17.4535 9.17913 13.6982 5.73412 9.25356 5.92165Z" fill="#FFB600"/>
  <path d="M9.39696 5.69529L9.2967 5.69952C4.85209 5.88704 1.4013 9.63608 1.58914 14.0732L1.59507 14.2134C1.78291 18.6505 5.53825 22.0955 9.98285 21.908L10.0831 21.9038C14.5277 21.7162 17.9785 17.9672 17.7907 13.53L17.7847 13.3899C17.5969 8.95277 13.8416 5.50777 9.39696 5.69529Z" fill="#FFB500"/>
  <path d="M9.52113 5.46999L9.43424 5.47365C4.98594 5.66133 1.53228 9.41348 1.72028 13.8543L1.72564 13.9811C1.91364 18.4219 5.6721 21.8698 10.1204 21.6821L10.2073 21.6785C14.6556 21.4908 18.1092 17.7386 17.9213 13.2978L17.9159 13.171C17.7279 8.73017 13.9694 5.28231 9.52113 5.46999Z" fill="#FFB400"/>
  <path d="M9.66567 5.25026L9.57877 5.25393C5.13047 5.44161 1.67681 9.19376 1.86481 13.6346L1.87018 13.7614C2.05817 18.2022 5.81663 21.6501 10.2649 21.4624L10.3518 21.4587C14.8001 21.271 18.2538 17.5189 18.0658 13.0781L18.0604 12.9513C17.8724 8.51044 14.114 5.06258 9.66567 5.25026Z" fill="#FFB300"/>
  <path d="M9.81688 5.03025L9.7233 5.0342C5.275 5.22188 1.82134 8.97403 2.00934 13.4149L2.01471 13.5416C2.2027 17.9825 5.96116 21.4303 10.4095 21.2427L10.503 21.2387C14.9513 21.051 18.405 17.2989 18.217 12.8581L18.2116 12.7313C18.0236 8.29044 14.2652 4.84257 9.81688 5.03025Z" fill="#FFB200"/>
  <path d="M9.97509 4.81053L9.88151 4.81447C5.43321 5.00215 1.97955 8.7543 2.16754 13.1951L2.17291 13.3219C2.3609 17.7628 6.11936 21.2106 10.5677 21.0229L10.6612 21.019C15.1095 20.8313 18.5632 17.0792 18.3752 12.6383L18.3698 12.5115C18.1818 8.07071 14.4234 4.62285 9.97509 4.81053Z" fill="#FFB100"/>
  <path d="M10.1331 4.59687L10.0329 4.6011C5.58457 4.78877 2.13092 8.54092 2.31891 12.9818L2.32428 13.1085C2.51227 17.5494 6.27073 20.9972 10.719 20.8096L10.8193 20.8053C15.2676 20.6176 18.7212 16.8655 18.5333 12.4247L18.5279 12.2979C18.3399 7.85705 14.5814 4.40919 10.1331 4.59687Z" fill="#FFB000"/>
  <path d="M10.2913 4.383L10.1911 4.38723C5.74278 4.57491 2.28912 8.32706 2.47711 12.7679L2.48248 12.8947C2.67047 17.3355 6.42893 20.7834 10.8772 20.5957L10.9775 20.5915C15.4258 20.4038 18.8795 16.6516 18.6915 12.2108L18.6861 12.084C18.4981 7.64318 14.7396 4.19532 10.2913 4.383Z" fill="#FFAF00"/>
  <path d="M10.4622 4.17597L10.362 4.1802C5.91368 4.36788 2.46002 8.12003 2.64801 12.5609L2.65338 12.6876C2.84137 17.1285 6.59983 20.5763 11.0481 20.3887L11.1484 20.3844C15.5967 20.1968 19.0504 16.4446 18.8624 12.0038L18.857 11.877C18.669 7.43615 14.9105 3.98829 10.4622 4.17597Z" fill="#FFAE00"/>
  <path d="M10.6408 3.96817L10.5339 3.97268C6.08555 4.16036 2.63189 7.91251 2.81989 12.3533L2.82525 12.4801C3.01325 16.921 6.77171 20.3688 11.22 20.1811L11.327 20.1766C15.7753 19.9889 19.2289 16.2368 19.0409 11.796L19.0355 11.6692C18.8476 7.22835 15.0891 3.78049 10.6408 3.96817Z" fill="#FFAD00"/>
  <path d="M10.8136 3.76748L10.7067 3.77199C6.2584 3.95967 2.80474 7.71182 2.99274 12.1527L2.99811 12.2794C3.1861 16.7203 6.94456 20.1681 11.3929 19.9805L11.4998 19.9759C15.9481 19.7883 19.4018 16.0361 19.2138 11.5953L19.2084 11.4685C19.0204 7.02767 15.2619 3.5798 10.8136 3.76748Z" fill="#FFAC00"/>
  <path d="M11.0051 3.57266L10.8981 3.57717C6.44981 3.76485 2.99615 7.517 3.18414 11.9578L3.18951 12.0846C3.37751 16.5254 7.13596 19.9733 11.5843 19.7856L11.6912 19.7811C16.1395 19.5934 19.5932 15.8413 19.4052 11.4005L19.3998 11.2737C19.2118 6.83284 15.4534 3.38498 11.0051 3.57266Z" fill="#FFAB00"/>
  <path d="M11.1973 3.37755L11.0837 3.38235C6.63536 3.57002 3.1817 7.32217 3.36969 11.763L3.37506 11.8898C3.56305 16.3306 7.32151 19.7785 11.7698 19.5908L11.8834 19.586C16.3317 19.3983 19.7854 15.6462 19.5974 11.2054L19.592 11.0786C19.404 6.63773 15.6456 3.18987 11.1973 3.37755Z" fill="#FFAA00"/>
  <path d="M11.3838 3.18273L11.2702 3.18752C6.82188 3.3752 3.36822 7.12735 3.55621 11.5682L3.56158 11.695C3.74958 16.1358 7.50804 19.5837 11.9563 19.396L12.07 19.3912C16.5183 19.2035 19.9719 15.4514 19.7839 11.0105L19.7786 10.8837C19.5906 6.44291 15.8321 2.99505 11.3838 3.18273Z" fill="#FFA900"/>
  <path d="M11.5763 3.00772L11.4761 3.01195C7.02409 3.19978 3.56757 6.95504 3.75572 11.3996L3.76052 11.513C3.94867 15.9575 7.71025 19.4082 12.1622 19.2204L12.2625 19.2162C16.7145 19.0283 20.171 15.2731 19.9829 10.8286L19.9781 10.7151C19.7899 6.2706 16.0283 2.81988 11.5763 3.00772Z" fill="#FFA800"/>
  <path d="M11.7822 2.81896L11.6753 2.82347C7.22331 3.0113 3.76678 6.76657 3.95493 11.2111L3.95974 11.3245C4.14789 15.769 7.90946 19.2198 12.3615 19.0319L12.4684 19.0274C16.9204 18.8396 20.3769 15.0843 20.1888 10.6398L20.184 10.5264C19.9958 6.08185 16.2342 2.63112 11.7822 2.81896Z" fill="#FFA700"/>
  <path d="M11.9951 2.64318L11.8882 2.64769C7.4362 2.83552 3.97967 6.59079 4.16783 11.0353L4.17263 11.1487C4.36078 15.5933 8.12236 19.044 12.5743 18.8561L12.6813 18.8516C17.1333 18.6638 20.5898 14.9085 20.4017 10.464L20.3969 10.3506C20.2087 5.90607 16.4471 2.45534 11.9951 2.64318Z" fill="#FFA600"/>
  <path d="M12.2157 2.46711L12.1021 2.47191C7.65007 2.65974 4.19354 6.415 4.38169 10.8595L4.38649 10.973C4.57464 15.4175 8.33622 18.8682 12.7882 18.6804L12.9018 18.6756C17.3538 18.4877 20.8104 14.7325 20.6222 10.288L20.6174 10.1745C20.4293 5.73 16.6677 2.27928 12.2157 2.46711Z" fill="#FFA500"/>
  <path d="M12.4296 2.305L12.3159 2.3098C7.86393 2.49763 4.40741 6.2529 4.59556 10.6974L4.60036 10.8109C4.78851 15.2554 8.55009 18.7061 13.0021 18.5183L13.1157 18.5135C17.5677 18.3256 21.0242 14.5704 20.8361 10.1258L20.8313 10.0124C20.6431 5.56789 16.8815 2.11717 12.4296 2.305Z" fill="#FFA400"/>
  <path d="M12.6493 2.14192L12.5357 2.14671C8.08366 2.33455 4.62714 6.08981 4.81529 10.5343L4.82009 10.6478C5.00824 15.0923 8.76982 18.543 13.2218 18.3552L13.3354 18.3504C17.7874 18.1625 21.244 14.4073 21.0558 9.96276L21.051 9.84932C20.8628 5.40481 17.1013 1.95408 12.6493 2.14192Z" fill="#FFA300"/>
  <path d="M12.8835 1.98539L12.7632 1.99046C8.3112 2.1783 4.85467 5.93356 5.04283 10.3781L5.04763 10.4915C5.23578 14.936 8.99736 18.3868 13.4493 18.1989L13.5697 18.1938C18.0217 18.006 21.4782 14.2507 21.29 9.80623L21.2852 9.69279C21.0971 5.24827 17.3355 1.79755 12.8835 1.98539Z" fill="#FFA200"/>
  <path d="M13.1169 1.82865L12.9966 1.83372C8.5446 2.02156 5.08807 5.77682 5.27622 10.2213L5.28103 10.3348C5.46918 14.7793 9.23075 18.23 13.6827 18.0422L13.8031 18.0371C18.2551 17.8493 21.7116 14.094 21.5234 9.64949L21.5186 9.53605C21.3305 5.09154 17.5689 1.64081 13.1169 1.82865Z" fill="#FFA100"/>
  <path d="M13.3513 1.67874L13.231 1.68382C8.77897 1.87166 5.32245 5.62692 5.5106 10.0714L5.5154 10.1849C5.70355 14.6294 9.46513 18.0801 13.9171 17.8923L14.0374 17.8872C18.4894 17.6994 21.946 13.9441 21.7578 9.49959L21.753 9.38615C21.5648 4.94163 17.8033 1.49091 13.3513 1.67874Z" fill="#FFA000"/>
  <path d="M13.6002 1.54126L13.4732 1.54661C9.02116 1.73445 5.56464 5.48971 5.75279 9.93423L5.75759 10.0477C5.94574 14.4922 9.70732 17.9429 14.1593 17.7551L14.2863 17.7497C18.7383 17.5619 22.1948 13.8066 22.0067 9.3621L22.0019 9.24866C21.8137 4.80414 18.0521 1.35342 13.6002 1.54126Z" fill="#FF9F00"/>
  <path d="M13.8414 1.40454L13.7144 1.4099C9.26237 1.59773 5.80585 5.35299 5.994 9.79751L5.9988 9.91095C6.18695 14.3555 9.94853 17.8062 14.4005 17.6184L14.5275 17.613C18.9795 17.4252 22.436 13.6699 22.2479 9.22538L22.2431 9.11194C22.0549 4.66743 18.2934 1.2167 13.8414 1.40454Z" fill="#FF9E00"/>
  <path d="M14.0905 1.27396L13.9769 1.27875C9.52122 1.46674 6.06183 5.22512 6.25014 9.67333L6.25438 9.77342C6.44268 14.2216 10.2074 17.6752 14.6631 17.4872L14.7767 17.4824C19.2324 17.2944 22.6918 13.5361 22.5035 9.08785L22.4992 8.98776C22.3109 4.53955 18.5462 1.08597 14.0905 1.27396Z" fill="#FF9D00"/>
  <path d="M14.3453 1.14965L14.225 1.15473C9.76927 1.34272 6.30988 5.1011 6.49819 9.5493L6.50242 9.6494C6.69073 14.0976 10.4554 17.5512 14.9111 17.3632L15.0314 17.3581C19.4871 17.1701 22.9465 13.4117 22.7582 8.96355L22.754 8.86345C22.5656 4.41525 18.8009 0.961664 14.3453 1.14965Z" fill="#FF9C00"/>
  <path d="M14.6011 1.02514L14.4808 1.03022C10.0251 1.21821 6.56574 4.97659 6.75405 9.42479L6.75828 9.52488C6.94659 13.9731 10.7113 17.4267 15.167 17.2387L15.2873 17.2336C19.743 17.0456 23.2024 13.2872 23.014 8.83903L23.0098 8.73894C22.8215 4.29074 19.0568 0.837152 14.6011 1.02514Z" fill="#FF9B00"/>
  <path d="M14.8764 0.913532L14.7494 0.918891C10.2937 1.10688 6.83429 4.86526 7.0226 9.31346L7.02684 9.41356C7.21514 13.8618 10.9798 17.3153 15.4355 17.1274L15.5625 17.122C20.0182 16.934 23.4776 13.1756 23.2893 8.72742L23.285 8.62733C23.0967 4.17913 19.332 0.725542 14.8764 0.913532Z" fill="#FF9A00"/>
  <path d="M15.1459 0.80904L15.0189 0.814398C10.5632 1.00239 7.10382 4.76077 7.29213 9.20897L7.29637 9.30906C7.48467 13.7573 11.2494 17.2109 15.7051 17.0229L15.8321 17.0175C20.2877 16.8295 23.7471 13.0711 23.5588 8.62293L23.5546 8.52284C23.3663 4.07463 19.6016 0.62105 15.1459 0.80904Z" fill="#FF9900"/>
  <path d="M15.4096 0.697712L15.2826 0.70307C10.8269 0.891061 7.3675 4.64944 7.5558 9.09764L7.56004 9.19774C7.74835 13.6459 11.513 17.0995 15.9687 16.9115L16.0957 16.9062C20.5514 16.7182 24.0108 12.9598 23.8225 8.5116L23.8183 8.41151C23.6299 3.96331 19.8653 0.509722 15.4096 0.697712Z" fill="#FF9800"/>
  <path d="M15.6995 0.605633L15.5658 0.611273C11.1101 0.799264 7.6507 4.55764 7.83901 9.00585L7.84324 9.10594C8.03155 13.5541 11.7962 17.0077 16.2519 16.8197L16.3856 16.8141C20.8413 16.6261 24.3007 12.8677 24.1124 8.41953L24.1081 8.31943C23.9198 3.87123 20.1551 0.417643 15.6995 0.605633Z" fill="#FF9700"/>
  <path d="M15.9827 0.520184L15.849 0.525824C11.3933 0.713815 7.9339 4.47219 8.12221 8.92039L8.12645 9.02049C8.31475 13.4687 12.0794 16.9223 16.5351 16.7343L16.6688 16.7286C21.1245 16.5407 24.5839 12.7823 24.3956 8.33407L24.3913 8.23398C24.203 3.78578 20.4383 0.332194 15.9827 0.520184Z" fill="#FF9600"/>
  <path d="M16.26 0.441571L16.1263 0.447211C11.6706 0.635201 8.21125 4.39358 8.39955 8.84178L8.40379 8.94188C8.5921 13.3901 12.3568 16.8437 16.8125 16.6557L16.9462 16.65C21.4018 16.462 24.8612 12.7037 24.6729 8.25546L24.6687 8.15537C24.4804 3.70717 20.7157 0.25358 16.26 0.441571Z" fill="#FF9500"/>
  <path d="M16.5577 0.355839L16.4173 0.361762C11.9617 0.549752 8.50226 4.30813 8.69057 8.75633L8.69481 8.85643C8.88311 13.3046 12.6478 16.7582 17.1035 16.5702L17.2439 16.5643C21.6995 16.3763 25.1589 12.6179 24.9706 8.16973L24.9664 8.06964C24.7781 3.62143 21.0134 0.167849 16.5577 0.355839Z" fill="#FF9400"/>
  <path d="M16.8487 0.29041L16.7084 0.296332C12.2527 0.484322 8.79328 4.2427 8.98158 8.6909L8.98582 8.791C9.17413 13.2392 12.9388 16.6928 17.3945 16.5048L17.5349 16.4989C21.9906 16.3109 25.4499 12.5525 25.2616 8.1043L25.2574 8.00421C25.0691 3.556 21.3044 0.102419 16.8487 0.29041Z" fill="#FF9300"/>
  <path d="M17.1477 0.231121L17.0207 0.23648C12.5613 0.424626 9.09907 4.18612 9.28753 8.63801L9.2912 8.72475C9.47967 13.1766 13.2475 16.6331 17.7069 16.4449L17.8339 16.4396C22.2932 16.2514 25.7555 12.4899 25.567 8.03806L25.5634 7.95131C25.3749 3.49942 21.6071 0.0429753 17.1477 0.231121Z" fill="#FF9200"/>
  <path d="M17.4522 0.178105L17.3186 0.183745C12.8592 0.371891 9.39692 4.13338 9.58538 8.58527L9.58905 8.67202C9.77752 13.1239 13.5453 16.5804 18.0047 16.3922L18.1384 16.3866C22.5978 16.1984 26.06 12.4369 25.8716 7.98504L25.8679 7.89829C25.6794 3.4464 21.9116 -0.0100411 17.4522 0.178105Z" fill="#FF9100"/>
  <path d="M17.7579 0.131718L17.6242 0.137359C13.1648 0.325505 9.70258 4.087 9.89105 8.53888L9.89472 8.62563C10.0832 13.0775 13.851 16.534 18.3104 16.3458L18.4441 16.3402C22.9034 16.152 26.3657 12.3905 26.1772 7.93865L26.1735 7.85191C25.9851 3.40002 22.2173 -0.0564278 17.7579 0.131718Z" fill="#FF9000"/>
  <path d="M18.0771 0.0918855L17.9367 0.0978078C13.4773 0.285954 10.0151 4.04745 10.2035 8.49933L10.2072 8.58608C10.3957 13.038 14.1635 16.4944 18.6229 16.3063L18.7632 16.3003C23.2226 16.1122 26.6849 12.3507 26.4964 7.89882L26.4927 7.81207C26.3043 3.36019 22.5365 -0.0962606 18.0771 0.0918855Z" fill="#FF8F00"/>
  <path d="M18.3896 0.0586824L18.2492 0.0646046C13.7898 0.252751 10.3276 4.01424 10.516 8.46613L10.5197 8.55288C10.7082 13.0048 14.476 16.4612 18.9354 16.2731L19.0757 16.2671C23.5351 16.079 26.9974 12.3175 26.8089 7.86562L26.8052 7.77887C26.6168 3.32698 22.849 -0.129464 18.3896 0.0586824Z" fill="#FF8E00"/>
  <path d="M18.7099 0.031827L18.5695 0.0377492C14.1102 0.225895 10.6479 3.98739 10.8364 8.43928L10.84 8.52602C11.0285 12.9779 14.7963 16.4344 19.2557 16.2462L19.396 16.2403C23.8554 16.0521 27.3177 12.2907 27.1292 7.83876L27.1255 7.75202C26.9371 3.30013 23.1693 -0.156319 18.7099 0.031827Z" fill="#FF8D00"/>
  <path d="M19.0369 0.0178731L18.8898 0.0240773C14.4305 0.212223 10.9682 3.97371 11.1567 8.4256L11.1603 8.51235C11.3488 12.9642 15.1166 16.4207 19.576 16.2325L19.723 16.2263C24.1824 16.0382 27.6447 12.2767 27.4562 7.82481L27.4525 7.73806C27.2641 3.28617 23.4963 -0.170273 19.0369 0.0178731Z" fill="#FF8C00"/>
  <path d="M19.3572 0.00420115L19.2102 0.0104054C14.7508 0.198552 11.2885 3.96004 11.477 8.41193L11.4807 8.49868C11.6691 12.9506 15.4369 16.407 19.8963 16.2189L20.0434 16.2127C24.5027 16.0245 27.965 12.263 27.7765 7.81114L27.7729 7.72439C27.5844 3.2725 23.8166 -0.183945 19.3572 0.00420115Z" fill="#FF8B00"/>
  <path d="M19.6912 0.00371287L19.5441 0.00991715C15.0848 0.198063 11.6225 3.95955 11.811 8.41144L11.8146 8.49819C12.0031 12.9501 15.7709 16.4065 20.2303 16.2184L20.3773 16.2122C24.8367 16.024 28.299 12.2625 28.1105 7.81065L28.1068 7.7239C27.9184 3.27201 24.1506 -0.184433 19.6912 0.00371287Z" fill="#FF8A00"/>
  <path d="M20.0192 0.0166145L19.8654 0.0231008C15.4061 0.211247 11.9438 3.97274 12.1323 8.42463L12.1359 8.51137C12.3244 12.9633 16.0922 16.4197 20.5516 16.2316L20.7053 16.2251C25.1647 16.0369 28.6269 12.2754 28.4385 7.82355L28.4348 7.7368C28.2464 3.28491 24.4785 -0.171532 20.0192 0.0166145Z" fill="#FF8900"/>
  <path d="M20.3405 0.0297981L20.1867 0.0362843C15.7273 0.224431 12.2651 3.98592 12.4535 8.43781L12.4572 8.52456C12.6457 12.9764 16.4135 16.4329 20.8729 16.2447L21.0266 16.2383C25.486 16.0501 28.9482 12.2886 28.7598 7.83673L28.7561 7.74999C28.5676 3.2981 24.7998 -0.158348 20.3405 0.0297981Z" fill="#FF8800"/>
  <path d="M20.6627 0.0493293L20.509 0.0558156C16.0496 0.243962 12.5873 4.00545 12.7758 8.45734L12.7795 8.54409C12.9679 12.996 16.7358 16.4524 21.1951 16.2643L21.3489 16.2578C25.8082 16.0696 29.2705 12.3082 29.082 7.85627L29.0784 7.76952C28.8899 3.31763 25.1221 -0.138817 20.6627 0.0493293Z" fill="#FF8700"/>
  <path d="M20.9781 0.0830207L20.8311 0.089225C16.368 0.277527 12.9029 4.04213 13.0915 8.49771L13.0946 8.57111C13.2832 13.0267 17.0542 16.486 21.5173 16.2977L21.6643 16.2915C26.1274 16.1032 29.5925 12.3386 29.4039 7.883L29.4008 7.8096C29.2121 3.35403 25.4412 -0.105281 20.9781 0.0830207Z" fill="#FF8600"/>
  <path d="M21.2867 0.123548L21.1397 0.129752C16.6766 0.318054 13.2115 4.08266 13.4001 8.53823L13.4032 8.61163C13.5918 13.0672 17.3628 16.5265 21.8258 16.3382L21.9729 16.332C26.436 16.1437 29.9011 12.3791 29.7125 7.92353L29.7094 7.85013C29.5207 3.39455 25.7498 -0.0647538 21.2867 0.123548Z" fill="#FF8500"/>
  <path d="M21.603 0.170141L21.4493 0.176627C16.9862 0.364929 13.5211 4.12953 13.7097 8.58511L13.7128 8.65851C13.9014 13.1141 17.6723 16.5734 22.1354 16.3851L22.2891 16.3786C26.7522 16.1903 30.2173 12.4257 30.0287 7.97012L30.0256 7.89672C29.837 3.44115 26.0661 -0.0181608 21.603 0.170141Z" fill="#FF8400"/>
  <path d="M21.8989 0.217504L21.7452 0.223991C17.2821 0.412293 13.817 4.1769 14.0056 8.63247L14.0087 8.70587C14.1973 13.1614 17.9682 16.6208 22.4313 16.4325L22.585 16.426C27.0481 16.2377 30.5132 12.4731 30.3246 8.01749L30.3215 7.94408C30.1329 3.48851 26.362 0.0292024 21.8989 0.217504Z" fill="#FF8300"/>
  <path d="M22.1958 0.27854L22.042 0.285026C17.579 0.473328 14.1138 4.23793 14.3025 8.69351L14.3056 8.76691C14.4942 13.2225 18.2651 16.6818 22.7282 16.4935L22.8819 16.487C27.345 16.2987 30.8101 12.5341 30.6215 8.07852L30.6184 8.00512C30.4298 3.54955 26.6588 0.0902377 22.1958 0.27854Z" fill="#FF8200"/>
  <path d="M22.4993 0.346129L22.3389 0.352897C17.8758 0.541199 14.4107 4.3058 14.5993 8.76138L14.6024 8.83478C14.7911 13.2904 18.562 16.7497 23.0251 16.5614L23.1855 16.5546C27.6485 16.3663 31.1137 12.6017 30.9251 8.14611L30.9219 8.07271C30.7333 3.61713 26.9624 0.157827 22.4993 0.346129Z" fill="#FF8100"/>
  <path d="M22.7903 0.420347L22.6299 0.427116C18.1669 0.615418 14.7017 4.38002 14.8904 8.8356L14.8935 8.909C15.0821 13.3646 18.853 16.8239 23.3161 16.6356L23.4765 16.6288C27.9396 16.4405 31.4047 12.6759 31.2161 8.22033L31.213 8.14693C31.0243 3.69135 27.2534 0.232045 22.7903 0.420347Z" fill="#FF8000"/>
  <path d="M23.0814 0.508238L22.9209 0.515006C18.4579 0.703308 14.9927 4.46791 15.1814 8.92349L15.1845 8.99689C15.3731 13.4525 19.144 16.9118 23.6071 16.7235L23.7675 16.7167C28.2306 16.5284 31.6957 12.7638 31.5071 8.30822L31.504 8.23482C31.3154 3.77924 27.5444 0.319936 23.0814 0.508238Z" fill="#FF7F00"/>
  <path d="M23.3654 0.589499L23.1983 0.596549C18.7352 0.784851 15.2701 4.54946 15.4587 9.00503L15.4618 9.07843C15.6504 13.534 19.4214 16.9933 23.8844 16.805L24.0515 16.798C28.5146 16.6097 31.9797 12.8451 31.7911 8.38948L31.788 8.31608C31.5994 3.8605 27.8284 0.401197 23.3654 0.589499Z" fill="#FF7E00"/>
  <path d="M23.6437 0.684714L23.4766 0.691764C19.0135 0.880066 15.5484 4.64467 15.737 9.10024L15.7401 9.17365C15.9288 13.6292 19.6997 17.0885 24.1628 16.9002L24.3299 16.8932C28.7929 16.7049 32.258 12.9403 32.0694 8.4847L32.0663 8.41129C31.8777 3.95572 28.1068 0.496412 23.6437 0.684714Z" fill="#FF7D00"/>
  <path d="M23.9152 0.779929L23.7481 0.786979C19.285 0.975281 15.8199 4.73989 16.0085 9.19546L16.0116 9.26886C16.2002 13.7244 19.9712 17.1837 24.4342 16.9954L24.6013 16.9884C29.0644 16.8001 32.5295 13.0355 32.3409 8.57991L32.3378 8.50651C32.1492 4.05093 28.3783 0.591627 23.9152 0.779929Z" fill="#FF7C00"/>
  <path d="M24.1867 0.888327L24.0263 0.895095C19.5595 1.08355 16.0915 4.85127 16.2803 9.31053L16.2828 9.37059C16.4716 13.8298 20.2457 17.292 24.7124 17.1036L24.8728 17.0968C29.3396 16.9083 32.8076 13.1406 32.6188 8.68135L32.6163 8.6213C32.4275 4.16204 28.6534 0.699869 24.1867 0.888327Z" fill="#FF7B00"/>
  <path d="M24.4523 0.997702L24.2919 1.00447C19.8251 1.19293 16.3571 4.96065 16.5459 9.41991L16.5485 9.47996C16.7372 13.9392 20.5113 17.4014 24.978 17.2129L25.1385 17.2062C29.6052 17.0177 33.0732 13.25 32.8844 8.79073L32.8819 8.73067C32.6931 4.27141 28.9191 0.809244 24.4523 0.997702Z" fill="#FF7A00"/>
  <path d="M24.7246 1.11949L24.5575 1.12654C20.0907 1.315 16.6228 5.08272 16.8115 9.54198L16.8141 9.60203C17.0028 14.0613 20.7769 17.5235 25.2437 17.335L25.4108 17.328C29.8775 17.1395 33.3455 13.3718 33.1567 8.91252L33.1542 8.85246C32.9654 4.3932 29.1914 0.931033 24.7246 1.11949Z" fill="#FF7900"/>
  <path d="M24.9766 1.24254L24.8095 1.24959C20.3427 1.43805 16.8747 5.20576 17.0635 9.66502L17.066 9.72508C17.2548 14.1843 21.0289 17.6465 25.4956 17.458L25.6627 17.451C30.1295 17.2625 33.5975 13.4948 33.4087 9.03556L33.4061 8.97551C33.2174 4.51625 29.4433 1.05408 24.9766 1.24254Z" fill="#FF7800"/>
  <path d="M25.2295 1.37193L25.0624 1.37898C20.5956 1.56744 17.1276 5.33516 17.3164 9.79442L17.319 9.85447C17.5077 14.3137 21.2818 17.7759 25.7485 17.5874L25.9156 17.5804C30.3824 17.3919 33.8504 13.6242 33.6616 9.16496L33.6591 9.1049C33.4703 4.64564 29.6962 1.18347 25.2295 1.37193Z" fill="#FF7700"/>
  <path d="M25.4901 1.50788L25.3163 1.51521C20.8495 1.70367 17.3815 5.47139 17.5703 9.93065L17.5729 9.99071C17.7616 14.45 21.5357 17.9121 26.0024 17.7237L26.1762 17.7163C30.643 17.5279 34.111 13.7602 33.9222 9.30091L33.9197 9.24085C33.7309 4.78159 29.9568 1.31942 25.4901 1.50788Z" fill="#FF7600"/>
  <path d="M25.7293 1.65143L25.5556 1.65877C21.0888 1.84722 17.6208 5.61494 17.8096 10.0742L17.8118 10.1276C18.0006 14.5868 21.7747 18.049 26.2414 17.8606L26.4152 17.8532C30.882 17.6648 34.35 13.897 34.1612 9.43779L34.1589 9.38441C33.9701 4.92515 30.1961 1.46298 25.7293 1.65143Z" fill="#FF7500"/>
  <path d="M25.9696 1.7945L25.7958 1.80183C21.329 1.99029 17.861 5.75801 18.0498 10.2173L18.0521 10.2707C18.2408 14.7299 22.0149 18.1921 26.4817 18.0036L26.6554 17.9963C31.1222 17.8078 34.5902 14.0401 34.4014 9.58085L34.3992 9.52747C34.2104 5.06821 30.4363 1.60604 25.9696 1.7945Z" fill="#FF7400"/>
  <path d="M26.2097 1.94461L26.0292 1.95222C21.5624 2.14068 18.0944 5.9084 18.2832 10.3677L18.2855 10.421C18.4742 14.8803 22.2483 18.3425 26.7151 18.154L26.8955 18.1464C31.3623 17.9579 34.8303 14.1902 34.6415 9.73096L34.6392 9.67758C34.4505 5.21832 30.6764 1.75615 26.2097 1.94461Z" fill="#FF7300"/>
  <path d="M26.2636 2.10896L26.4373 2.10163C30.9023 1.91325 34.6782 5.37711 34.8669 9.8346L34.8692 9.88798C35.0579 14.3455 31.5882 18.115 27.1232 18.3034L26.9494 18.3108C22.4844 18.4991 18.7085 15.0353 18.5198 10.5778L18.5176 10.5244C18.3289 6.0669 21.7986 2.29735 26.2636 2.10896Z" fill="#FF7200"/>
  <path d="M26.6714 2.26562L26.4843 2.27351C22.0175 2.46197 18.5495 6.22969 18.7383 10.6889L18.7406 10.7423C18.9293 15.2016 22.7034 18.6638 27.1701 18.4753L27.3573 18.4674C31.824 18.2789 35.292 14.5112 35.1033 10.052L35.101 9.99859C34.9122 5.53933 31.1382 2.07716 26.6714 2.26562Z" fill="#FF7100"/>
  <path d="M26.8923 2.42947L26.7185 2.43681C22.248 2.62542 18.7772 6.39625 18.9661 10.8592L18.9678 10.8992C19.1567 15.3622 22.9339 18.8272 27.4044 18.6386L27.5781 18.6313C32.0486 18.4426 35.5195 14.6718 35.3305 10.2089L35.3288 10.1688C35.1399 5.70589 31.3627 2.24086 26.8923 2.42947Z" fill="#FF7000"/>
  <path d="M27.1061 2.59402L26.9324 2.60136C22.4619 2.78997 18.991 6.5608 19.18 11.0237L19.1817 11.0638C19.3706 15.5267 23.1478 18.9918 27.6182 18.8031L27.792 18.7958C32.2625 18.6072 35.7333 14.8364 35.5444 10.3734L35.5427 10.3334C35.3538 5.87044 31.5766 2.40541 27.1061 2.59402Z" fill="#FF6F00"/>
  <path d="M27.3277 2.77148L27.1472 2.77909C22.6767 2.9677 19.2059 6.73854 19.3948 11.2015L19.3965 11.2415C19.5854 15.7045 23.3626 19.1695 27.8331 18.9809L28.0135 18.9733C32.484 18.7847 35.9548 15.0138 35.7659 10.5509L35.7642 10.5108C35.5753 6.04789 31.7981 2.58286 27.3277 2.77148Z" fill="#FF6E00"/>
  <path d="M27.5288 2.95019L27.3484 2.9578C22.8779 3.14642 19.4071 6.91725 19.596 11.3802L19.5977 11.4202C19.7866 15.8832 23.5638 19.3482 28.0342 19.1596L28.2147 19.152C32.6852 18.9634 36.156 15.1925 35.9671 10.7296L35.9654 10.6895C35.7765 6.2266 31.9993 2.76157 27.5288 2.95019Z" fill="#FF6D00"/>
  <path d="M27.7368 3.12792L27.5564 3.13554C23.0859 3.32415 19.6151 7.09498 19.804 11.5579L19.8057 11.598C19.9946 16.0609 23.7718 19.5259 28.2423 19.3373L28.4227 19.3297C32.8932 19.1411 36.364 15.3703 36.1751 10.9073L36.1734 10.8673C35.9845 6.40434 32.2073 2.93931 27.7368 3.12792Z" fill="#FF6C00"/>
  <path d="M27.933 3.32637L27.7458 3.33427C23.2754 3.52288 19.8045 7.29371 19.9935 11.7567L19.9952 11.7967C20.1841 16.2596 23.9613 19.7247 28.4317 19.5361L28.6189 19.5282C33.0893 19.3395 36.5602 15.5687 36.3712 11.1058L36.3695 11.0657C36.1806 6.60279 32.4034 3.13776 27.933 3.32637Z" fill="#FF6B00"/>
  <path d="M28.1273 3.51192L27.9402 3.51981C23.4697 3.70843 19.9989 7.47926 20.1878 11.9422L20.1895 11.9822C20.3784 16.4452 24.1556 19.9102 28.626 19.7216L28.8132 19.7137C33.2836 19.5251 36.7545 15.7543 36.5656 11.2913L36.5639 11.2513C36.3749 6.78833 32.5978 3.3233 28.1273 3.51192Z" fill="#FF6A00"/>
  <path d="M28.3168 3.7043L28.1296 3.7122C23.6592 3.90081 20.1883 7.67164 20.3772 12.1346L20.3789 12.1746C20.5679 16.6376 24.345 20.1026 28.8155 19.914L29.0026 19.9061C33.4731 19.7175 36.944 15.9466 36.755 11.4837L36.7533 11.4437C36.5644 6.98072 32.7872 3.51569 28.3168 3.7043Z" fill="#FF6900"/>
  <path d="M28.5051 3.90324L28.3113 3.91141C23.8408 4.10003 20.37 7.87086 20.5589 12.3338L20.5606 12.3738C20.7495 16.8368 24.5267 20.3018 28.9971 20.1132L29.191 20.105C33.6614 19.9164 37.1323 16.1456 36.9433 11.6826L36.9417 11.6426C36.7527 7.17965 32.9755 3.71462 28.5051 3.90324Z" fill="#FF6800"/>
  <path d="M28.6877 4.10246L28.4939 4.11063C24.0234 4.29925 20.5526 8.07008 20.7415 12.533L20.7432 12.5731C20.9321 17.036 24.7093 20.501 29.1797 20.3124L29.3736 20.3042C33.844 20.1156 37.3149 16.3448 37.126 11.8819L37.1243 11.8418C36.9353 7.37887 33.1582 3.91384 28.6877 4.10246Z" fill="#FF6700"/>
  <path d="M28.8633 4.31506L28.6628 4.32352C24.1924 4.51214 20.7215 8.28297 20.9104 12.7459L20.9121 12.786C21.1011 17.2489 24.8782 20.7139 29.3487 20.5253L29.5492 20.5169C34.0197 20.3282 37.4905 16.5574 37.3016 12.0945L37.2999 12.0544C37.111 7.59148 33.3338 4.12645 28.8633 4.31506Z" fill="#FF6600"/>
  <path d="M29.0333 4.52844L28.8327 4.5369C24.3623 4.72552 20.8914 8.49635 21.0804 12.9593L21.0821 12.9993C21.271 17.4623 25.0482 20.9273 29.5186 20.7387L29.7191 20.7302C34.1896 20.5416 37.6604 16.7708 37.4715 12.3078L37.4698 12.2678C37.2809 7.80486 33.5037 4.33983 29.0333 4.52844Z" fill="#FF6500"/>
  <path d="M29.1887 4.73527L29.0015 4.74316C24.5274 4.93193 21.0537 8.70588 21.2428 13.1725L21.2439 13.1992C21.433 17.6658 25.2133 21.1337 29.6874 20.945L29.8746 20.9371C34.3487 20.7483 37.8224 16.9743 37.6333 12.5077L37.6322 12.481C37.4431 8.01439 33.6628 4.5465 29.1887 4.73527Z" fill="#FF6400"/>
  <path d="M29.3448 4.9552L29.151 4.96338C24.6768 5.15215 21.2031 8.9261 21.3922 13.3927L21.3933 13.4194C21.5824 17.886 25.3627 21.3539 29.8368 21.1652L30.0307 21.157C34.5048 20.9682 37.9785 17.1943 37.7894 12.7276L37.7883 12.701C37.5992 8.23432 33.8189 4.76643 29.3448 4.9552Z" fill="#FF6300"/>
  <path d="M29.501 5.16907L29.3072 5.17725C24.8331 5.36602 21.3593 9.13996 21.5484 13.6066L21.5496 13.6333C21.7386 18.0999 25.5189 21.5678 29.9931 21.379L30.1869 21.3709C34.6611 21.1821 38.1348 17.4081 37.9457 12.9415L37.9446 12.9148C37.7555 8.44819 33.9752 4.9803 29.501 5.16907Z" fill="#FF6200"/>
  <path d="M29.6505 5.38977L29.4566 5.39795C24.9825 5.58672 21.5088 9.36066 21.6978 13.8273L21.699 13.854C21.8881 18.3206 25.6684 21.7885 30.1425 21.5997L30.3363 21.5916C34.8105 21.4028 38.2842 17.6288 38.0951 13.1622L38.094 13.1355C37.9049 8.66889 34.1246 5.201 29.6505 5.38977Z" fill="#FF6100"/>
  <path d="M29.7939 5.61703L29.5933 5.62549C25.1192 5.81426 21.6455 9.5882 21.8346 14.0548L21.8357 14.0815C22.0248 18.5482 25.8051 22.016 30.2792 21.8273L30.4797 21.8188C34.9539 21.63 38.4276 17.8561 38.2385 13.3895L38.2374 13.3628C38.0483 8.89615 34.268 5.42826 29.7939 5.61703Z" fill="#FF6000"/>
  <path d="M29.9306 5.84506L29.7301 5.85352C25.2559 6.04228 21.7822 9.81623 21.9713 14.2829L21.9724 14.3096C22.1615 18.7762 25.9418 22.2441 30.4159 22.0553L30.6164 22.0468C35.0906 21.8581 38.5643 18.0841 38.3752 13.6175L38.3741 13.5908C38.185 9.12418 34.4047 5.65629 29.9306 5.84506Z" fill="#FF5F00"/>
  <path d="M30.0605 6.06625L29.8599 6.07471C25.3858 6.26348 21.9121 10.0374 22.1012 14.5041L22.1023 14.5307C22.2914 18.9974 26.0717 22.4653 30.5458 22.2765L30.7463 22.268C35.2205 22.0793 38.6942 18.3053 38.5051 13.8387L38.504 13.812C38.3149 9.34537 34.5346 5.87748 30.0605 6.06625Z" fill="#FF5E00"/>
  <path d="M30.197 6.30083L29.9898 6.30957C25.5157 6.49834 22.042 10.2723 22.231 14.7389L22.2322 14.7656C22.4213 19.2322 26.2016 22.7001 30.6757 22.5114L30.8829 22.5026C35.357 22.3138 38.8308 18.5399 38.6417 14.0733L38.6405 14.0466C38.4515 9.57995 34.6712 6.11206 30.197 6.30083Z" fill="#FF5D00"/>
  <path d="M30.3142 6.53618L30.107 6.54492C25.6329 6.73369 22.1591 10.5076 22.3482 14.9743L22.3494 15.001C22.5384 19.4676 26.3187 22.9355 30.7929 22.7467L31.0001 22.738C35.4742 22.5492 38.9479 18.7753 38.7589 14.3086L38.7577 14.2819C38.5686 9.8153 34.7884 6.34741 30.3142 6.53618Z" fill="#FF5C00"/>
  <path d="M30.4371 6.77125L30.2232 6.78027C25.7491 6.96904 22.2754 10.743 22.4644 15.2096L22.4656 15.2363C22.6547 19.7029 26.4349 23.1708 30.9091 22.9821L31.123 22.973C35.5971 22.7843 39.0708 19.0103 38.8818 14.5437L38.8806 14.517C38.6915 10.0504 34.9112 6.58248 30.4371 6.77125Z" fill="#FF5B00"/>
  <path d="M30.5406 7.00709L30.3267 7.01611C25.8526 7.20488 22.3789 10.9788 22.568 15.4455L22.5691 15.4722C22.7582 19.9388 26.5385 23.4067 31.0126 23.2179L31.2265 23.2089C35.7006 23.0201 39.1744 19.2462 38.9853 14.7795L38.9841 14.7528C38.7951 10.2862 35.0148 6.81832 30.5406 7.00709Z" fill="#FF5A00"/>
  <path d="M30.6384 7.24321L30.4379 7.25167C25.9601 7.4406 22.4835 11.2177 22.6727 15.688L22.6733 15.7013C22.8625 20.1716 26.6459 23.6424 31.1238 23.4535L31.3243 23.445C35.8021 23.2561 39.2787 19.479 39.0895 15.0087L39.0889 14.9954C38.8997 10.525 35.1163 7.05429 30.6384 7.24321Z" fill="#FF5900"/>
  <path d="M30.5278 7.49435L30.735 7.4856C35.2066 7.29694 38.9962 10.7669 39.1854 15.2377L39.1863 15.2578C39.3753 19.7219 35.8995 23.5051 31.4211 23.6941L31.2139 23.7028C26.7422 23.8915 22.9527 20.4215 22.7634 15.9507L22.7626 15.9306C22.5736 11.4665 26.0494 7.68329 30.5278 7.49435Z" fill="#FF5800"/>
  <path d="M30.8385 7.72193L30.6313 7.73068C26.1534 7.9196 22.6768 11.6967 22.8661 16.167L22.8667 16.1803C23.0559 20.6506 26.8393 24.1214 31.3171 23.9325L31.5243 23.9237C36.0022 23.7348 39.4788 19.9577 39.2895 15.4874L39.289 15.4741C39.0997 11.0038 35.3163 7.53301 30.8385 7.72193Z" fill="#FF5700"/>
  <path d="M30.9166 7.97193L30.7094 7.98068C26.2316 8.1696 22.755 11.9467 22.9442 16.417L22.9448 16.4303C23.134 20.9006 26.9174 24.3714 31.3953 24.1825L31.6025 24.1737C36.0803 23.9848 39.5569 20.2077 39.3677 15.7374L39.3671 15.7241C39.1778 11.2538 35.3944 7.78301 30.9166 7.97193Z" fill="#FF5600"/>
  <path d="M31.0063 8.2153L30.7924 8.22433C26.3146 8.41325 22.838 12.1903 23.0272 16.6606L23.0278 16.674C23.217 21.1443 27.0004 24.615 31.4783 24.4261L31.6922 24.4171C36.17 24.2282 39.6466 20.4511 39.4573 15.9808L39.4568 15.9674C39.2675 11.4971 35.4841 8.02638 31.0063 8.2153Z" fill="#FF5500"/>
  <path d="M31.0834 8.45847L30.8696 8.46749C26.3917 8.65642 22.9151 12.4335 23.1044 16.9038L23.1049 16.9171C23.2942 21.3875 27.0776 24.8582 31.5554 24.6693L31.7693 24.6603C36.2471 24.4713 39.7237 20.6943 39.5345 16.224L39.5339 16.2106C39.3447 11.7403 35.5613 8.26954 31.0834 8.45847Z" fill="#FF5400"/>
  <path d="M31.1547 8.70944L30.9408 8.71847C26.463 8.90739 22.9864 12.6845 23.1757 17.1548L23.1762 17.1681C23.3655 21.6384 27.1489 25.1092 31.6267 24.9203L31.8406 24.9112C36.3184 24.7223 39.795 20.9452 39.6058 16.4749L39.6052 16.4616C39.416 11.9913 35.6326 8.52052 31.1547 8.70944Z" fill="#FF5300"/>
  <path d="M31.2181 8.95379L30.9975 8.9631C26.5196 9.15202 23.0431 12.9291 23.2323 17.3994L23.2329 17.4127C23.4221 21.8831 27.2055 25.3538 31.6834 25.1649L31.9039 25.1556C36.3818 24.9667 39.8583 21.1896 39.6691 16.7193L39.6685 16.7059C39.4793 12.2356 35.6959 8.76487 31.2181 8.95379Z" fill="#FF5200"/>
  <path d="M31.2825 9.19793L31.0619 9.20724C26.5841 9.39616 23.1075 13.1732 23.2968 17.6435L23.2973 17.6569C23.4866 22.1272 27.27 25.598 31.7478 25.409L31.9684 25.3997C36.4462 25.2108 39.9228 21.4337 39.7336 16.9634L39.733 16.9501C39.5438 12.4798 35.7603 9.00901 31.2825 9.19793Z" fill="#FF5100"/>
  <path d="M31.3331 9.44911L31.1059 9.4587C26.628 9.64763 23.1515 13.4247 23.3407 17.895L23.3413 17.9083C23.5305 22.3787 27.3139 25.8494 31.7917 25.6605L32.019 25.6509C36.4968 25.462 39.9734 21.6849 39.7842 17.2146L39.7836 17.2013C39.5944 12.7309 35.811 9.26019 31.3331 9.44911Z" fill="#FF5000"/>
  <path d="M31.3839 9.70058L31.1567 9.71017C26.6788 9.89909 23.2022 13.6762 23.3915 18.1465L23.392 18.1598C23.5813 22.6301 27.3647 26.1009 31.8425 25.912L32.0698 25.9024C36.5476 25.7134 40.0242 21.9364 39.835 17.4661L39.8344 17.4527C39.6452 12.9824 35.8617 9.51165 31.3839 9.70058Z" fill="#FF4F00"/>
  <path d="M31.4143 9.94647L31.2005 9.95549C26.7189 10.1446 23.2395 13.9247 23.4289 18.3987C23.6183 22.8727 27.4048 26.3464 31.8863 26.1573L32.1002 26.1483C36.5817 25.9592 40.0612 22.179 39.8718 17.705C39.6824 13.231 35.8959 9.75739 31.4143 9.94647Z" fill="#FF4E00"/>
  <path d="M31.4513 10.1981L31.2307 10.2074C26.7492 10.3965 23.2697 14.1767 23.4591 18.6507C23.6485 23.1247 27.4351 26.5983 31.9166 26.4092L32.1372 26.3999C36.6187 26.2108 40.0982 22.4307 39.9088 17.9567C39.7194 13.4827 35.9328 10.0091 31.4513 10.1981Z" fill="#FF4D00"/>
  <path d="M31.4826 10.4506L31.262 10.4599C26.7805 10.649 23.301 14.4291 23.4904 18.9031C23.6798 23.3771 27.4663 26.8508 31.9479 26.6617L32.1684 26.6524C36.6499 26.4633 40.1294 22.6831 39.94 18.2091C39.7506 13.7351 35.9641 10.2615 31.4826 10.4506Z" fill="#FF4C00"/>
  <path d="M31.4992 10.6967L31.2786 10.706C26.7971 10.8951 23.3176 14.6752 23.507 19.1492C23.6964 23.6232 27.4829 27.0968 31.9644 26.9078L32.185 26.8985C36.6665 26.7094 40.146 22.9292 39.9566 18.4552C39.7672 13.9812 35.9807 10.5076 31.4992 10.6967Z" fill="#FF4B00"/>
  <path d="M31.5234 10.9493L31.2962 10.9589C26.8146 11.148 23.3352 14.9282 23.5246 19.4022C23.714 23.8762 27.5005 27.3498 31.982 27.1607L32.2093 27.1511C36.6908 26.962 40.1703 23.1819 39.9809 18.7079C39.7915 14.2339 36.0049 10.7602 31.5234 10.9493Z" fill="#FF4A00"/>
  <path d="M31.5273 11.1959L31.3001 11.2055C26.8185 11.3946 23.3391 15.1747 23.5285 19.6487C23.7179 24.1227 27.5044 27.5964 31.9859 27.4073L32.2132 27.3977C36.6947 27.2086 40.1742 23.4284 39.9848 18.9544C39.7954 14.4804 36.0088 11.0068 31.5273 11.1959Z" fill="#FF4900"/>
  <path d="M31.5312 11.443L31.304 11.4526C26.8224 11.6416 23.343 15.4218 23.5324 19.8958C23.7218 24.3698 27.5083 27.8434 31.9898 27.6544L32.2171 27.6448C36.6986 27.4557 40.1781 23.6755 39.9887 19.2015C39.7993 14.7275 36.0128 11.2539 31.5312 11.443Z" fill="#FF4800"/>
  <path d="M31.5361 11.5626L31.3089 11.5722C26.8273 11.7613 23.3479 15.5414 23.5373 20.0154C23.7267 24.4894 27.5132 27.9631 31.9947 27.774L32.222 27.7644C36.7035 27.5753 40.183 23.7951 39.9936 19.3211C39.8042 14.8471 36.0176 11.3735 31.5361 11.5626Z" fill="#FF4701"/>
  <path d="M31.5273 11.6832L31.3001 11.6928C26.8185 11.8819 23.3391 15.6621 23.5285 20.1361C23.7179 24.6101 27.5044 28.0837 31.9859 27.8946L32.2132 27.885C36.6947 27.6959 40.1742 23.9157 39.9848 19.4417C39.7954 14.9677 36.0088 11.4941 31.5273 11.6832Z" fill="#FF4702"/>
  <path d="M31.5263 11.7965L31.2991 11.8061C26.8176 11.9952 23.3381 15.7753 23.5275 20.2493C23.7169 24.7233 27.5034 28.1969 31.985 28.0079L32.2122 27.9983C36.6937 27.8092 40.1732 24.029 39.9838 19.555C39.7944 15.081 36.0079 11.6074 31.5263 11.7965Z" fill="#FF4603"/>
  <path d="M31.5244 11.9171L31.2971 11.9267C26.8156 12.1158 23.3362 15.8959 23.5256 20.3699C23.715 24.8439 27.5015 28.3176 31.983 28.1285L32.2103 28.1189C36.6918 27.9298 40.1712 24.1496 39.9818 19.6756C39.7924 15.2016 36.0059 11.728 31.5244 11.9171Z" fill="#FF4604"/>
  <path d="M31.5224 12.0304L31.2952 12.04C26.8137 12.229 23.3342 16.0092 23.5236 20.4832C23.713 24.9572 27.4995 28.4308 31.9811 28.2418L32.2083 28.2322C36.6898 28.0431 40.1693 24.2629 39.9799 19.7889C39.7905 15.3149 36.004 11.8413 31.5224 12.0304Z" fill="#FF4505"/>
  <path d="M31.5136 12.151L31.2864 12.1606C26.8049 12.3496 23.3254 16.1298 23.5148 20.6038C23.7042 25.0778 27.4907 28.5514 31.9723 28.3624L32.1995 28.3528C36.681 28.1637 40.1605 24.3835 39.9711 19.9095C39.7817 15.4355 35.9952 11.9619 31.5136 12.151Z" fill="#FF4406"/>
  <path d="M31.5049 12.2648L31.2776 12.2743C26.7961 12.4634 23.3166 16.2436 23.506 20.7176C23.6954 25.1916 27.482 28.6652 31.9635 28.4761L32.1907 28.4665C36.6723 28.2775 40.1517 24.4973 39.9623 20.0233C39.7729 15.5493 35.9864 12.0757 31.5049 12.2648Z" fill="#FF4407"/>
  <path d="M31.5039 12.3785L31.2766 12.3881C26.7951 12.5772 23.3156 16.3574 23.505 20.8314C23.6944 25.3054 27.481 28.779 31.9625 28.5899L32.1898 28.5803C36.6713 28.3912 40.1507 24.6111 39.9613 20.1371C39.7719 15.6631 35.9854 12.1894 31.5039 12.3785Z" fill="#FF4308"/>
  <path d="M31.4883 12.4991L31.261 12.5087C26.7795 12.6978 23.3 16.478 23.4894 20.952C23.6788 25.426 27.4654 28.8996 31.9469 28.7105L32.1741 28.7009C36.6557 28.5118 40.1351 24.7317 39.9457 20.2577C39.7563 15.7837 35.9698 12.31 31.4883 12.4991Z" fill="#FF4309"/>
  <path d="M31.4795 12.6129L31.2522 12.6225C26.7707 12.8116 23.2912 16.5917 23.4806 21.0657C23.67 25.5397 27.4566 29.0134 31.9381 28.8243L32.1653 28.8147C36.6469 28.6256 40.1263 24.8454 39.9369 20.3714C39.7475 15.8974 35.961 12.4238 31.4795 12.6129Z" fill="#FF420A"/>
  <path d="M31.4648 12.7267L31.2376 12.7363C26.756 12.9253 23.2766 16.7055 23.466 21.1795C23.6554 25.6535 27.4419 29.1271 31.9234 28.938L32.1507 28.9285C36.6322 28.7394 40.1117 24.9592 39.9223 20.4852C39.7329 16.0112 35.9463 12.5376 31.4648 12.7267Z" fill="#FF420B"/>
  <path d="M31.456 12.8409L31.2288 12.8505C26.7472 13.0396 23.2678 16.8198 23.4572 21.2938C23.6466 25.7678 27.4331 29.2414 31.9146 29.0523L32.1419 29.0427C36.6234 28.8536 40.1029 25.0735 39.9135 20.5995C39.7241 16.1255 35.9376 12.6518 31.456 12.8409Z" fill="#FF410C"/>
  <path d="M31.4404 12.9547L31.2131 12.9643C26.7316 13.1534 23.2522 16.9335 23.4416 21.4075C23.631 25.8815 27.4175 29.3551 31.899 29.1661L32.1263 29.1565C36.6078 28.9674 40.0873 25.1872 39.8979 20.7132C39.7085 16.2392 35.9219 12.7656 31.4404 12.9547Z" fill="#FF400D"/>
  <path d="M31.4258 13.0689L31.1985 13.0785C26.717 13.2676 23.2375 17.0478 23.4269 21.5218C23.6163 25.9958 27.4029 29.4694 31.8844 29.2803L32.1116 29.2707C36.5932 29.0817 40.0726 25.3015 39.8832 20.8275C39.6938 16.3535 35.9073 12.8799 31.4258 13.0689Z" fill="#FF400E"/>
  <path d="M31.4101 13.1827L31.1829 13.1923C26.7014 13.3814 23.2219 17.1616 23.4113 21.6356C23.6007 26.1096 27.3872 29.5832 31.8687 29.3941L32.096 29.3845C36.5775 29.1954 40.057 25.4153 39.8676 20.9413C39.6782 16.4673 35.8917 12.9936 31.4101 13.1827Z" fill="#FF3F0F"/>
  <path d="M31.4013 13.2965L31.1741 13.3061C26.6926 13.4952 23.2131 17.2753 23.4025 21.7493C23.5919 26.2233 27.3784 29.6969 31.86 29.5079L32.0872 29.4983C36.5687 29.3092 40.0482 25.529 39.8588 21.055C39.6694 16.581 35.8829 13.1074 31.4013 13.2965Z" fill="#FF3F10"/>
  <path d="M31.3799 13.4112L31.1526 13.4208C26.6711 13.6099 23.1916 17.3901 23.381 21.8641C23.5704 26.3381 27.357 29.8117 31.8385 29.6226L32.0657 29.613C36.5473 29.4239 40.0267 25.6438 39.8373 21.1698C39.6479 16.6958 35.8614 13.2222 31.3799 13.4112Z" fill="#FF3E11"/>
  <path d="M31.3574 13.5187L31.1301 13.5282C26.6486 13.7173 23.1692 17.4975 23.3586 21.9715C23.548 26.4455 27.3345 29.9191 31.816 29.73L32.0433 29.7204C36.5248 29.5314 40.0042 25.7512 39.8149 21.2772C39.6255 16.8032 35.8389 13.3296 31.3574 13.5187Z" fill="#FF3D12"/>
  <path d="M31.3428 13.6261L31.1155 13.6357C26.634 13.8247 23.1545 17.6049 23.3439 22.0789C23.5333 26.5529 27.3198 30.0265 31.8014 29.8375L32.0286 29.8279C36.5101 29.6388 39.9896 25.8586 39.8002 21.3846C39.6108 16.9106 35.8243 13.437 31.3428 13.6261Z" fill="#FF3D13"/>
  <path d="M31.3203 13.734L31.093 13.7436C26.6115 13.9327 23.1321 17.7128 23.3215 22.1868C23.5109 26.6608 27.2974 30.1344 31.7789 29.9454L32.0062 29.9358C36.4877 29.7467 39.9671 25.9665 39.7777 21.4925C39.5883 17.0185 35.8018 13.5449 31.3203 13.734Z" fill="#FF3C14"/>
  <path d="M31.2978 13.8482L31.0706 13.8578C26.589 14.0469 23.1096 17.8271 23.299 22.3011C23.4884 26.7751 27.2749 30.2487 31.7564 30.0596L31.9837 30.05C36.4652 29.861 39.9447 26.0808 39.7553 21.6068C39.5659 17.1328 35.7794 13.6592 31.2978 13.8482Z" fill="#FF3C15"/>
  <path d="M31.2832 13.9557L31.0559 13.9653C26.5744 14.1543 23.0949 17.9345 23.2843 22.4085C23.4737 26.8825 27.2603 30.3561 31.7418 30.167L31.9691 30.1575C36.4506 29.9684 39.93 26.1882 39.7406 21.7142C39.5512 17.2402 35.7647 13.7666 31.2832 13.9557Z" fill="#FF3B16"/>
  <path d="M31.2539 14.0704L31.0266 14.08C26.5451 14.2691 23.0656 18.0493 23.255 22.5233C23.4444 26.9973 27.231 30.4709 31.7125 30.2818L31.9398 30.2722C36.4213 30.0831 39.9007 26.3029 39.7113 21.8289C39.5219 17.3549 35.7354 13.8813 31.2539 14.0704Z" fill="#FF3B17"/>
  <path d="M31.2314 14.1778L31.0042 14.1874C26.5226 14.3765 23.0432 18.1567 23.2326 22.6307C23.422 27.1047 27.2085 30.5783 31.69 30.3892L31.9173 30.3796C36.3988 30.1905 39.8783 26.4104 39.6889 21.9364C39.4995 17.4624 35.7129 13.9888 31.2314 14.1778Z" fill="#FF3A18"/>
  <path d="M31.2031 14.2857L30.9758 14.2953C26.4943 14.4844 23.0149 18.2646 23.2043 22.7386C23.3937 27.2126 27.1802 30.6862 31.6617 30.4971L31.889 30.4875C36.3705 30.2985 39.85 26.5183 39.6606 22.0443C39.4712 17.5703 35.6846 14.0967 31.2031 14.2857Z" fill="#FF3919"/>
  <path d="M31.1806 14.3937L30.9534 14.4032C26.4719 14.5923 22.9924 18.3725 23.1818 22.8465C23.3712 27.3205 27.1577 30.7941 31.6393 30.605L31.8665 30.5954C36.348 30.4064 39.8275 26.6262 39.6381 22.1522C39.4487 17.6782 35.6622 14.2046 31.1806 14.3937Z" fill="#FF391A"/>
  <path d="M31.1523 14.5016L30.9251 14.5112C26.4435 14.7002 22.9641 18.4804 23.1535 22.9544C23.3429 27.4284 27.1294 30.902 31.6109 30.7129L31.8382 30.7034C36.3197 30.5143 39.7992 26.7341 39.6098 22.2601C39.4204 17.7861 35.6338 14.3125 31.1523 14.5016Z" fill="#FF381B"/>
  <path d="M31.123 14.6095L30.8958 14.6191C26.4142 14.8081 22.9348 18.5883 23.1242 23.0623C23.3136 27.5363 27.1001 31.0099 31.5816 30.8209L31.8089 30.8113C36.2904 30.6222 39.7699 26.842 39.5805 22.368C39.3911 17.894 35.6045 14.4204 31.123 14.6095Z" fill="#FF381C"/>
  <path d="M31.1015 14.7174L30.8743 14.727C26.3928 14.9161 22.9133 18.6962 23.1027 23.1702C23.2921 27.6442 27.0786 31.1178 31.5602 30.9288L31.7874 30.9192C36.2689 30.7301 39.7484 26.9499 39.559 22.4759C39.3696 18.0019 35.5831 14.5283 31.1015 14.7174Z" fill="#FF371D"/>
  <path d="M31.0654 14.8258L30.8381 14.8354C26.3566 15.0245 22.8772 18.8046 23.0666 23.2786C23.256 27.7526 27.0425 31.2262 31.524 31.0372L31.7513 31.0276C36.2328 30.8385 39.7123 27.0583 39.5229 22.5843C39.3335 18.1103 35.5469 14.6367 31.0654 14.8258Z" fill="#FF361E"/>
  <path d="M31.0361 14.9269L30.8089 14.9364C26.3273 15.1255 22.8479 18.9057 23.0373 23.3797C23.2267 27.8537 27.0132 31.3273 31.4947 31.1382L31.722 31.1286C36.2035 30.9396 39.683 27.1594 39.4936 22.6854C39.3042 18.2114 35.5176 14.7378 31.0361 14.9269Z" fill="#FF361F"/>
  <path d="M31.0068 15.0284L30.7796 15.038C26.298 15.2271 22.8186 19.0073 23.008 23.4813C23.1974 27.9553 26.9839 31.4289 31.4654 31.2398L31.6927 31.2302C36.1742 31.0411 39.6537 27.261 39.4643 22.787C39.2749 18.313 35.4883 14.8393 31.0068 15.0284Z" fill="#FF3520"/>
  <path d="M30.9717 15.1363L30.7444 15.1459C26.2629 15.335 22.7834 19.1152 22.9728 23.5892C23.1622 28.0632 26.9487 31.5368 31.4303 31.3477L31.6575 31.3381C36.1391 31.149 39.6185 27.3689 39.4291 22.8949C39.2397 18.4209 35.4532 14.9473 30.9717 15.1363Z" fill="#FF3521"/>
  <path d="M30.9355 15.2379L30.7083 15.2475C26.2267 15.4366 22.7473 19.2167 22.9367 23.6907C23.1261 28.1647 26.9126 31.6384 31.3941 31.4493L31.6214 31.4397C36.1029 31.2506 39.5824 27.4704 39.393 22.9964C39.2036 18.5224 35.417 15.0488 30.9355 15.2379Z" fill="#FF3422"/>
  <path d="M30.9072 15.3463L30.6799 15.3559C26.1984 15.545 22.719 19.3251 22.9084 23.7991C23.0978 28.2731 26.8843 31.7468 31.3658 31.5577L31.5931 31.5481C36.0746 31.359 39.5541 27.5788 39.3647 23.1048C39.1753 18.6308 35.3887 15.1572 30.9072 15.3463Z" fill="#FF3423"/>
  <path d="M30.8642 15.4547L30.637 15.4643C26.1555 15.6534 22.676 19.4335 22.8654 23.9075C23.0548 28.3815 26.8413 31.8552 31.3229 31.6661L31.5501 31.6565C36.0316 31.4674 39.5111 27.6872 39.3217 23.2132C39.1323 18.7392 35.3458 15.2656 30.8642 15.4547Z" fill="#FF3324"/>
  <path d="M30.8291 15.5494L30.6018 15.559C26.1203 15.7481 22.6408 19.5283 22.8302 24.0023C23.0196 28.4763 26.8062 31.9499 31.2877 31.7608L31.515 31.7512C35.9965 31.5621 39.4759 27.782 39.2865 23.308C39.0971 18.8339 35.3106 15.3603 30.8291 15.5494Z" fill="#FF3225"/>
  <path d="M30.7929 15.651L30.5657 15.6606C26.0842 15.8496 22.6047 19.6298 22.7941 24.1038C22.9835 28.5778 26.77 32.0514 31.2516 31.8624L31.4788 31.8528C35.9603 31.6637 39.4398 27.8835 39.2504 23.4095C39.061 18.9355 35.2745 15.4619 30.7929 15.651Z" fill="#FF3226"/>
  <path d="M30.7568 15.7594L30.5296 15.769C26.048 15.958 22.5686 19.7382 22.758 24.2122C22.9474 28.6862 26.7339 32.1598 31.2154 31.9708L31.4427 31.9612C35.9242 31.7721 39.4037 27.9919 39.2143 23.5179C39.0249 19.0439 35.2383 15.5703 30.7568 15.7594Z" fill="#FF3127"/>
  <path d="M30.7148 15.8609L30.4876 15.8705C26.006 16.0596 22.5266 19.8398 22.716 24.3138C22.9054 28.7878 26.6919 32.2614 31.1734 32.0723L31.4007 32.0627C35.8822 31.8737 39.3617 28.0935 39.1723 23.6195C38.9829 19.1455 35.1963 15.6719 30.7148 15.8609Z" fill="#FF3128"/>
  <path d="M30.6787 15.963L30.4514 15.9726C25.9699 16.1617 22.4905 19.9418 22.6799 24.4158C22.8692 28.8898 26.6558 32.3634 31.1373 32.1744L31.3646 32.1648C35.8461 31.9757 39.3255 28.1955 39.1361 23.7215C38.9467 19.2475 35.1602 15.7739 30.6787 15.963Z" fill="#FF3029"/>
  <path d="M30.6357 16.0582L30.4085 16.0678C25.9269 16.2569 22.4475 20.0371 22.6369 24.5111C22.8263 28.9851 26.6128 32.4587 31.0943 32.2696L31.3216 32.26C35.8031 32.0709 39.2826 28.2907 39.0932 23.8167C38.9038 19.3427 35.1172 15.8691 30.6357 16.0582Z" fill="#FF2F2A"/>
  <path d="M30.5937 16.1603L30.3665 16.1698C25.8849 16.3589 22.4055 20.1391 22.5949 24.6131C22.7843 29.0871 26.5708 32.5607 31.0523 32.3716L31.2796 32.362C35.7611 32.173 39.2406 28.3928 39.0512 23.9188C38.8618 19.4448 35.0753 15.9712 30.5937 16.1603Z" fill="#FF2F2B"/>
  <path d="M30.5517 16.2618L30.3245 16.2714C25.843 16.4605 22.3635 20.2407 22.5529 24.7147C22.7423 29.1887 26.5288 32.6623 31.0103 32.4732L31.2376 32.4636C35.7191 32.2745 39.1986 28.4944 39.0092 24.0204C38.8198 19.5464 35.0333 16.0727 30.5517 16.2618Z" fill="#FF2E2C"/>
  <path d="M30.5019 16.3639L30.2747 16.3735C25.7931 16.5625 22.3137 20.3427 22.5031 24.8167C22.6925 29.2907 26.479 32.7643 30.9605 32.5752L31.1878 32.5657C35.6693 32.3766 39.1488 28.5964 38.9594 24.1224C38.77 19.6484 34.9835 16.1748 30.5019 16.3639Z" fill="#FF2E2D"/>
  <path d="M30.4668 16.4591L30.2395 16.4687C25.758 16.6578 22.2785 20.4379 22.4679 24.9119C22.6573 29.3859 26.4439 32.8595 30.9254 32.6705L31.1526 32.6609C35.6342 32.4718 39.1136 28.6916 38.9242 24.2176C38.7348 19.7436 34.9483 16.27 30.4668 16.4591Z" fill="#FF2D2E"/>
  <path d="M30.416 16.5543L30.1887 16.5639C25.7072 16.753 22.2278 20.5331 22.4172 25.0071C22.6066 29.4811 26.3931 32.9548 30.8746 32.7657L31.1019 32.7561C35.5834 32.567 39.0628 28.7868 38.8734 24.3128C38.684 19.8388 34.8975 16.3652 30.416 16.5543Z" fill="#FF2C2F"/>
  <path d="M30.3672 16.6564L30.1399 16.6659C25.6584 16.855 22.1789 20.6352 22.3683 25.1092C22.5577 29.5832 26.3443 33.0568 30.8258 32.8677L31.053 32.8581C35.5346 32.6691 39.014 28.8889 38.8246 24.4149C38.6352 19.9409 34.8487 16.4673 30.3672 16.6564Z" fill="#FF2C30"/>
  <path d="M30.3252 16.7521L30.0979 16.7616C25.6164 16.9507 22.1369 20.7309 22.3263 25.2049C22.5157 29.6789 26.3023 33.1525 30.7838 32.9634L31.011 32.9538C35.4926 32.7648 38.972 28.9846 38.7826 24.5106C38.5932 20.0366 34.8067 16.563 30.3252 16.7521Z" fill="#FF2B31"/>
  <path d="M30.2754 16.8473L30.0481 16.8569C25.5666 17.0459 22.0871 20.8261 22.2765 25.3001C22.4659 29.7741 26.2525 33.2477 30.734 33.0586L30.9612 33.0491C35.4428 32.86 38.9222 29.0798 38.7328 24.6058C38.5434 20.1318 34.7569 16.6582 30.2754 16.8473Z" fill="#FF2B32"/>
  <path d="M30.2197 16.9498L29.9924 16.9594C25.5109 17.1485 22.0315 20.9287 22.2209 25.4027C22.4103 29.8767 26.1968 33.3503 30.6783 33.1612L30.9056 33.1516C35.3871 32.9625 38.8666 29.1823 38.6772 24.7083C38.4878 20.2343 34.7012 16.7607 30.2197 16.9498Z" fill="#FF2A33"/>
  <path d="M30.1767 17.045L29.9495 17.0546C25.468 17.2437 21.9885 21.0239 22.1779 25.4979C22.3673 29.9719 26.1538 33.4455 30.6353 33.2564L30.8626 33.2468C35.3441 33.0577 38.8236 29.2776 38.6342 24.8036C38.4448 20.3296 34.6583 16.8559 30.1767 17.045Z" fill="#FF2A34"/>
  <path d="M30.1201 17.1339L29.8928 17.1435C25.4113 17.3326 21.9319 21.1127 22.1213 25.5867C22.3107 30.0607 26.0972 33.5343 30.5787 33.3453L30.806 33.3357C35.2875 33.1466 38.7669 29.3664 38.5775 24.8924C38.3881 20.4184 34.6016 16.9448 30.1201 17.1339Z" fill="#FF2935"/>
  <path d="M30.0713 17.2364L29.844 17.246C25.3625 17.4351 21.883 21.2153 22.0724 25.6893C22.2618 30.1633 26.0484 33.6369 30.5299 33.4478L30.7571 33.4382C35.2387 33.2491 38.7181 29.469 38.5287 24.995C38.3393 20.521 34.5528 17.0473 30.0713 17.2364Z" fill="#FF2836"/>
  <path d="M30.0215 17.3316L29.7942 17.3412C25.3127 17.5303 21.8332 21.3105 22.0226 25.7845C22.212 30.2585 25.9986 33.7321 30.4801 33.543L30.7073 33.5334C35.1889 33.3444 38.6683 29.5642 38.4789 25.0902C38.2895 20.6162 34.503 17.1426 30.0215 17.3316Z" fill="#FF2837"/>
  <path d="M29.9658 17.421L29.7385 17.4306C25.257 17.6197 21.7776 21.3998 21.967 25.8738C22.1564 30.3478 25.9429 33.8215 30.4244 33.6324L30.6517 33.6228C35.1332 33.4337 38.6126 29.6535 38.4232 25.1795C38.2339 20.7055 34.4473 17.2319 29.9658 17.421Z" fill="#FF2738"/>
  <path d="M29.916 17.5162L29.6887 17.5258C25.2072 17.7149 21.7278 21.4951 21.9172 25.9691C22.1066 30.4431 25.8931 33.9167 30.3746 33.7276L30.6019 33.718C35.0834 33.5289 38.5628 29.7488 38.3734 25.2747C38.184 20.8007 34.3975 17.3271 29.916 17.5162Z" fill="#FF2739"/>
  <path d="M29.8525 17.6124L29.6253 17.622C25.1437 17.8111 21.6643 21.5912 21.8537 26.0652C22.0431 30.5392 25.8296 34.0129 30.3111 33.8238L30.5384 33.8142C35.0199 33.6251 38.4994 29.8449 38.31 25.3709C38.1206 20.8969 34.334 17.4233 29.8525 17.6124Z" fill="#FF263A"/>
  <path d="M29.8037 17.7013L29.5764 17.7109C25.0949 17.8999 21.6155 21.6801 21.8049 26.1541C21.9942 30.6281 25.7808 34.1017 30.2623 33.9126L30.4896 33.9031C34.9711 33.714 38.4505 29.9338 38.2611 25.4598C38.0717 20.9858 34.2852 17.5122 29.8037 17.7013Z" fill="#FF253B"/>
  <path d="M29.7402 17.7975L29.513 17.8071C25.0314 17.9961 21.552 21.7763 21.7414 26.2503C21.9308 30.7243 25.7173 34.1979 30.1988 34.0088L30.4261 33.9993C34.9076 33.8102 38.3871 30.03 38.1977 25.556C38.0083 21.082 34.2217 17.6084 29.7402 17.7975Z" fill="#FF253C"/>
  <path d="M29.6836 17.8863L29.4563 17.8959C24.9748 18.085 21.4953 21.8652 21.6847 26.3392C21.8741 30.8132 25.6607 34.2868 30.1422 34.0977L30.3694 34.0881C34.851 33.899 38.3304 30.1189 38.141 25.6449C37.9516 21.1709 34.1651 17.6973 29.6836 17.8863Z" fill="#FF243D"/>
  <path d="M29.6279 17.9757L29.4006 17.9853C24.9191 18.1744 21.4397 21.9545 21.6291 26.4285C21.8185 30.9025 25.605 34.3761 30.0865 34.1871L30.3138 34.1775C34.7953 33.9884 38.2748 30.2082 38.0854 25.7342C37.896 21.2602 34.1094 17.7866 29.6279 17.9757Z" fill="#FF243D"/>
  <path d="M29.5654 18.0719L29.3381 18.0815C24.8566 18.2705 21.3772 22.0507 21.5666 26.5247C21.756 30.9987 25.5425 34.4723 30.024 34.2833L30.2513 34.2737C34.7328 34.0846 38.2123 30.3044 38.0229 25.8304C37.8335 21.3564 34.0469 17.8828 29.5654 18.0719Z" fill="#FF233E"/>
  <path d="M29.5088 18.1544L29.2815 18.164C24.8 18.3531 21.3205 22.1332 21.5099 26.6072C21.6993 31.0812 25.4859 34.5549 29.9674 34.3658L30.1946 34.3562C34.6762 34.1671 38.1556 30.3869 37.9662 25.9129C37.7768 21.4389 33.9903 17.9653 29.5088 18.1544Z" fill="#FF233F"/>
  <path d="M29.4463 18.2501L29.219 18.2597C24.7375 18.4488 21.258 22.2289 21.4474 26.7029C21.6368 31.1769 25.4234 34.6506 29.9049 34.4615L30.1321 34.4519C34.6137 34.2628 38.0931 30.4826 37.9037 26.0086C37.7143 21.5346 33.9278 18.061 29.4463 18.2501Z" fill="#FF2240"/>
  <path d="M29.3896 18.3395L29.1624 18.349C24.6808 18.5381 21.2014 22.3183 21.3908 26.7923C21.5802 31.2663 25.3667 34.7399 29.8482 34.5508L30.0755 34.5412C34.557 34.3522 38.0365 30.572 37.8471 26.098C37.6577 21.624 33.8712 18.1504 29.3896 18.3395Z" fill="#FF2141"/>
  <path d="M29.3261 18.422L29.0989 18.4316C24.6174 18.6206 21.1379 22.4008 21.3273 26.8748C21.5167 31.3488 25.3032 34.8224 29.7848 34.6334L30.012 34.6238C34.4935 34.4347 37.973 30.6545 37.7836 26.1805C37.5942 21.7065 33.8077 18.2329 29.3261 18.422Z" fill="#FF2142"/>
  <path d="M29.2568 18.5182L29.0296 18.5278C24.548 18.7168 21.0686 22.497 21.258 26.971C21.4474 31.445 25.2339 34.9186 29.7154 34.7295L29.9427 34.72C34.4242 34.5309 37.9037 30.7507 37.7143 26.2767C37.5249 21.8027 33.7383 18.3291 29.2568 18.5182Z" fill="#FF2043"/>
  <path d="M29.2002 18.6075L28.9729 18.6171C24.4914 18.8062 21.0119 22.5864 21.2013 27.0604C21.3907 31.5344 25.1773 35.008 29.6588 34.8189L29.886 34.8093C34.3676 34.6202 37.847 30.8401 37.6576 26.3661C37.4682 21.8921 33.6817 18.4184 29.2002 18.6075Z" fill="#FF2044"/>
  <path d="M29.1299 18.6905L28.9026 18.7001C24.4211 18.8892 20.9416 22.6694 21.131 27.1434C21.3204 31.6174 25.107 35.091 29.5885 34.9019L29.8157 34.8923C34.2973 34.7032 37.7767 30.9231 37.5873 26.4491C37.3979 21.9751 33.6114 18.5015 29.1299 18.6905Z" fill="#FF1F45"/>
  <path d="M29.0674 18.7799L28.8401 18.7895C24.3586 18.9786 20.8791 22.7587 21.0685 27.2327C21.2579 31.7067 25.0445 35.1803 29.526 34.9913L29.7532 34.9817C34.2348 34.7926 37.7142 31.0124 37.5248 26.5384C37.3354 22.0644 33.5489 18.5908 29.0674 18.7799Z" fill="#FF1E46"/>
  <path d="M28.9971 18.8629L28.7698 18.8725C24.2883 19.0616 20.8088 22.8417 20.9982 27.3157C21.1876 31.7897 24.9741 35.2634 29.4557 35.0743L29.6829 35.0647C34.1644 34.8756 37.6439 31.0954 37.4545 26.6214C37.2651 22.1474 33.4786 18.6738 28.9971 18.8629Z" fill="#FF1E47"/>
  <path d="M28.9336 18.9527L28.7063 18.9623C24.2248 19.1514 20.7453 22.9316 20.9347 27.4056C21.1241 31.8796 24.9107 35.3532 29.3922 35.1641L29.6194 35.1545C34.101 34.9654 37.5804 31.1853 37.391 26.7113C37.2016 22.2373 33.4151 18.7637 28.9336 18.9527Z" fill="#FF1D48"/>
  <path d="M28.8642 19.0353L28.637 19.0448C24.1555 19.2339 20.676 23.0141 20.8654 27.4881C21.0548 31.9621 24.8413 35.4357 29.3228 35.2466L29.5501 35.237C34.0316 35.048 37.5111 31.2678 37.3217 26.7938C37.1323 22.3198 33.3458 18.8462 28.8642 19.0353Z" fill="#FF1D49"/>
  <path d="M28.8008 19.1183L28.5735 19.1279C24.092 19.3169 20.6125 23.0971 20.8019 27.5711C20.9913 32.0451 24.7779 35.5187 29.2594 35.3296L29.4866 35.3201C33.9682 35.131 37.4476 31.3508 37.2582 26.8768C37.0688 22.4028 33.2823 18.9292 28.8008 19.1183Z" fill="#FF1C4A"/>
  <path d="M28.7246 19.2081L28.4973 19.2177C24.0158 19.4068 20.5364 23.187 20.7257 27.661C20.9151 32.135 24.7017 35.6086 29.1832 35.4195L29.4105 35.4099C33.892 35.2208 37.3714 31.4406 37.182 26.9666C36.9926 22.4926 33.2061 19.019 28.7246 19.2081Z" fill="#FF1C4B"/>
  <path d="M28.6543 19.2911L28.427 19.3007C23.9455 19.4898 20.466 23.27 20.6554 27.744C20.8448 32.218 24.6314 35.6916 29.1129 35.5025L29.3401 35.4929C33.8217 35.3038 37.3011 31.5237 37.1117 27.0497C36.9223 22.5757 33.1358 19.102 28.6543 19.2911Z" fill="#FF1B4C"/>
  <path d="M28.584 19.3741L28.3567 19.3837C23.8752 19.5728 20.3957 23.353 20.5851 27.827C20.7745 32.301 24.5611 35.7746 29.0426 35.5855L29.2698 35.5759C33.7514 35.3868 37.2308 31.6067 37.0414 27.1327C36.852 22.6587 33.0655 19.185 28.584 19.3741Z" fill="#FF1A4D"/>
  <path d="M28.5068 19.4508L28.2796 19.4604C23.798 19.6495 20.3186 23.4296 20.508 27.9036C20.6974 32.3776 24.4839 35.8512 28.9654 35.6622L29.1927 35.6526C33.6742 35.4635 37.1537 31.6833 36.9643 27.2093C36.7749 22.7353 32.9883 19.2617 28.5068 19.4508Z" fill="#FF1A4E"/>
  <path d="M28.4375 19.5406L28.2102 19.5502C23.7287 19.7393 20.2492 23.5195 20.4386 27.9935C20.628 32.4675 24.4146 35.9411 28.8961 35.752L29.1234 35.7424C33.6049 35.5533 37.0843 31.7732 36.8949 27.2992C36.7055 22.8252 32.919 19.3515 28.4375 19.5406Z" fill="#FF194F"/>
  <path d="M28.3603 19.6173L28.1331 19.6269C23.6515 19.816 20.1721 23.5961 20.3615 28.0701C20.5509 32.5441 24.3374 36.0177 28.8189 35.8287L29.0462 35.8191C33.5277 35.63 37.0072 31.8498 36.8178 27.3758C36.6284 22.9018 32.8419 19.4282 28.3603 19.6173Z" fill="#FF1950"/>
  <path d="M28.29 19.7003L28.0628 19.7099C23.5812 19.899 20.1018 23.6791 20.2912 28.1531C20.4806 32.6271 24.2671 36.1008 28.7486 35.9117L28.9759 35.9021C33.4574 35.713 36.9369 31.9328 36.7475 27.4588C36.5581 22.9848 32.7715 19.5112 28.29 19.7003Z" fill="#FF1851"/>
  <path d="M28.2138 19.7833L27.9866 19.7929C23.5051 19.982 20.0256 23.7621 20.215 28.2361C20.4044 32.7101 24.1909 36.1838 28.6725 35.9947L28.8997 35.9851C33.3812 35.796 36.8607 32.0158 36.6713 27.5418C36.4819 23.0678 32.6954 19.5942 28.2138 19.7833Z" fill="#FF1752"/>
  <path d="M28.1435 19.86L27.9163 19.8696C23.4348 20.0586 19.9553 23.8388 20.1447 28.3128C20.3341 32.7868 24.1206 36.2604 28.6021 36.0713L28.8294 36.0618C33.3109 35.8727 36.7904 32.0925 36.601 27.6185C36.4116 23.1445 32.6251 19.6709 28.1435 19.86Z" fill="#FF1753"/>
  <path d="M28.0595 19.9435L27.8323 19.953C23.3508 20.1421 19.8713 23.9223 20.0607 28.3963C20.2501 32.8703 24.0366 36.3439 28.5182 36.1548L28.7454 36.1453C33.2269 35.9562 36.7064 32.176 36.517 27.702C36.3276 23.228 32.5411 19.7544 28.0595 19.9435Z" fill="#FF1654"/>
  <path d="M27.9892 20.0201L27.762 20.0297C23.2805 20.2188 19.801 23.999 19.9904 28.473C20.1798 32.947 23.9663 36.4206 28.4478 36.2315L28.6751 36.2219C33.1566 36.0328 36.6361 32.2527 36.4467 27.7787C36.2573 23.3047 32.4708 19.831 27.9892 20.0201Z" fill="#FF1655"/>
  <path d="M27.9062 20.1031L27.679 20.1127C23.1974 20.3018 19.718 24.082 19.9074 28.556C20.0968 33.03 23.8833 36.5036 28.3648 36.3145L28.5921 36.3049C33.0736 36.1158 36.5531 32.3357 36.3637 27.8617C36.1743 23.3877 32.3877 19.914 27.9062 20.1031Z" fill="#FF1556"/>
  <path d="M27.8301 20.1803L27.6028 20.1899C23.1213 20.3789 19.6418 24.1591 19.8312 28.6331C20.0206 33.1071 23.8071 36.5807 28.2887 36.3917L28.5159 36.3821C32.9975 36.193 36.4769 32.4128 36.2875 27.9388C36.0981 23.4648 32.3116 19.9912 27.8301 20.1803Z" fill="#FF1457"/>
  <path d="M27.7529 20.2633L27.5256 20.2729C23.0441 20.462 19.5647 24.2421 19.7541 28.7161C19.9435 33.1901 23.73 36.6637 28.2115 36.4747L28.4388 36.4651C32.9203 36.276 36.3998 32.4958 36.2104 28.0218C36.021 23.5478 32.2344 20.0742 27.7529 20.2633Z" fill="#FF1458"/>
  <path d="M27.6758 20.3336L27.4485 20.3432C22.967 20.5323 19.4875 24.3124 19.6769 28.7864C19.8663 33.2604 23.6529 36.7341 28.1344 36.545L28.3616 36.5354C32.8432 36.3463 36.3226 32.5661 36.1332 28.0921C35.9438 23.6181 32.1573 20.1445 27.6758 20.3336Z" fill="#FF1359"/>
  <path d="M27.5859 20.4171L27.3587 20.4267C22.8771 20.6158 19.3977 24.3959 19.5871 28.8699C19.7765 33.3439 23.563 36.8176 28.0445 36.6285L28.2718 36.6189C32.7533 36.4298 36.2328 32.6496 36.0434 28.1756C35.854 23.7016 32.0674 20.228 27.5859 20.4171Z" fill="#FF135A"/>
  <path d="M27.5088 20.4874L27.2815 20.497C22.8 20.6861 19.3205 24.4663 19.5099 28.9403C19.6993 33.4143 23.4859 36.8879 27.9674 36.6988L28.1946 36.6892C32.6762 36.5001 36.1556 32.7199 35.9662 28.2459C35.7768 23.7719 31.9903 20.2983 27.5088 20.4874Z" fill="#FF125B"/>
  <path d="M27.4248 20.5641L27.1975 20.5737C22.716 20.7627 19.2365 24.5429 19.4259 29.0169C19.6153 33.4909 23.4019 36.9645 27.8834 36.7754L28.1107 36.7659C32.5922 36.5768 36.0716 32.7966 35.8822 28.3226C35.6928 23.8486 31.9063 20.375 27.4248 20.5641Z" fill="#FF125C"/>
  <path d="M27.3476 20.6407L27.1204 20.6503C22.6389 20.8394 19.1594 24.6196 19.3488 29.0936C19.5382 33.5676 23.3247 37.0412 27.8062 36.8521L28.0335 36.8425C32.515 36.6534 35.9945 32.8733 35.8051 28.3993C35.6157 23.9253 31.8292 20.4516 27.3476 20.6407Z" fill="#FF115D"/>
  <path d="M27.2568 20.7179L27.0296 20.7275C22.548 20.9165 19.0686 24.6967 19.258 29.1707C19.4474 33.6447 23.2339 37.1183 27.7154 36.9293L27.9427 36.9197C32.4242 36.7306 35.9037 32.9504 35.7143 28.4764C35.5249 24.0024 31.7383 20.5288 27.2568 20.7179Z" fill="#FF105E"/>
  <path d="M27.1806 20.7882L26.9534 20.7978C22.4719 20.9869 18.9924 24.767 19.1818 29.241C19.3712 33.715 23.1577 37.1886 27.6393 36.9996L27.8665 36.99C32.348 36.8009 35.8275 33.0207 35.6381 28.5467C35.4487 24.0727 31.6622 20.5991 27.1806 20.7882Z" fill="#FF105F"/>
  <path d="M27.0898 20.8648L26.8626 20.8744C22.381 21.0635 18.9016 24.8437 19.091 29.3177C19.2804 33.7917 23.0669 37.2653 27.5484 37.0762L27.7757 37.0666C32.2572 36.8776 35.7367 33.0974 35.5473 28.6234C35.3579 24.1494 31.5713 20.6758 27.0898 20.8648Z" fill="#FF0F60"/>
  <path d="M27.0058 20.9356L26.7786 20.9452C22.2971 21.1343 18.8176 24.9145 19.007 29.3885C19.1964 33.8625 22.9829 37.3361 27.4645 37.147L27.6917 37.1374C32.1732 36.9484 35.6527 33.1682 35.4633 28.6942C35.2739 24.2202 31.4874 20.7466 27.0058 20.9356Z" fill="#FF0F61"/>
  <path d="M26.915 21.006L26.6878 21.0155C22.2062 21.2046 18.7268 24.9848 18.9162 29.4588C19.1056 33.9328 22.8921 37.4064 27.3736 37.2173L27.6009 37.2077C32.0824 37.0187 35.5619 33.2385 35.3725 28.7645C35.1831 24.2905 31.3965 20.8169 26.915 21.006Z" fill="#FF0E62"/>
  <path d="M26.831 21.0831L26.6038 21.0927C22.1222 21.2818 18.6428 25.062 18.8322 29.536C19.0216 34.01 22.8081 37.4836 27.2896 37.2945L27.5169 37.2849C31.9984 37.0958 35.4779 33.3156 35.2885 28.8416C35.0991 24.3676 31.3126 20.894 26.831 21.0831Z" fill="#FF0D63"/>
  <path d="M26.7412 21.1466L26.5139 21.1562C22.0324 21.3453 18.553 25.1254 18.7424 29.5994C18.9317 34.0734 22.7183 37.547 27.1998 37.358L27.4271 37.3484C31.9086 37.1593 35.388 33.3791 35.1986 28.9051C35.0092 24.4311 31.2227 20.9575 26.7412 21.1466Z" fill="#FF0D64"/>
  <path d="M26.6572 21.2237L26.4299 21.2333C21.9484 21.4224 18.469 25.2026 18.6584 29.6766C18.8478 34.1506 22.6343 37.6242 27.1158 37.4351L27.3431 37.4255C31.8246 37.2364 35.3041 33.4563 35.1147 28.9823C34.9253 24.5083 31.1387 21.0347 26.6572 21.2237Z" fill="#FF0C65"/>
  <path d="M26.5596 21.2945L26.3323 21.3041C21.8508 21.4932 18.3713 25.2734 18.5607 29.7474C18.7501 34.2214 22.5366 37.695 27.0182 37.5059L27.2454 37.4963C31.7269 37.3072 35.2064 33.5271 35.017 29.0531C34.8276 24.5791 31.0411 21.1055 26.5596 21.2945Z" fill="#FF0C66"/>
  <path d="M26.4756 21.3648L26.2483 21.3744C21.7668 21.5635 18.2873 25.3437 18.4767 29.8177C18.6661 34.2917 22.4527 37.7653 26.9342 37.5762L27.1614 37.5666C31.643 37.3776 35.1224 33.5974 34.933 29.1234C34.7436 24.6494 30.9571 21.1758 26.4756 21.3648Z" fill="#FF0B67"/>
  <path d="M26.3916 21.4352L26.1643 21.4447C21.6828 21.6338 18.2033 25.414 18.3927 29.888C18.5821 34.362 22.3687 37.8356 26.8502 37.6465L27.0775 37.6369C31.559 37.4479 35.0384 33.6677 34.849 29.1937C34.6596 24.7197 30.8731 21.2461 26.3916 21.4352Z" fill="#FF0B68"/>
  <path d="M26.2939 21.506L26.0667 21.5155C21.5851 21.7046 18.1057 25.4848 18.2951 29.9588C18.4845 34.4328 22.271 37.9064 26.7525 37.7173L26.9798 37.7078C31.4613 37.5187 34.9408 33.7385 34.7514 29.2645C34.562 24.7905 30.7754 21.3169 26.2939 21.506Z" fill="#FF0A69"/>
  <path d="M26.2041 21.5699L25.9768 21.5795C21.4953 21.7686 18.0158 25.5488 18.2052 30.0228C18.3946 34.4968 22.1812 37.9704 26.6627 37.7813L26.89 37.7717C31.3715 37.5826 34.8509 33.8025 34.6615 29.3285C34.4721 24.8545 30.6856 21.3808 26.2041 21.5699Z" fill="#FF096A"/>
  <path d="M26.1064 21.6339L25.8792 21.6435C21.3976 21.8326 17.9182 25.6127 18.1076 30.0867C18.297 34.5607 22.0835 38.0343 26.565 37.8453L26.7923 37.8357C31.2738 37.6466 34.7533 33.8664 34.5639 29.3924C34.3745 24.9184 30.5879 21.4448 26.1064 21.6339Z" fill="#FF096B"/>
  <path d="M26.0224 21.7042L25.7952 21.7138C21.3137 21.9029 17.8342 25.683 18.0236 30.157C18.213 34.631 21.9995 38.1047 26.4811 37.9156L26.7083 37.906C31.1898 37.7169 34.6693 33.9367 34.4799 29.4627C34.2905 24.9887 30.504 21.5151 26.0224 21.7042Z" fill="#FF086C"/>
  <path d="M25.9248 21.7682L25.6975 21.7778C21.216 21.9668 17.7365 25.747 17.9259 30.221C18.1153 34.695 21.9019 38.1686 26.3834 37.9795L26.6107 37.97C31.0922 37.7809 34.5716 34.0007 34.3822 29.5267C34.1928 25.0527 30.4063 21.5791 25.9248 21.7682Z" fill="#FF086D"/>
  <path d="M25.8271 21.839L25.5999 21.8486C21.1183 22.0376 17.6389 25.8178 17.8283 30.2918C18.0177 34.7658 21.8042 38.2394 26.2857 38.0503L26.513 38.0408C30.9945 37.8517 34.474 34.0715 34.2846 29.5975C34.0952 25.1235 30.3086 21.6499 25.8271 21.839Z" fill="#FF076E"/>
  <path d="M25.7363 21.9034L25.509 21.913C21.0275 22.1021 17.5481 25.8823 17.7375 30.3563C17.9269 34.8303 21.7134 38.3039 26.1949 38.1148L26.4222 38.1052C30.9037 37.9161 34.3832 34.136 34.1938 29.662C34.0044 25.188 30.2178 21.7143 25.7363 21.9034Z" fill="#FF066F"/>
  <path d="M25.6396 21.9737L25.4124 21.9833C20.9308 22.1724 17.4514 25.9526 17.6408 30.4266C17.8302 34.9006 21.6167 38.3742 26.0982 38.1851L26.3255 38.1755C30.807 37.9864 34.2865 34.2063 34.0971 29.7323C33.9077 25.2583 30.1211 21.7847 25.6396 21.9737Z" fill="#FF0670"/>
  <path d="M25.5478 22.0377L25.3206 22.0473C20.839 22.2364 17.3596 26.0165 17.549 30.4905C17.7384 34.9645 21.5249 38.4382 26.0064 38.2491L26.2337 38.2395C30.7152 38.0504 34.1947 34.2702 34.0053 29.7962C33.8159 25.3222 30.0294 21.8486 25.5478 22.0377Z" fill="#FF0571"/>
  <path d="M25.4443 22.0953L25.2171 22.1049C20.7355 22.294 17.2561 26.0742 17.4455 30.5482C17.6349 35.0222 21.4214 38.4958 25.9029 38.3067L26.1302 38.2971C30.6117 38.108 34.0912 34.3278 33.9018 29.8538C33.7124 25.3798 29.9258 21.9062 25.4443 22.0953Z" fill="#FF0572"/>
  <path d="M25.3535 22.1661L25.1262 22.1757C20.6447 22.3648 17.1653 26.145 17.3547 30.619C17.5441 35.093 21.3306 38.5666 25.8121 38.3775L26.0394 38.3679C30.5209 38.1788 34.0003 34.3987 33.8109 29.9247C33.6215 25.4507 29.835 21.977 25.3535 22.1661Z" fill="#FF0473"/>
  <path d="M25.249 22.2237L25.0217 22.2333C20.5402 22.4224 17.0608 26.2026 17.2502 30.6766C17.4396 35.1506 21.2261 38.6242 25.7076 38.4351L25.9349 38.4255C30.4164 38.2364 33.8959 34.4563 33.7065 29.9823C33.5171 25.5083 29.7305 22.0347 25.249 22.2237Z" fill="#FF0474"/>
  <path d="M25.1513 22.2882L24.9241 22.2978C20.4426 22.4869 16.9631 26.267 17.1525 30.741C17.3419 35.215 21.1284 38.6886 25.61 38.4996L25.8372 38.49C30.3187 38.3009 33.7982 34.5207 33.6088 30.0467C33.4194 25.5727 29.6329 22.0991 25.1513 22.2882Z" fill="#FF0375"/>
  <path d="M25.0537 22.3522L24.8264 22.3617C20.3449 22.5508 16.8655 26.331 17.0549 30.805C17.2442 35.279 21.0308 38.7526 25.5123 38.5635L25.7396 38.5539C30.2211 38.3649 33.7005 34.5847 33.5111 30.1107C33.3217 25.6367 29.5352 22.1631 25.0537 22.3522Z" fill="#FF0276"/>
  <path d="M24.956 22.4098L24.7288 22.4194C20.2472 22.6084 16.7678 26.3886 16.9572 30.8626C17.1466 35.3366 20.9331 38.8102 25.4146 38.6211L25.6419 38.6116C30.1234 38.4225 33.6029 34.6423 33.4135 30.1683C33.2241 25.6943 29.4376 22.2207 24.956 22.4098Z" fill="#FF0277"/>
  <path d="M24.8515 22.4742L24.6243 22.4838C20.1428 22.6729 16.6633 26.4531 16.8527 30.9271C17.0421 35.4011 20.8286 38.8747 25.3102 38.6856L25.5374 38.676C30.0189 38.4869 33.4984 34.7068 33.309 30.2328C33.1196 25.7588 29.3331 22.2851 24.8515 22.4742Z" fill="#FF0178"/>
  <path d="M24.747 22.5318L24.5198 22.5414C20.0383 22.7305 16.5588 26.5107 16.7482 30.9847C16.9376 35.4587 20.7241 38.9323 25.2057 38.7432L25.4329 38.7336C29.9144 38.5445 33.3939 34.7644 33.2045 30.2904C33.0151 25.8164 29.2286 22.3428 24.747 22.5318Z" fill="#FF0179"/>
  <path d="M24.6494 22.5895L24.4221 22.599C19.9406 22.7881 16.4612 26.5683 16.6506 31.0423C16.84 35.5163 20.6265 38.9899 25.108 38.8008L25.3353 38.7912C29.8168 38.6022 33.2962 34.822 33.1068 30.348C32.9174 25.874 29.1309 22.4004 24.6494 22.5895Z" fill="#FF007A"/>
</svg>
