<svg width="32" height="32" viewBox="0 0 32 32" fill="none" xmlns="http://www.w3.org/2000/svg">
<rect width="32" height="32" rx="16" fill="white"/>
<path fill-rule="evenodd" clip-rule="evenodd" d="M32 16.0034C32 24.8427 24.8416 32 16.0049 32C7.16699 32 0 24.8427 0 16.0034C0 7.16414 7.16699 0 16.0049 0C24.8417 0 32 7.16414 32 16.0034ZM9.44898 8.29068C10.6261 7.85368 12.2523 7.71513 14.759 7.71513V7.71524H17.0202L15.9138 10.4819H14.3643C12.7002 10.4819 11.6317 10.487 11.055 10.6783C10.494 10.8523 10.0794 11.063 9.85342 11.3938C9.64446 11.6613 9.57395 12.0266 9.57395 12.3436C9.57395 12.6756 9.61033 12.9899 9.93898 13.4121C10.3444 13.8167 11.012 14.3392 12.3221 15.1451C14.9339 16.7747 15.7065 18.0683 15.7065 19.7704C15.7065 22.5403 13.0942 25.1856 8.71579 25.1856C7.39964 25.1856 5.56261 24.9928 4.78855 24.7459L4.38198 24.6263C4.54052 24.0992 5.06049 22.6467 5.28954 22.0326L5.70015 22.1361C6.56067 22.3467 7.90737 22.4704 8.80146 22.4704C11.3631 22.4704 12.3587 21.3138 12.3587 20.2976C12.3587 19.3692 11.8517 18.86 9.30998 17.3192C6.92783 15.8467 6.1047 14.5665 6.1047 12.7987C6.1047 10.6763 7.47082 9.06126 9.44898 8.29068ZM18.6825 7.71513H26.4688C26.8349 7.71513 26.9049 7.97382 26.7639 8.25542C26.2548 9.51735 21.451 21.5535 21.451 21.5535H18.2398C18.2398 21.5535 22.0341 11.8846 22.6636 10.4443C22.5181 10.4443 22.3838 10.4485 22.205 10.4541C21.8482 10.4651 21.3138 10.4817 20.1569 10.4817H17.576L18.6825 7.71513Z" fill="#C4D600"/>
</svg>
