<?xml version="1.0" encoding="UTF-8"?> <svg xmlns="http://www.w3.org/2000/svg" xmlns:xlink="http://www.w3.org/1999/xlink" xmlns:svgjs="http://svgjs.com/svgjs" width="1000" height="1000"> <rect width="1000" height="1000" rx="200" ry="200" fill="#ffffff"></rect> <g transform="matrix(25,0,0,25,224.62500892639162,99.99995422363281)"> <svg xmlns="http://www.w3.org/2000/svg" xmlns:xlink="http://www.w3.org/1999/xlink" xmlns:svgjs="http://svgjs.com/svgjs" width="22.03" height="32"> <svg xmlns="http://www.w3.org/2000/svg" id="Layer_2" viewBox="0 0 22.03 32"> <defs> <style>.cls-1{stroke-width:0px;}</style> </defs> <g id="Layer_1-2"> <path class="cls-1" d="m6.47,26.35h-3.18V2.87l-3.29-.27L1.43,0l12.75,1.01c.93,2.56,1.59,5.85,1.4,8.68l-5.43,3.76v.14l2.95,1.06,5.37,13.22,3.56,1.52-1.76,2.61-4.61-2.31-5.36-13.41-2.09-.89v-2.13l4.34-3.29c0-2.33-.27-4.46-1.01-6.43l-6.2-.58v.12l1.12,1.36v21.93Z"></path> </g> </svg> </svg> </g> </svg> 