<?xml version="1.0" encoding="UTF-8"?>
<!DOCTYPE svg PUBLIC "-//W3C//DTD SVG 1.0//EN" "http://www.w3.org/TR/2001/REC-SVG-20010904/DTD/svg10.dtd">
<!-- Creator: CorelDRAW 2018 (64-Bit) -->
<svg xmlns="http://www.w3.org/2000/svg" xml:space="preserve" width="120px" height="120px" version="1.0" style="shape-rendering:geometricPrecision; text-rendering:geometricPrecision; image-rendering:optimizeQuality; fill-rule:evenodd; clip-rule:evenodd"
viewBox="0 0 120 120"
 xmlns:xlink="http://www.w3.org/1999/xlink">
 <defs>
  <style type="text/css">
   <![CDATA[
    .fil0 {fill:#003399}
    .fil1 {fill:#0099CC}
   ]]>
  </style>
 </defs>
 <g id="Layer_x0020_1">
  <metadata id="CorelCorpID_0Corel-Layer"/>
  <path class="fil0" d="M4.5 85.43l0 -20.83 -4.71 0 0 -4.75c4.83,0 41.62,0 63.29,0 1.75,0 3.4,0 4.94,0 5.22,0 9,0 10.33,0l0 4.75 -10.04 0 -5.01 0 -53.86 -0.01 -0.03 21.78c0,0.74 0.33,1.38 0.91,1.93 0.59,0.54 1.45,0.85 2.65,0.85l6.18 0 0 4.75 -6.29 0c-2.9,0 -5.06,-0.85 -6.48,-2.54 -1.24,-1.48 -1.88,-3.45 -1.88,-5.93z"/>
  <path class="fil0" d="M91.37 32.55c15.59,0 28.3,12.71 28.3,28.29 0,15.58 -12.71,28.29 -28.3,28.29 -15.58,0 -28.29,-12.71 -28.29,-28.29 0,-15.58 12.71,-28.29 28.29,-28.29zm0 4.92c12.87,0 23.37,10.5 23.37,23.37 0,12.87 -10.5,23.36 -23.37,23.36 -12.86,0 -23.36,-10.49 -23.36,-23.36 0,-12.87 10.5,-23.37 23.36,-23.37z"/>
  <path class="fil1" d="M53.84 80.43c0,-3.67 1.14,-6.82 3.44,-9.44 2.53,-2.81 5.86,-4.22 10.03,-4.22l4.96 0 0 4.75 -4.31 0c-1.98,0 -3.83,0.65 -5.52,1.96 -2.19,1.71 -3.28,4.07 -3.28,7.06 0,2.12 0.73,4.01 2.2,5.67 1.73,1.96 4.01,2.94 6.85,2.94l4.06 0 0 4.75 -4.96 0c-4.24,0 -7.63,-1.54 -10.19,-4.63 -2.19,-2.65 -3.28,-5.6 -3.28,-8.84zm-25.45 0.53l13.53 -7.48c-0.79,-0.78 -1.43,-1.31 -1.93,-1.56 -1.16,-0.65 -2.62,-0.97 -4.39,-0.97 -2.72,0 -4.9,1.01 -6.52,3.06 -1.47,1.83 -2.2,4.1 -2.2,6.79 0,2.34 0.77,4.37 2.31,6.09 1.7,1.88 3.9,2.82 6.62,2.82 2.75,0 4.84,-0.75 6.28,-2.26 1.28,-1.31 2.2,-3.4 2.76,-6.26l4.99 0.68c0,2.92 -1.19,5.65 -3.56,8.17 -2.83,3.01 -6.43,4.52 -10.81,4.52 -3.69,0 -6.91,-1.34 -9.67,-4 -2.76,-2.67 -4.13,-5.87 -4.13,-9.6 0,-4.71 1.55,-8.44 4.66,-11.2 2.66,-2.37 5.75,-3.56 9.27,-3.56 3.08,0 5.69,0.7 7.83,2.1 2.12,1.43 3.93,3.61 5.44,6.51l-18.32 10.15 -2.16 -4zm-24.37 -56.58c0,-0.79 0.3,-1.46 0.91,-2.01 0.61,-0.57 1.31,-0.86 2.1,-0.86 0.75,0 1.44,0.29 2.04,0.86 0.59,0.55 0.89,1.27 0.89,2.16 0,0.89 -0.27,1.61 -0.78,2.12 -0.57,0.57 -1.25,0.85 -2.04,0.85 -0.83,0 -1.55,-0.28 -2.15,-0.85 -0.65,-0.51 -0.97,-1.28 -0.97,-2.27zm0.47 33.37l0 -27.13 4.97 0 0 27.13 -4.97 0zm12.87 0l0 -16.56c0,-3.13 1.13,-5.78 3.39,-7.97 2.26,-2.19 5.03,-3.29 8.31,-3.29 2.61,0 5.02,0.85 7.22,2.55 2.92,2.18 4.37,5.23 4.37,9.15l0 16.12 -5 0 0 -16c0,-1.92 -0.61,-3.57 -1.84,-4.97 -1.24,-1.4 -2.82,-2.1 -4.75,-2.1 -1.84,0 -3.4,0.66 -4.69,1.99 -1.27,1.33 -1.9,2.87 -1.9,4.63l0 16.45 -5.11 0zm28.7 0l0 -29.66c0,-3.52 1.09,-6.16 3.26,-7.93 1.65,-1.36 3.54,-2.04 5.68,-2.04l4.88 0 0 4.75 -3.59 0c-1.8,0 -3.12,0.45 -3.99,1.35 -0.68,0.72 -1.09,1.74 -1.24,3.07l0 3.33 8.13 0 0 4.75 -8.13 0 0 22.38 -5 0z"/>
 </g>
</svg>
