<?xml version="1.0" encoding="UTF-8"?>
<!DOCTYPE svg PUBLIC "-//W3C//DTD SVG 1.1//EN" "http://www.w3.org/Graphics/SVG/1.1/DTD/svg11.dtd">
<!-- Creator: CorelDRAW 2020 (64-Bit) -->
<svg xmlns="http://www.w3.org/2000/svg" xml:space="preserve" width="260px" height="260px" version="1.1" style="shape-rendering:geometricPrecision; text-rendering:geometricPrecision; image-rendering:optimizeQuality; fill-rule:evenodd; clip-rule:evenodd"
viewBox="0 0 260 260"
 xmlns:xlink="http://www.w3.org/1999/xlink"
 xmlns:xodm="http://www.corel.com/coreldraw/odm/2003">
 <defs>
  <style type="text/css">
   <![CDATA[
    .fil3 {fill:none}
    .fil0 {fill:#0F2D2D}
    .fil2 {fill:#229FB1;fill-rule:nonzero}
    .fil1 {fill:#FFC42E;fill-rule:nonzero}
   ]]>
  </style>
   <clipPath id="id0">
    <path d="M-4 356l458 0 0 -458 -458 0 0 458z"/>
   </clipPath>
 </defs>
 <g id="Слой_x0020_1">
  <metadata id="CorelCorpID_0Corel-Layer"/>
  <rect class="fil0" x="1" width="259" height="260"/>
  <g>
  </g>
  <g style="clip-path:url(#id0)">
   <g>
    <path class="fil1" d="M81.44 44.49c17.16,-10.29 37.75,-12.49 57.38,-12.39 22.69,-0.28 45.63,7.05 63.42,21.27 5.36,4.36 11.17,8.67 14.43,14.95 -9.09,11.82 -21.37,20.71 -31.61,31.47 -6.27,-6.61 -12.47,-13.51 -20.46,-18.09 -14.72,-8.6 -32.76,-10.4 -49.27,-6.89 -16.15,3.3 -30.09,14.37 -38.43,28.41 -9.7,18.14 -10.18,41.73 1.41,59.19 7.54,13.64 21.04,22.91 35.67,27.62 12.17,4.19 25.25,2.49 37.8,1.28 0.56,9.12 0.61,18.26 -0.02,27.38 -24.96,6.37 -52.73,3.5 -74.79,-10.2 -25.42,-17.12 -39.72,-48.21 -38.23,-78.62 -1.34,-21.2 3.44,-42.83 15.43,-60.55 6.93,-10.33 16.79,-18.31 27.27,-24.83l0 0z" text-anchor="none"/>
    <path class="fil2" d="M104.87 97.71c21.48,-13.01 52.7,-6.35 65.97,15.3 -5.21,5.79 -10.78,11.24 -16.6,16.41 -4.88,-5.71 -9.96,-12.21 -17.61,-14.14 -9.22,-2.65 -21.15,-0.3 -25.87,8.8 -5.46,10.26 1.93,23.53 12.56,26.6 5.77,1.43 11.78,0.69 17.65,0.41 1.47,7.3 2.9,14.61 4.24,21.94 -24.51,10.73 -56.81,-7.2 -59.55,-34.04 -2.3,-15.91 4.9,-33.3 19.21,-41.28l0 0z"/>
   </g>
  </g>
  <polygon class="fil3" points="-4,356 454,356 454,-102 -4,-102 "/>
 </g>
</svg>
