<svg xmlns="http://www.w3.org/2000/svg" viewBox="0 0 100 100">
  <circle cx="50" cy="50" r="50" fill="#a3ff47"/>
  <svg x="20" y="17" width="60" height="67" viewBox="616 688 260 292" preserveAspectRatio="xMidYMid meet">
    <path
      fill="#0b0b0f"
      d="M 616.00,688.00
         C 616.00,688.00 673.00,688.00 673.00,688.00
           673.00,688.00 750.00,904.67 750.00,904.67
           750.00,904.67 794.98,822.02 794.98,822.02
           794.98,822.02 768.98,822.00 768.98,822.00
           768.98,822.00 816.00,688.00 816.00,688.00
           816.00,688.00 876.00,688.00 876.00,688.00
           876.00,688.00 838.00,793.98 838.00,793.98
           838.00,793.98 864.97,794.03 864.97,794.03
           864.97,794.03 771.35,980.00 771.35,980.00
           771.35,980.00 719.00,980.00 719.00,980.00
           719.00,980.00 616.00,688.00 616.00,688.00 Z"
    />
  </svg>
</svg>
