<?xml version="1.0" encoding="UTF-8"?> <svg xmlns="http://www.w3.org/2000/svg" width="100" height="100" viewBox="0 0 100 100" fill="none"> <rect width="100" height="100" rx="50" fill="#8D58E4"></rect> <path d="M21.952 43.776C22.88 43.776 23.6107 44.0747 24.144 44.672C24.688 45.2587 24.96 46.0693 24.96 47.104V52H22.288V47.408C22.288 46.6613 21.9573 46.288 21.296 46.288C20.9333 46.288 20.656 46.4107 20.464 46.656C20.2827 46.8907 20.192 47.216 20.192 47.632V52H17.536V47.408C17.536 46.6613 17.2 46.288 16.528 46.288C16.1653 46.288 15.888 46.4107 15.696 46.656C15.5147 46.8907 15.424 47.216 15.424 47.632V52H12.768V44H15.424V44.752C15.9147 44.1013 16.6347 43.776 17.584 43.776C18.5013 43.776 19.184 44.1173 19.632 44.8C20.1867 44.1173 20.96 43.776 21.952 43.776ZM28.7454 48.976C29.012 49.6267 29.6094 49.952 30.5374 49.952C31.1134 49.952 31.5987 49.7653 31.9934 49.392L33.9134 50.736C33.124 51.728 31.9774 52.224 30.4734 52.224C29.1187 52.224 28.0307 51.8293 27.2094 51.04C26.3987 50.24 25.9934 49.232 25.9934 48.016C25.9934 46.8107 26.3934 45.8027 27.1934 44.992C27.9934 44.1813 29.012 43.776 30.2494 43.776C31.444 43.776 32.4307 44.176 33.2094 44.976C33.988 45.776 34.3774 46.7787 34.3774 47.984C34.3774 48.336 34.34 48.6667 34.2654 48.976H28.7454ZM28.7134 47.136H31.7854C31.572 46.3893 31.0707 46.016 30.2814 46.016C29.46 46.016 28.9374 46.3893 28.7134 47.136ZM40.2749 46.544H38.6109V48.864C38.6109 49.216 38.7389 49.4347 38.9949 49.52C39.2509 49.6053 39.6775 49.632 40.2749 49.6V52C38.6855 52.192 37.5655 52.048 36.9149 51.568C36.2749 51.0773 35.9549 50.1973 35.9549 48.928V46.544H34.7549V44H35.9549V42.56L38.6109 41.76V44H40.2749V46.544ZM45.2498 52.224C44.0658 52.224 43.0578 51.8187 42.2258 51.008C41.3938 50.1867 40.9778 49.184 40.9778 48C40.9778 46.816 41.3938 45.8187 42.2258 45.008C43.0578 44.1867 44.0658 43.776 45.2498 43.776C46.4444 43.776 47.4524 44.1867 48.2738 45.008C49.1058 45.8187 49.5218 46.816 49.5218 48C49.5218 49.184 49.1058 50.1867 48.2738 51.008C47.4524 51.8187 46.4444 52.224 45.2498 52.224ZM45.2498 49.664C45.7191 49.664 46.1031 49.5093 46.4018 49.2C46.7111 48.8907 46.8658 48.4907 46.8658 48C46.8658 47.5093 46.7111 47.1093 46.4018 46.8C46.1031 46.4907 45.7191 46.336 45.2498 46.336C44.7911 46.336 44.4071 46.4907 44.0978 46.8C43.7991 47.1093 43.6498 47.5093 43.6498 48C43.6498 48.4907 43.7991 48.8907 44.0978 49.2C44.4071 49.5093 44.7911 49.664 45.2498 49.664ZM56.3379 40.8H58.9939V52H56.3379V51.264C55.7939 51.904 55.0365 52.224 54.0659 52.224C52.9992 52.224 52.1032 51.824 51.3779 51.024C50.6632 50.2133 50.3059 49.2053 50.3059 48C50.3059 46.7947 50.6632 45.792 51.3779 44.992C52.1032 44.1813 52.9992 43.776 54.0659 43.776C55.0365 43.776 55.7939 44.096 56.3379 44.736V40.8ZM53.4419 49.264C53.7512 49.584 54.1565 49.744 54.6579 49.744C55.1592 49.744 55.5645 49.584 55.8739 49.264C56.1832 48.944 56.3379 48.5227 56.3379 48C56.3379 47.4773 56.1832 47.056 55.8739 46.736C55.5645 46.416 55.1592 46.256 54.6579 46.256C54.1565 46.256 53.7512 46.416 53.4419 46.736C53.1325 47.056 52.9779 47.4773 52.9779 48C52.9779 48.5227 53.1325 48.944 53.4419 49.264ZM62.0856 52.224C61.6163 52.224 61.2163 52.064 60.8856 51.744C60.5656 51.4133 60.4056 51.0187 60.4056 50.56C60.4056 50.1013 60.571 49.712 60.9016 49.392C61.2323 49.0613 61.627 48.896 62.0856 48.896C62.5443 48.896 62.9336 49.0613 63.2536 49.392C63.5843 49.712 63.7496 50.1013 63.7496 50.56C63.7496 51.0187 63.5843 51.4133 63.2536 51.744C62.9336 52.064 62.5443 52.224 62.0856 52.224ZM65.1586 52V40.32H67.8146V52H65.1586ZM71.7461 42.896C71.4475 43.1947 71.0901 43.344 70.6741 43.344C70.2581 43.344 69.8955 43.1947 69.5861 42.896C69.2875 42.5867 69.1381 42.224 69.1381 41.808C69.1381 41.392 69.2875 41.0347 69.5861 40.736C69.8955 40.4373 70.2581 40.288 70.6741 40.288C71.0901 40.288 71.4475 40.4373 71.7461 40.736C72.0555 41.0347 72.2101 41.392 72.2101 41.808C72.2101 42.224 72.0555 42.5867 71.7461 42.896ZM69.3461 52V44H72.0021V52H69.3461ZM78.0456 43.024C77.1283 42.96 76.6696 43.2853 76.6696 44H78.0456V46.544H76.6696V52H74.0136V46.544H73.0056V44H74.0136C74.0136 42.848 74.3496 41.968 75.0216 41.36C75.7043 40.752 76.7123 40.4853 78.0456 40.56V43.024ZM81.0266 48.976C81.2933 49.6267 81.8906 49.952 82.8186 49.952C83.3946 49.952 83.88 49.7653 84.2746 49.392L86.1946 50.736C85.4053 51.728 84.2586 52.224 82.7546 52.224C81.4 52.224 80.312 51.8293 79.4906 51.04C78.68 50.24 78.2746 49.232 78.2746 48.016C78.2746 46.8107 78.6746 45.8027 79.4746 44.992C80.2746 44.1813 81.2933 43.776 82.5306 43.776C83.7253 43.776 84.712 44.176 85.4906 44.976C86.2693 45.776 86.6586 46.7787 86.6586 47.984C86.6586 48.336 86.6213 48.6667 86.5466 48.976H81.0266ZM80.9946 47.136H84.0666C83.8533 46.3893 83.352 46.016 82.5626 46.016C81.7413 46.016 81.2186 46.3893 80.9946 47.136Z" fill="white"></path> <path d="M15.283 56.65V60H14.8408V57.0788H12.9112V60H12.469V56.65H15.283ZM17.7792 60.0804C17.2745 60.0804 16.8546 59.9129 16.5196 59.5779C16.1846 59.2384 16.0171 58.8208 16.0171 58.325C16.0171 57.8292 16.1846 57.4138 16.5196 57.0788C16.8546 56.7393 17.2745 56.5696 17.7792 56.5696C18.1098 56.5696 18.4068 56.65 18.6703 56.8108C18.9339 56.9671 19.1259 57.1793 19.2465 57.4473L18.8847 57.655C18.7954 57.454 18.6502 57.2954 18.4492 57.1793C18.2527 57.0587 18.0294 56.9984 17.7792 56.9984C17.4085 56.9984 17.0958 57.1279 16.8412 57.387C16.5866 57.6416 16.4593 57.9543 16.4593 58.325C16.4593 58.6957 16.5866 59.0106 16.8412 59.2697C17.0958 59.5243 17.4085 59.6516 17.7792 59.6516C18.0294 59.6516 18.2527 59.5935 18.4492 59.4774C18.6458 59.3568 18.7999 59.196 18.9115 58.995L19.28 59.2094C19.1416 59.4774 18.9383 59.6896 18.6703 59.8459C18.4023 60.0022 18.1053 60.0804 17.7792 60.0804ZM22.3537 56.65H22.7289V60H22.2867V57.4205L20.2901 60H19.9149V56.65H20.3571V59.2295L22.3537 56.65ZM26.478 60H25.9487L24.9035 58.6198L23.8583 60H23.329L24.6422 58.2647L23.4161 56.65H23.9454L24.9035 57.9163L25.8616 56.65H26.3909L25.1715 58.2647L26.478 60ZM29.6512 59.5779C29.3117 59.9129 28.8963 60.0804 28.405 60.0804C27.9137 60.0804 27.496 59.9129 27.1521 59.5779C26.8126 59.2384 26.6429 58.8208 26.6429 58.325C26.6429 57.8292 26.8126 57.4138 27.1521 57.0788C27.496 56.7393 27.9137 56.5696 28.405 56.5696C28.8963 56.5696 29.3117 56.7393 29.6512 57.0788C29.9951 57.4138 30.1671 57.8292 30.1671 58.325C30.1671 58.8208 29.9951 59.2384 29.6512 59.5779ZM27.467 59.2697C27.7216 59.5243 28.0343 59.6516 28.405 59.6516C28.7757 59.6516 29.0884 59.5243 29.343 59.2697C29.5976 59.0106 29.7249 58.6957 29.7249 58.325C29.7249 57.9543 29.5976 57.6416 29.343 57.387C29.0884 57.1279 28.7757 56.9984 28.405 56.9984C28.0343 56.9984 27.7216 57.1279 27.467 57.387C27.2124 57.6416 27.0851 57.9543 27.0851 58.325C27.0851 58.6957 27.2124 59.0106 27.467 59.2697ZM33.5232 56.65V60H33.081V57.0788H31.5668V58.5729C31.5668 59.1312 31.4596 59.5154 31.2452 59.7253C31.0353 59.9352 30.745 60.0268 30.3742 60V59.5846C30.6288 59.6114 30.8164 59.5511 30.937 59.4037C31.0621 59.2563 31.1246 58.9794 31.1246 58.5729V56.65H33.5232ZM37.2672 59.5779C36.9278 59.9129 36.5124 60.0804 36.021 60.0804C35.5297 60.0804 35.1121 59.9129 34.7681 59.5779C34.4287 59.2384 34.2589 58.8208 34.2589 58.325C34.2589 57.8292 34.4287 57.4138 34.7681 57.0788C35.1121 56.7393 35.5297 56.5696 36.021 56.5696C36.5124 56.5696 36.9278 56.7393 37.2672 57.0788C37.6112 57.4138 37.7831 57.8292 37.7831 58.325C37.7831 58.8208 37.6112 59.2384 37.2672 59.5779ZM35.083 59.2697C35.3376 59.5243 35.6503 59.6516 36.021 59.6516C36.3918 59.6516 36.7044 59.5243 36.959 59.2697C37.2136 59.0106 37.3409 58.6957 37.3409 58.325C37.3409 57.9543 37.2136 57.6416 36.959 57.387C36.7044 57.1279 36.3918 56.9984 36.021 56.9984C35.6503 56.9984 35.3376 57.1279 35.083 57.387C34.8284 57.6416 34.7011 57.9543 34.7011 58.325C34.7011 58.6957 34.8284 59.0106 35.083 59.2697ZM40.6671 56.65V57.0788H38.9653V60H38.5231V56.65H40.6671ZM43.6445 56.65H44.0197V60H43.5775V57.4205L41.5809 60H41.2057V56.65H41.6479V59.2295L43.6445 56.65ZM47.1256 56.65H47.5678V60H47.1256V58.727C46.8666 58.861 46.5472 58.928 46.1675 58.928C45.7298 58.928 45.3948 58.8275 45.1625 58.6265C44.9347 58.421 44.8208 58.1195 44.8208 57.722V56.65H45.263V57.722C45.263 58.0034 45.3367 58.2066 45.4841 58.3317C45.6315 58.4523 45.8549 58.5126 46.1541 58.5126C46.5025 58.5126 46.8264 58.4478 47.1256 58.3183V56.65ZM50.0554 56.5696C50.5512 56.5696 50.9509 56.746 51.2547 57.0989C51.5629 57.4473 51.717 57.8605 51.717 58.3384C51.717 58.3875 51.7125 58.4568 51.7036 58.5461H48.7623C48.8069 58.8856 48.9499 59.1558 49.1911 59.3568C49.4367 59.5533 49.7382 59.6516 50.0956 59.6516C50.3502 59.6516 50.569 59.6002 50.7522 59.4975C50.9398 59.3903 51.0805 59.2518 51.1743 59.0821L51.5629 59.3099C51.4155 59.5466 51.2145 59.7342 50.9599 59.8727C50.7053 60.0112 50.4149 60.0804 50.0889 60.0804C49.5618 60.0804 49.133 59.9151 48.8025 59.5846C48.4719 59.2541 48.3067 58.8342 48.3067 58.325C48.3067 57.8247 48.4697 57.4071 48.7958 57.0721C49.1218 56.7371 49.5417 56.5696 50.0554 56.5696ZM50.0554 56.9984C49.707 56.9984 49.4144 57.1034 49.1777 57.3133C48.9454 57.5188 48.8069 57.7868 48.7623 58.1173H51.2614C51.2167 57.7644 51.0805 57.4897 50.8527 57.2932C50.6249 57.0967 50.3591 56.9984 50.0554 56.9984ZM53.9815 60.0804C53.4767 60.0804 53.0569 59.9129 52.7219 59.5779C52.3869 59.2384 52.2194 58.8208 52.2194 58.325C52.2194 57.8292 52.3869 57.4138 52.7219 57.0788C53.0569 56.7393 53.4767 56.5696 53.9815 56.5696C54.312 56.5696 54.609 56.65 54.8726 56.8108C55.1361 56.9671 55.3282 57.1793 55.4488 57.4473L55.087 57.655C54.9976 57.454 54.8525 57.2954 54.6515 57.1793C54.4549 57.0587 54.2316 56.9984 53.9815 56.9984C53.6107 56.9984 53.2981 57.1279 53.0435 57.387C52.7889 57.6416 52.6616 57.9543 52.6616 58.325C52.6616 58.6957 52.7889 59.0106 53.0435 59.2697C53.2981 59.5243 53.6107 59.6516 53.9815 59.6516C54.2316 59.6516 54.4549 59.5935 54.6515 59.4774C54.848 59.3568 55.0021 59.196 55.1138 58.995L55.4823 59.2094C55.3438 59.4774 55.1406 59.6896 54.8726 59.8459C54.6046 60.0022 54.3075 60.0804 53.9815 60.0804ZM58.8239 60H58.2343L56.5593 58.3853V60H56.1171V56.65H56.5593V58.1307L58.1539 56.65H58.7569L57.0283 58.258L58.8239 60ZM61.8667 56.65H62.2419V60H61.7997V57.4205L59.8031 60H59.4279V56.65H59.8701V59.2295L61.8667 56.65ZM63.713 56.114V55.7254H65.455V56.114H63.713ZM65.6158 56.65H65.991V60H65.5488V57.4205L63.5522 60H63.177V56.65H63.6192V59.2295L65.6158 56.65ZM71.3481 59.5712H71.8841V60.8978H71.4419V60H68.6011V56.65H69.0433V59.5712H70.9059V56.65H71.3481V59.5712ZM73.9699 56.5696C74.4657 56.5696 74.8655 56.746 75.1692 57.0989C75.4774 57.4473 75.6315 57.8605 75.6315 58.3384C75.6315 58.3875 75.6271 58.4568 75.6181 58.5461H72.6768C72.7215 58.8856 72.8644 59.1558 73.1056 59.3568C73.3513 59.5533 73.6528 59.6516 74.0101 59.6516C74.2647 59.6516 74.4836 59.6002 74.6667 59.4975C74.8543 59.3903 74.995 59.2518 75.0888 59.0821L75.4774 59.3099C75.33 59.5466 75.129 59.7342 74.8744 59.8727C74.6198 60.0112 74.3295 60.0804 74.0034 60.0804C73.4764 60.0804 73.0476 59.9151 72.717 59.5846C72.3865 59.2541 72.2212 58.8342 72.2212 58.325C72.2212 57.8247 72.3843 57.4071 72.7103 57.0721C73.0364 56.7371 73.4563 56.5696 73.9699 56.5696ZM73.9699 56.9984C73.6215 56.9984 73.329 57.1034 73.0922 57.3133C72.86 57.5188 72.7215 57.7868 72.6768 58.1173H75.1759C75.1313 57.7644 74.995 57.4897 74.7672 57.2932C74.5394 57.0967 74.2737 56.9984 73.9699 56.9984ZM78.7067 56.65H79.1489V60H78.7067V58.5394H76.7771V60H76.3349V56.65H76.7771V58.1106H78.7067V56.65ZM82.496 56.65V57.0788H81.3101V60H80.8679V57.0788H79.682V56.65H82.496ZM84.8305 56.5696C85.3085 56.5696 85.7149 56.7393 86.0499 57.0788C86.3894 57.4183 86.5591 57.8337 86.5591 58.325C86.5591 58.8163 86.3894 59.2317 86.0499 59.5712C85.7149 59.9107 85.3085 60.0804 84.8305 60.0804C84.2365 60.0804 83.7853 59.8347 83.4771 59.3434V61.34H83.0349V56.65H83.4771V57.3066C83.7853 56.8153 84.2365 56.5696 84.8305 56.5696ZM83.859 59.2697C84.1136 59.5243 84.4263 59.6516 84.797 59.6516C85.1678 59.6516 85.4804 59.5243 85.735 59.2697C85.9896 59.0106 86.1169 58.6957 86.1169 58.325C86.1169 57.9543 85.9896 57.6416 85.735 57.387C85.4804 57.1279 85.1678 56.9984 84.797 56.9984C84.4263 56.9984 84.1136 57.1279 83.859 57.387C83.6044 57.6416 83.4771 57.9543 83.4771 58.325C83.4771 58.6957 83.6044 59.0106 83.859 59.2697Z" fill="white"></path> </svg> 