<?xml version="1.0" encoding="utf-8"?>
<!-- Generator: Adobe Illustrator 26.0.3, SVG Export Plug-In . SVG Version: 6.00 Build 0)  -->
<svg width="197" height="150" version="1.1" id="Слой_1" xmlns="http://www.w3.org/2000/svg" xmlns:xlink="http://www.w3.org/1999/xlink" x="0px" y="0px"
	 viewBox="0 0 683.2 521.2" style="enable-background:new 0 0 683.2 521.2;" xml:space="preserve">
<style type="text/css">
	.st0{fill:#ff2e00;}
</style>
<g transform="translate(0.000000,1000.000000) scale(0.100000,-0.100000)">
	<path class="st0" d="M1953.6,9987.8c-59-16-121-77-131-132c-11-61,1-129,30-168c51-67,63-69,336-75l245-5l3-347c1-192,0-348-4-348
		c-3,0-33,15-67,34c-118,66-203,66-272-1c-52-51-68-88-68-163c1-132,62-229,204-321l79-52v-116v-116l-66-34
		c-200-104-311-327-340-687c-6-77-5-84,22-134c54-99,167-175,329-222c70-20,102-23,250-23s180,3,250,23c160,46,286,135,335,236
		c21,44,21,50,10,153c-22,203-59,339-120,444c-47,80-157,186-228,218l-52,24v118v118l58,37c153,98,214,186,220,320
		c5,85-11,126-68,178c-75,67-144,67-268,0c-34-19-65-34-67-34c-3,0-5,158-5,350v350h390h390v-249v-249l-29-7c-54-12-121-63-141-108
		c-18-40-20-70-20-532c0-457,2-493,19-531c75-166,407-166,482,0c17,38,19,74,19,531c0,462-2,492-20,532c-20,45-87,96-141,108l-29,7
		v249v249h395h395v-152v-153l-60-28c-48-22-65-37-87-75l-28-47v-205c0-205,0-205,27-251c25-42,71-76,131-93c23-7,25-76,2-76
		c-29,0-94-40-118-72c-39-51-47-100-47-274c0-181,13-244,57-286c32-30,85-58,108-58c13,0,15-8,13-36c-3-32-7-38-42-49
		c-43-15-90-56-114-100c-14-25-17-63-17-235v-205l27-47c42-71,84-91,194-96c103-5,148,6,196,46c60,51,68,85,68,301
		c0,178-2,198-21,238c-24,50-69,87-119,100c-31,8-35,13-35,43s4,34,40,47c50,17,92,57,116,108c16,34,19,66,19,230
		c0,162-3,196-19,230c-23,52-81,102-126,111c-32,6-35,9-35,40c0,29,4,34,36,43c52,14,99,54,123,104c19,40,21,60,21,238
		c0,167-3,200-19,234c-23,51-70,91-122,105l-40,11l3,152l3,152l240,5c285,6,300,11,350,109c28,55,17,150-21,198c-17,21-48,47-70,58
		c-38,20-61,20-1474,22C2261.6,10000.8,1994.6,9998.8,1953.6,9987.8z M4870.6,9845.8c22-20,23-61,1-85c-15-17-74-18-1451-18
		c-1322,0-1437,1-1454,17c-22,20-23,61-1,85c15,17,74,18,1451,18C4738.6,9862.8,4853.6,9861.8,4870.6,9845.8z M4433.6,9147.8
		c25-24,25-27,25-193c0-214-2-217-113-217s-107-8-107,216c0,221-1,219,108,219C4399.6,9172.8,4413.6,9168.8,4433.6,9147.8z
		 M3517.6,8964.8l26-19l3-387l2-388l-32,9c-42,10-154,10-195,0l-33-9v385c0,364,1,385,19,401c10,9,32,21,47,26
		C3398.6,8996.8,3488.6,8986.8,3517.6,8964.8z M2336.6,8811.8c86-45,105-51,160-52c55,0,74,5,167,51c57,29,115,52,128,52
		c30,0,57-37,57-77c0-90-57-164-180-236c-36-20-72-41-80-47c-12-7-16-40-20-151l-5-142h-60h-60l-3,134c-1,78-7,138-14,146
		c-6,7-47,35-92,62c-126,77-176,140-176,223c0,53,22,88,56,88C2227.6,8862.8,2282.6,8839.8,2336.6,8811.8z M4438.6,8382.8
		c18-18,20-33,20-195c0-215,0-215-112-215c-110,0-108-3-108,213c0,220-2,217,107,217C4405.6,8402.8,4422.6,8398.8,4438.6,8382.8z
		 M2684.6,8036.8c124-59,218-197,255-378c11-54,19-100,17-101c-2-2-35,8-74,21c-224,75-597,70-790-11c-21-8-39-13-42-10
		c-12,12,39,209,70,272c42,86,128,175,202,209C2427.6,8086.8,2580.6,8085.8,2684.6,8036.8z M3479.6,8050.8c21-6,46-19,55-29
		c14-16,15-21,3-35c-47-57-191-57-238,0c-12,15-12,19,3,34C3339.6,8058.8,3413.6,8070.8,3479.6,8050.8z M4439.6,7613.8
		c17-21,19-43,19-193c0-166,0-169-25-193c-20-21-34-25-87-25c-109,0-108-1-108,213c0,100,4,187,8,194c14,22,56,33,116,30
		C4409.6,7636.8,4425.6,7631.8,4439.6,7613.8z M2743.6,7479.8c84-19,171-51,204-76l24-18l-44-45c-85-84-209-127-390-135
		c-185-8-349,35-442,117c-62,54-64,65-15,93c106,61,256,88,453,83C2610.6,7496.8,2705.6,7487.8,2743.6,7479.8z"/>
	<path class="st0" d="M2361.6,7412.8c-25-10-38-48-29-85c9-36,61-48,193-43c123,3,153,17,153,67c-1,59-31,71-177,70
		C2436.6,7421.8,2373.6,7417.8,2361.6,7412.8z"/>
	<path class="st0" d="M1495.6,6492.8c-59-11-111-45-181-121c-101-109-116-166-116-453l-1-201l-52-30c-72-41-72-68,0-110l53-30v-175
		c1-216,11-304,46-371c36-73,112-144,192-182c62-30,75-32,172-32c98,0,110,2,170,32c81,40,136,86,183,155c50,73,67,176,67,402v171
		l55,30c45,24,55,34,55,55s-10,32-52,56l-53,30l-6,224c-4,129-12,242-19,265c-37,123-127,227-230,266
		C1716.6,6497.8,1574.6,6506.8,1495.6,6492.8z M1675.6,6197.8c52-34,53-46,53-558v-474l-23-34c-58-87-188-62-217,42
		c-6,20-10,223-10,489c0,413,2,458,18,490C1528.6,6217.8,1612.6,6238.8,1675.6,6197.8z"/>
	<path class="st0" d="M3888.6,6475.8c-8-3-18-11-22-17s-8-172-8-369v-357l-46-28c-93-54-94-70-11-125l57-38v-358c0-321,2-360,17-372
		c12-11,66-15,225-17c320-5,403,14,503,119c31,32,68,84,83,116c25,54,27,69,30,218c5,196-7,250-79,355c-27,40-49,78-49,84
		s16,36,36,66c95,150,100,366,12,533c-39,72-92,120-177,161l-66,31l-245,2C4013.6,6480.8,3896.6,6479.8,3888.6,6475.8z
		 M4328.6,6173.8c86-63,92-255,10-324c-38-33-91-42-128-23c-45,23-57,65-57,196c1,122,10,154,48,170
		C4231.6,6205.8,4298.6,6195.8,4328.6,6173.8z M4338.6,5508.8c88-58,111-221,47-345c-27-54-74-81-141-81c-84,0-86,4-86,212
		c0,103,4,187,10,198C4196.6,5545.8,4272.6,5552.8,4338.6,5508.8z"/>
	<path class="st0" d="M132.6,6458.8c-18-14-19-31-22-375l-3-360l-55-32c-47-27-55-35-52-57c2-20,16-34,55-56l52-30l3-362
		c2-238,7-367,14-374c5-5,56-11,113-13c92-2,104,0,117,17c11,16,14,65,14,235c0,216,7,277,36,306c21,20,29,19,53-7
		c18-19,116-252,182-433c40-111,82-132,239-120c105,7,124,16,115,52c-3,14-87,223-185,467c-103,251-180,456-180,474
		c0,21,53,138,155,343c123,245,153,314,144,325c-16,19-247,20-273,1c-9-7-59-93-109-191c-51-99-100-184-109-190c-23-14-50,2-59,35
		c-4,13-7,92-8,176c-1,145-2,153-23,167C316.6,6477.8,160.6,6478.8,132.6,6458.8z"/>
	<path class="st0" d="M3210.6,6465.8c-32-3-45-10-52-26c-6-12-26-107-46-212c-19-104-55-293-79-420c-24-126-46-238-50-247
		c-4-10-17-18-30-18c-17,0-26,9-34,33c-7,17-48,213-92,435c-44,221-84,414-89,427l-10,25h-179h-179l-11-31c-7-21-11-152-11-375v-342
		l-55-31c-78-44-73-70,24-123l30-17l3-361c3-345,4-362,22-376c14-10,49-14,118-14c147,0,138-20,139,313c1,282,5,320,30,325
		c23,4,44-53,88-243c67-291,89-369,107-382s140-18,181-7c32,9,46,54,97,301c52,252,58,273,85,273c32,0,41-69,41-314
		c0-277-5-266,128-266c108,0,127,5,141,36c7,17,11,136,11,369v345l56,31c47,27,55,35,52,57c-2,20-16,34-55,56l-53,30v356
		c0,284-3,360-14,375c-11,16-30,18-142,20C3311.6,6469.8,3234.6,6468.8,3210.6,6465.8z"/>
	<path class="st0" d="M5161.6,6457.8c-29-20-32-32-94-406l-53-316l-65-40c-86-51-89-70-22-112c28-17,51-38,51-47s-25-161-56-337
		c-30-176-54-336-52-356l3-36l126-3c100-2,130,0,141,12c8,8,24,74,37,153c33,195,38,203,148,203c105,0,123-25,148-205
		c9-66,23-130,31-142c8-13,29-25,50-29c49-9,193,3,210,17c23,19,16,87-40,422l-53,317l49,30c69,43,66,65-17,113c-36,21-65,41-65,45
		s-27,162-59,352c-52,302-62,347-81,362s-43,18-169,18C5213.6,6472.8,5178.6,6469.8,5161.6,6457.8z M5352.6,5720.8
		c16-26,46-175,46-230c0-41-11-48-75-48c-58,0-69,16-61,87c16,135,40,213,66,213C5333.6,5742.8,5344.6,5732.8,5352.6,5720.8z"/>
	<path class="st0" d="M5968.6,6452.8c-19-19-20-33-20-374v-355l-56-31c-47-28-55-36-52-58c2-20,16-34,55-56l52-30l3-362
		c2-238,7-367,14-374c5-5,56-11,113-13c92-2,104,0,117,17c11,16,14,65,14,237c0,238,3,268,32,298c24,26,32,26,57,0
		c17-19,142-320,187-452c31-91,94-116,251-101c59,6,89,14,96,24c7,12-36,127-163,440c-95,234-182,449-193,478l-20,53l162,326
		c126,255,159,329,150,339c-14,17-239,20-269,4c-10-5-57-85-105-177c-109-208-112-213-141-213c-34,0-44,49-44,218
		c0,182,0,182-130,182C6001.6,6472.8,5985.6,6469.8,5968.6,6452.8z"/>
</g>
</svg>
