<svg width="120" height="120" viewBox="0 0 120 120" fill="none" xmlns="http://www.w3.org/2000/svg">
<path d="M0 18.2625C0 8.1764 8.1764 0 18.2625 0H101.738C111.824 0 120 8.1764 120 18.2625V101.738C120 111.824 111.824 120 101.738 120H18.2625C8.1764 120 0 111.824 0 101.738V18.2625Z" fill="#FF3000"/>
<path d="M90.3869 99.375C85.0303 99.375 81.3399 96.4388 81.3399 87.3433V85.3869H87.292V87.3444C87.292 92.1801 88.6017 93.5037 90.3869 93.5037C92.1721 93.5037 93.4229 92.1801 93.4229 89.9347C93.4229 87.1134 93.0063 85.5599 88.8394 82.6237C83.9583 79.2277 81.6965 75.6007 81.6965 70.938C81.6965 65.0086 84.9103 61.4396 90.3869 61.4396C94.1961 61.4396 99.2561 62.5913 99.2561 72.2616V74.507H93.3041V72.2616C93.3041 68.4627 92.0543 67.196 90.3869 67.196C88.6017 67.196 87.6486 68.4627 87.6486 70.707C87.6486 73.0093 88.184 74.9088 92.3509 78.018C97.5298 81.8749 99.375 84.926 99.375 89.9336C99.375 94.9411 96.9933 99.375 90.3869 99.375ZM70.089 99.375C64.7323 99.375 61.042 96.8997 61.042 87.3433V85.3869H66.9941V87.3444C66.9941 92.1801 68.3038 93.5037 70.089 93.5037C71.8742 93.5037 73.125 92.1801 73.125 89.9347C73.125 87.1134 72.7084 85.5599 68.5415 82.6237C63.6603 79.2277 61.3986 75.6007 61.3986 70.938C61.3986 65.0086 64.6124 61.4396 70.089 61.4396C73.8982 61.4396 78.9582 62.5913 78.9582 72.2616V74.507H73.0061V72.2616C73.0061 68.4627 71.7564 67.196 70.089 67.196C68.3038 67.196 67.3507 68.4627 67.3507 70.707C67.3507 73.0093 67.8861 74.9088 72.053 78.018C77.2319 81.8749 79.0771 84.926 79.0771 89.9336C79.0771 94.9411 76.6965 99.375 70.089 99.375ZM90.3869 58.5604C85.0303 58.5604 81.3399 55.6242 81.3399 46.5287V44.5723H87.292V46.5298C87.292 51.3654 88.6017 52.689 90.3869 52.689C92.1721 52.689 93.4229 51.3654 93.4229 49.12C93.4229 46.2988 93.0063 44.7453 88.8394 41.8091C83.9583 38.413 81.6965 34.786 81.6965 30.1233C81.6965 24.194 84.9103 20.625 90.3869 20.625C94.1961 20.625 99.2561 21.7767 99.2561 31.4469V33.6923H93.3041V31.4469C93.3041 27.648 92.0543 26.3814 90.3869 26.3814C88.6017 26.3814 87.6486 27.648 87.6486 29.8924C87.6486 32.1947 88.184 34.0942 92.3509 37.2033C97.5298 41.0603 99.375 44.1114 99.375 49.119C99.375 54.1265 96.9933 58.5604 90.3869 58.5604ZM70.089 58.5604C64.7323 58.5604 61.042 56.0851 61.042 46.5287V44.5723H66.9941V46.5298C66.9941 51.3654 68.3038 52.689 70.089 52.689C71.8742 52.689 73.125 51.3654 73.125 49.12C73.125 46.2988 72.7084 44.7453 68.5415 41.8091C63.6603 38.413 61.3986 34.786 61.3986 30.1233C61.3986 24.194 64.6124 20.625 70.089 20.625C73.8982 20.625 78.9582 21.7767 78.9582 31.4469V33.6923H73.0061V31.4469C73.0061 27.648 71.7564 26.3814 70.089 26.3814C68.3038 26.3814 67.3507 27.648 67.3507 29.8924C67.3507 32.1947 67.8861 34.0942 72.053 37.2033C77.2319 41.0603 79.0771 44.1114 79.0771 49.119C79.0771 54.1265 76.6965 58.5604 70.089 58.5604ZM26.5782 85.3869H27.769C30.3885 85.3869 31.6971 84.1203 31.6971 78.2489V74.9099C31.6971 69.0385 30.3874 67.7719 27.769 67.7719H26.5782V85.3869ZM26.5782 98.7991H20.6261V62.0144H27.769C35.5074 62.0144 37.6503 66.2742 37.6503 74.334V78.8237C37.6503 86.8824 35.5074 91.1433 27.769 91.1433H26.5782V98.7991ZM27.7679 38.8159H26.5771V26.9572H27.7679C30.4463 26.9572 31.696 27.821 31.696 31.8498V33.9223C31.6971 37.9521 30.4474 38.8159 27.7679 38.8159ZM38.78 57.9856L34.1966 42.6729C36.3994 40.8884 37.6492 37.9521 37.6492 34.3262V31.448C37.6492 24.7129 34.5543 21.2009 27.7679 21.2009H20.625V57.9856H26.5771V44.5723H27.3514C27.6491 44.5723 28.0656 44.5723 28.72 44.5143L32.2914 57.9845L38.78 57.9856ZM45.5653 85.3869L48.6013 67.7719H49.0779L52.1128 85.3869H45.5653ZM54.3756 98.7991H60.3277L53.7202 62.0144H43.959L37.2926 98.7991H43.2447L44.6133 91.1433H53.0659L54.3756 98.7991ZM49.4345 58.5604C42.1127 58.5604 40.7441 53.2069 40.7441 46.7017V21.2009H46.935V47.2206C46.935 51.7683 47.7681 52.804 49.4345 52.804C51.1008 52.804 51.9339 51.7683 51.9339 47.2206V21.2009H58.1248V46.7027C58.1248 53.2069 56.7562 58.5604 49.4345 58.5604Z" fill="white"/>
</svg>
