<svg xmlns="http://www.w3.org/2000/svg" viewBox="0 0 50 50">
<path id="auto" fill-rule="evenodd" clip-rule="evenodd" fill="#0067E7" d="M17.495,28.238l-2.944-9.757l-2.944,9.757H17.495z
	 M17.495,28.238L17.495,28.238L17.495,28.238z M19.262,34.042H9.841L8.495,38.5H0l10.093-27h9.084l10.178,27h-8.748L19.262,34.042z
	 M19.262,34.042L19.262,34.042L19.262,34.042z M32.047,11.5L32.047,11.5L32.047,11.5z"/>
<path id="rus" fill-rule="evenodd" clip-rule="evenodd" fill="#FD2C1A" d="M33.358,25.936l3.079-2.995
	c1.248,0.749,2.663,0.915,3.828-0.166c0.749-0.749,1.165-1.914,1.165-3.744c0-1.914-0.25-3.245-0.666-4.16
	c-0.666-1.248-1.831-1.581-3.411-1.581c-2.164,0-3.412,1.082-3.828,3.661c-0.083,0.832-0.166,2.247-0.166,4.077V25.936z
	 M33.358,25.936L33.358,25.936L33.358,25.936z M33.358,28.432v8.321h4.077V38.5H21.709v-1.747h4.077V13.288h-4.16v-1.747h14.644
	c3.827-0.25,8.404,0.666,10.567,2.163C49.002,15.036,50,16.866,50,19.113c0,2.08-0.749,3.828-2.33,5.242
	c-2.163,1.914-5.492,2.579-8.238,1.747c-0.832-0.25-1.664-0.666-2.746-1.082L33.358,28.432z M33.358,28.432L33.358,28.432
	L33.358,28.432z"/>
</svg>
